<svg id="Capa_1" data-name="Capa 1" xmlns="http://www.w3.org/2000/svg" viewBox="0 0 1133.86 1133.86"><defs><style>.cls-1{fill:#abceee;}.cls-2{fill:#c7d1ea;}.cls-3{fill:#e6ecf8;}.cls-4{fill:#f6f8fd;}.cls-5{fill:#8197ca;}.cls-6{fill:#ae5b41;}.cls-7{fill:#a45039;}.cls-8{fill:#bc6a4c;}.cls-9{fill:#762817;}.cls-10{fill:#8f3d29;}.cls-11{fill:#802f22;}.cls-12{fill:#9f483a;}.cls-13{fill:#fde3cd;}.cls-14{fill:#a44e31;}.cls-15{fill:#e62f26;}.cls-16{fill:#d11917;}.cls-17{fill:#b71918;}.cls-18{fill:#db770f;}.cls-19{fill:#f39323;}.cls-20{fill:#ba5f17;}.cls-21{fill:#fff;}.cls-22{fill:#22213f;}.cls-23{fill:#f1cbe2;}.cls-24{fill:#82b3cc;}.cls-25{fill:#77cae1;}.cls-26{fill:#72c9e5;}.cls-27{fill:#aedcef;}.cls-28{fill:#77cbe9;}.cls-29{fill:#344395;}.cls-30{fill:#5fc5e7;}.cls-31{fill:#75cae3;}.cls-32{fill:#8ed1e7;}.cls-33{fill:#69c6e0;}.cls-34{fill:#79cadf;}.cls-35{fill:#e6a8cc;}.cls-36{fill:#fdeef6;}</style></defs><title>BAÑO</title><g id="_1" data-name="1"><ellipse class="cls-1" cx="566.99" cy="447.36" rx="462.08" ry="447.36"/><path class="cls-2" d="M1067.75,1113.41c0,11.36-224,20.45-500.76,20.45s-500.76-9.21-500.76-20.45S290.29,1093,567,1093,1067.75,1102.06,1067.75,1113.41Z"/><path class="cls-3" d="M367.52,534.18a38.21,38.21,0,0,0-20.31,5.55,39.67,39.67,0,0,0,.26-5.55c0-18.8-17-34.45-37.78-34.45-18,0-32.47,11.11-36.48,26a38.81,38.81,0,0,0-26.39-10.1c-20.57,0-37.77,15.4-37.77,34.45a28.52,28.52,0,0,0,4.27,15.65,34.46,34.46,0,0,0-8.93-1c-20.57,0-37.77,15.14-37.77,34.45s16.56,34.58,37.64,34.58c19.54,0,35.71-13.76,37.52-31.3,6.85,8.46,18,13.76,29.88,13.76a41,41,0,0,0,25.1-8.71c6.85,7.19,16.94,11.36,28.33,11.36,14,0,26.13-6.82,32.73-17.42a40.93,40.93,0,0,0,9.57,1c20.57,0,37.77-15.39,37.77-34.45S388.22,534.18,367.52,534.18Z"/><path class="cls-4" d="M344.1,519.16a41.09,41.09,0,0,0-16.43-3.4c-17.46,0-32.47,11.1-36.48,26a38.6,38.6,0,0,0-26.39-9.84c-20.56,0-37.77,15.4-37.77,34.45A28.52,28.52,0,0,0,231.3,582a34.46,34.46,0,0,0-8.93-1c-20.57,0-37.77,15.4-37.77,34.45a31,31,0,0,0,3.75,14.89C175.93,624.79,167,612.93,167,599.42c0-18.8,16.68-34.45,37.77-34.45a36.26,36.26,0,0,1,8.93,1c-2.33-4.54-4.27-10.09-4.27-15.65,0-18.8,16.68-34.45,37.77-34.45a40.27,40.27,0,0,1,26.39,9.85c4-14.89,19-26,36.48-26C324.7,499.6,338,507.43,344.1,519.16Z"/><path class="cls-5" d="M204.26,636.4c-22.51,0-40.75-16.66-40.75-37.1s18.24-37.1,40.75-37.1H208a37.41,37.41,0,0,1-2.07-12.12c0-20.44,18.24-37.1,40.75-37.1a43.29,43.29,0,0,1,25.1,7.7c6.08-14.26,21.09-23.85,38.29-23.85,22.51,0,40.75,16.66,40.75,37.1v.76a45.45,45.45,0,0,1,16.95-3.41c22.51,0,40.75,16.66,40.75,37.1s-18.24,37.1-40.75,37.1a44,44,0,0,1-8.15-.76c-7.38,10.35-20.31,16.91-34.41,16.91a44,44,0,0,1-28.33-10.34,44,44,0,0,1-24.58,7.44A42.62,42.62,0,0,1,244,608.38C239.45,625,223.54,636.4,204.26,636.4Zm0-68.78c-19,0-34.67,14-34.67,31.55s15.27,31.55,34.67,31.55c18.24,0,32.73-12.24,34.67-28.65a3.2,3.2,0,0,1,2.07-2.65,3.32,3.32,0,0,1,3.24,1,35.78,35.78,0,0,0,27.68,12.75c8.41,0,16.95-2.9,22.77-7.7a3.1,3.1,0,0,1,4.27.25c6.33,6.82,16.17,10.35,25.61,10.35,12.42,0,24.06-6.31,29.88-15.9a3.54,3.54,0,0,1,3.75-1.26,34.46,34.46,0,0,0,8.93,1c19,0,34.67-14,34.67-31.55s-15.27-31.55-34.67-31.55a34.87,34.87,0,0,0-19,5.3,2.57,2.57,0,0,1-3.23,0,3.13,3.13,0,0,1-1.29-2.9,35.89,35.89,0,0,0,.25-5.3c0-17.42-15.26-31.55-34.66-31.55-16.18,0-29.63,9.84-33.51,24.1a2.64,2.64,0,0,1-2.07,1.9,3,3,0,0,1-2.85-.76,35.92,35.92,0,0,0-24.32-9.21c-19,0-34.66,14-34.66,31.55a26.14,26.14,0,0,0,4,14.26,2.42,2.42,0,0,1-.26,2.9,3,3,0,0,1-3.24,1A78.26,78.26,0,0,0,204.26,567.62Z"/><path class="cls-3" d="M841.63,532.16a38.25,38.25,0,0,0-20.31,5.56,39.81,39.81,0,0,0,.26-5.56c0-18.8-17-34.45-37.78-34.45-18,0-32.47,11.11-36.48,26a38.81,38.81,0,0,0-26.39-10.1c-20.56,0-37.77,15.4-37.77,34.45a28.49,28.49,0,0,0,4.27,15.65,34.46,34.46,0,0,0-8.93-1c-20.56,0-37.77,15.4-37.77,34.45,0,18.81,16.95,34.45,37.77,34.45,19.54,0,35.71-13.75,37.52-31.29,6.85,8.45,18,13.75,29.88,13.75a41,41,0,0,0,25.1-8.7c6.85,7.19,16.94,11.35,28.33,11.35,14,0,26.13-6.81,32.73-17.41a41,41,0,0,0,9.57,1c20.57,0,37.77-15.4,37.77-34.45C879.4,547.68,862.72,532.16,841.63,532.16Z"/><path class="cls-4" d="M818.09,517.52a41.13,41.13,0,0,0-16.43-3.4c-17.47,0-32.47,11.1-36.48,26a38.62,38.62,0,0,0-26.39-9.84c-20.57,0-37.78,15.4-37.78,34.45a28.6,28.6,0,0,0,4.27,15.65,34.38,34.38,0,0,0-8.92-1c-20.57,0-37.78,15.4-37.78,34.45a31.16,31.16,0,0,0,3.75,14.89C649.91,623.15,641,611.29,641,597.78c0-18.8,17-34.45,37.77-34.45a36.26,36.26,0,0,1,8.93,1c-2.33-4.54-4.27-10.09-4.27-15.65,0-18.8,17-34.45,37.77-34.45a40.19,40.19,0,0,1,26.39,9.85c4-14.89,19-26,36.48-26C799.07,498,812,505.66,818.09,517.52Z"/><path class="cls-5" d="M678.76,634.76c-22.51,0-40.75-16.66-40.75-37.1s18.24-37.1,40.75-37.1h3.75a37.41,37.41,0,0,1-2.07-12.12c0-20.44,18.24-37.1,40.75-37.1a43.29,43.29,0,0,1,25.1,7.7c6.08-14.26,21.09-23.85,38.29-23.85,22.51,0,40.75,16.66,40.75,37.1v.76a45.45,45.45,0,0,1,16.95-3.41c22.51,0,40.75,16.66,40.75,37.1s-18.24,37.1-40.75,37.1a44,44,0,0,1-8.15-.76C826.75,613.43,813.82,620,799.72,620a44,44,0,0,1-28.33-10.34,44,44,0,0,1-24.58,7.44,42.62,42.62,0,0,1-28.33-10.35C713.43,623.15,697.52,634.76,678.76,634.76Zm0-68.78c-19,0-34.67,14-34.67,31.55s15.27,31.55,34.67,31.55c18.24,0,32.73-12.24,34.67-28.65a3.2,3.2,0,0,1,2.07-2.65,3.32,3.32,0,0,1,3.24,1,35.78,35.78,0,0,0,27.68,12.75c8.41,0,17-2.9,22.77-7.7a3.1,3.1,0,0,1,4.27.25c6.33,6.82,16.17,10.35,25.61,10.35,12.42,0,24.06-6.31,29.88-15.9a3.54,3.54,0,0,1,3.75-1.26,34.46,34.46,0,0,0,8.93,1c19,0,34.67-14,34.67-31.55S861,535.19,841.63,535.19a34.87,34.87,0,0,0-19,5.3,2.57,2.57,0,0,1-3.23,0,3.13,3.13,0,0,1-1.29-2.9,35.89,35.89,0,0,0,.25-5.3c0-17.42-15.26-31.55-34.66-31.55-16.18,0-29.63,9.84-33.51,24.1a2.64,2.64,0,0,1-2.07,1.9,3,3,0,0,1-2.85-.76,35.92,35.92,0,0,0-24.32-9.21c-19,0-34.66,14-34.66,31.55a26.14,26.14,0,0,0,4,14.26,2.42,2.42,0,0,1-.26,2.9,3,3,0,0,1-3.24,1C684.07,566.24,681.22,566,678.76,566Z"/><path class="cls-6" d="M353.55,894.59c10.09,10.1,42.56,11.11,78.26,8.21a694.2,694.2,0,0,0,68.95-9.47c70-13,85.64-42.4,70.24-112.31-7.89-36-51.48-75.21-51.48-75.21S487.82,695,453.41,696c-17.2.26-34.67,3.66-48.89,12.75a45.22,45.22,0,0,0-6.86,4.79,30.77,30.77,0,0,0-4.79,4.29c-49.67,49,20.57,132.38,21.61,133.39h0c-30.4-1-63.39,16.66-65.33,32.81C349,887.65,350.05,891.06,353.55,894.59Z"/><path class="cls-7" d="M404.26,708.46s12.93,91.61,45.66,159.88c33.25,68,17.21-159.88,17.21-159.88l-14-12.75C436,696,418.62,699.37,404.26,708.46Z"/><path class="cls-8" d="M414.61,850.8C376.06,767.64,393,717.42,393,717.42h0C343.2,766.38,413.57,849.79,414.61,850.8Z"/><path class="cls-7" d="M353.55,894.59c10.09,10.1,42.56,11.11,78.26,8.21l-13.45-18.3s-44.37,14.26-68.44-.76C349,887.65,350.05,891.06,353.55,894.59Z"/><path class="cls-9" d="M399,906.46c-21.34,0-39.84-2.65-47.6-10.35C346,890.56,345,884,348.5,877.3c7.89-14.89,35.45-28,61.06-28.64-13.45-17.54-66.88-93.51-14-136.67,42.56-35,121.08-9.21,124.19-8.2a.81.81,0,0,1,.77.75c1.81,1.64,44.37,40,52,76.48,15.65,73.06-2.33,102-72.19,115C487.05,898,437.89,906.46,399,906.46ZM412.54,853c-26.39,0-52.91,13.75-59.25,26-2.33,5.3-1.81,9.84,2.07,14,14,14.26,82.66,9.21,144.49-2.14,67.14-12.24,83.7-39.12,68.44-109.54-7.12-33.31-45.93-69.66-50.2-73.57-6.85-2.15-80.33-24.36-118.62,7.19-56.27,46.32,16.43,133.64,17.46,134.53a1.45,1.45,0,0,1,.26,2.14,2.3,2.3,0,0,1-2.07,1.26A21,21,0,0,1,412.54,853Z"/><path class="cls-10" d="M777.85,854.34c41.79,24.1,140.36,32.3,182-35,6.85-10.85,11.38-22.46,15-35h0c18.24-66.51-4.27-151.94-22.25-155.73-15-3.41-9.18,2.65-28.85,100.07-5.82,28-19.27,47.07-35.7,59.57-15.26,12.11-33.5,18.3-49.93,22h0a168.59,168.59,0,0,1-48.9,2.9Z"/><path class="cls-11" d="M777.85,854.34c41.79,24.1,140.36,32.3,182-35,6.85-10.85,11.38-22.46,15-35-51,91.11-135.31,26.24-136.35,25.36h0a168.52,168.52,0,0,1-48.89,2.9Z"/><path class="cls-12" d="M888.33,788.34C959.09,757.67,953,628.7,953,628.7c-17.21-1.89-9.18,2.65-28.85,100.07C918.73,756.41,905,775.47,888.33,788.34Z"/><path class="cls-9" d="M853,874.15c-30.66,0-59.24-8.2-76.32-17.79a2.33,2.33,0,0,1-1-2.65l11.91-41.52c0-.25,0-.25.25-.76a2,2,0,0,1,2.33-1c4.79.25,113.07,10.85,131.82-82.66,6.08-29.65,9.19-50.35,12.16-65.87,5.82-34.2,6.34-37.86,19.54-36.22,4.78.76,9.18,4.8,13.45,12.75C984.32,670,998.29,762.59,962.32,820c-15.65,25.12-40.74,41.9-72.44,49.47A138.68,138.68,0,0,1,853,874.15Zm-72.18-20.7c23.28,12.75,66.36,22,107.5,12.24,30.66-7.19,54.72-23.34,69.47-47.32,33.5-53.76,21.6-145.37,4.27-177.18-4.79-8.7-8.15-10.09-9.58-10.34-8.15-1-8.41-1-14,32.3-2.33,15.4-6.08,36-12.16,65.88-18.24,91.11-118.62,87.58-135.05,86.31Z"/><path class="cls-6" d="M432.85,716.41c4.78,55.65,1,174.52,194.43,183,174.64,7.7,199.21-81,153.55-176.3a351.42,351.42,0,0,0-17.46-31.29c-33.51-53-56.79-105.12-71.93-144.24-15-38.87-21.6-64.61-21.6-64.61l-184.47,13C485.37,496.32,428.06,660.75,432.85,716.41Z"/><path class="cls-13" d="M594.55,511.72s48.9,214.4,15.65,288.35-130.53,45.31-139.45-32.81,30.66-271.95,30.66-271.95Z"/><path class="cls-9" d="M527.15,882.35a1.57,1.57,0,0,1-1-.25c-86.68-35.46-92.24-110.42-95.34-155.35-.26-3.66-.26-7.19-.78-10.34-3.75-43.41,30.4-152.82,44.89-197.75.26-1.26,1.81-1.89,3.23-1.64a2.44,2.44,0,0,1,1.81,2.9C465.44,564.59,431.29,673.25,435,716c.26,3.41.26,6.81.78,10.35,3.23,43.66,8.15,117,92.24,151.43,1,.76,1.81,1.89,1,2.9C529.22,882.1,528.19,882.35,527.15,882.35Z"/><path class="cls-6" d="M545.39,886.64l44.89,13.25S655,809.29,668.8,742.15c19-92.12-6.08-252.52-6.08-252.52L566,507.93s20,91.62,18,177.94c-.26,8.2-.78,15.9-1,23.85-5.83,76.22-27.43,147.39-34.93,169.73A36.4,36.4,0,0,0,545.39,886.64Z"/><path class="cls-6" d="M451.09,874.65l21.6,9.22L497,894s1.81-91.87,0-177.17c-1.29-74.08,26.39-208.86,26.39-208.86l-67.92-15.52s-3.23,19.56-7.89,47.07c-6.08,37.86-14.23,90-18.5,126.32-.25,3.66-.77,6.82-1,10.1-1,9.46-1.29,17.41-1.81,23C425.73,741.27,451.09,874.65,451.09,874.65Z"/><path class="cls-14" d="M429.61,666.05c19.54-12.24,37.52-29.65,39.84-50.85,6.34-50.1-21.34-75.47-21.34-75.47C441.77,577.34,433.88,629.58,429.61,666.05Z"/><path class="cls-8" d="M451.09,874.65l21.6,9.22a70.61,70.61,0,0,0-1.29-7.7c-19-64.11-42-193.84-43.08-199.64-1,9.46-1.3,17.41-1.81,23C425.73,741.27,451.09,874.65,451.09,874.65Z"/><path class="cls-8" d="M547.72,879l21.08,4.79c30.4-74.08,15-198.88,15-198.88v.25c-.26,8.2-.78,15.9-1,23.85C576.57,785.18,555.22,856.48,547.72,879Z"/><path class="cls-6" d="M505.81,904.06c1,6.31,6.33,12.11,17.2,15.39,29.37,9.47,57.83,3.92,65.33-12.11a17.71,17.71,0,0,0,1.81-7.45s-5-15.9-42.56-20.69C521.07,875.54,503.61,890.81,505.81,904.06Z"/><path class="cls-6" d="M429.87,913.65c27.42,8.71,54.72,4.54,63.9-9.47a23.42,23.42,0,0,0,3.76-10.09s-4-16.91-41.53-20.7c-24.32-2.65-41,8.71-42.82,20.7h0C411.63,901.66,416.68,909.36,429.87,913.65Z"/><path class="cls-7" d="M505.81,904.06c1,6.31,6.33,12.11,17.2,15.39,29.37,9.47,57.83,3.92,65.33-12.11C588.21,907.47,547.72,924.75,505.81,904.06Z"/><path class="cls-7" d="M429.87,913.65c27.42,8.71,54.72,4.54,63.9-9.47h0s-58.6,13-80.59-10.09C411.63,901.66,416.68,909.36,429.87,913.65Z"/><path class="cls-9" d="M551,926.77A100,100,0,0,1,521.59,922c-17-5.55-20.31-16.41-18.24-24.36,3.23-12.24,20-23.34,44.37-20.32a103.77,103.77,0,0,1,25.35,6.57c1,.75,1.81,1.89,1,2.9a2.6,2.6,0,0,1-3.24,1c-6.33-2.9-14.48-4.8-24.06-6.31-20.57-2.65-36,6.56-38.81,16.91-2.07,8.2,3.24,15.4,15,19.31,20,6.56,41,5.8,53.69-1.64,6.33-3.92,10.09-9.47,10.34-15.9a2.36,2.36,0,0,1,2.33-2.15,2.27,2.27,0,0,1,2.33,2.15c-.26,8.2-5,14.76-12.42,19.56C572.3,924.25,562.08,926.77,551,926.77Z"/><path class="cls-9" d="M458.2,920.46a100,100,0,0,1-29.36-4.79c-16.43-5.3-20.31-15.65-18.24-23.85,3.23-12.12,20-23.85,44.88-21.2,8.15,1,15.66,2.14,21.61,4.54a2,2,0,0,1,1.29,2.9c-.26,1.26-1.81,1.64-3.23,1.26A91.85,91.85,0,0,0,454.58,875c-21.35-2.14-37.26,7.2-39.59,17.54-2.07,7.7,3.75,14.77,15,18.3,20.05,6.56,41,5.81,53.68-1.64,6.34-3.91,10.09-9.46,10.35-15.9a2.36,2.36,0,0,1,2.33-2.14,2.27,2.27,0,0,1,2.33,2.14c-.26,8.2-5,14.77-12.42,19.56C479.55,918.32,469.33,920.46,458.2,920.46Z"/><path class="cls-9" d="M450.83,874.65a2.44,2.44,0,0,1-2.33-1.89c-1-5.3-25.1-131.62-24.06-173.39.26-23.09,8.15-76.47,14.49-117.61,4.26-27.26,8.15-51.87,10.34-63.86l1-5.3c.26-1.26,1.29-1.89,2.85-1.89a2.51,2.51,0,0,1,2.07,2.65l-1,5.3c-2.07,12.11-6.08,36.85-10.35,63.85-6.34,40.76-14,94-14.23,117-1,41.51,23.55,171.49,24.06,172.63.26,1.26-.77,2.15-2.07,2.65C451.09,874.15,450.83,874.65,450.83,874.65Z"/><path class="cls-9" d="M497,896.11h0a2.28,2.28,0,0,1-2.33-2.15c0-1,1.81-92.88,0-177.17-.26-14.77,1-45.31,5.05-78.12,0-1.26,1.29-2.14,2.84-1.89a2.2,2.2,0,0,1,2.07,2.65c-3.75,31.29-5.3,63-5,77.86,1.81,84.42,0,176.55,0,177.18S498.56,896.11,497,896.11Z"/><path class="cls-9" d="M589.76,902.17c-.26,0-1,0-1.29-.26-1-.75-1.3-1.89-.78-3.4.78-1,64.68-90.86,78.27-157,5.82-27.26,7.89-63.48,6.85-107.77a2.2,2.2,0,0,1,2.33-2.15h0a2.28,2.28,0,0,1,2.33,2.15c1,44.42-1,81-6.86,108.78-13.45,67-78.26,157.74-79,158.63C591.57,901.91,591.06,902.17,589.76,902.17Z"/><path class="cls-9" d="M547.72,881.34h-.78a2.45,2.45,0,0,1-1.81-2.9C552,858,574,785.56,579.8,709c1-12.11,1-43.41,0-73.57a2.2,2.2,0,0,1,2.33-2.15h0a2.28,2.28,0,0,1,2.33,2.15c1,30.41.77,62,0,74.08-5.82,77.1-28.33,149.79-34.93,170.48C549.92,880.71,548.88,881.34,547.72,881.34Z"/><path class="cls-6" d="M598.82,914.66c16.43,16.66,94.56,9.84,146.69-1.26,55.24-11.87,72.19-48,72.19-100.33,0-28-18.5-62.21-29.89-81h0c-5.3-8.7-9.57-14.26-9.57-14.26s-44.63-8.7-85.64-2.9c-18.49,2.65-36.48,8.2-49.15,18.81-36,29.65-21.35,74.95-4.79,105.12a226.55,226.55,0,0,0,21.6,32.3C622.23,869.61,581.09,896.36,598.82,914.66Z"/><path class="cls-14" d="M689.11,652.55c14,44.8,81.37,67.52,92.24,70.67a349.22,349.22,0,0,0-17.47-31.3c-33.5-53-56.79-105.12-71.92-144.24h0C689.11,550.08,673.85,604.09,689.11,652.55Z"/><path class="cls-7" d="M598.82,914.91c16.43,16.66,94.56,9.84,146.69-1.26,55.24-11.86,72.19-48,72.19-100.33,0-28-18.5-62.21-29.89-81,.78,1.89,41.79,97.17-9.57,141.08C726.37,916.8,633.87,922.36,598.82,914.91Z"/><path class="cls-9" d="M777.85,719.81c-1,0-1.81-.25-2.07-1.26-4.26-8.45-9.18-16.91-14.23-25.36-66.36-104.87-93.52-211-93.78-212.39s.26-2.14,1.81-2.65a2.32,2.32,0,0,1,2.84,1.64c.26,1,27.43,106.64,93.27,211,5.31,8.45,10.35,17.41,14.49,25.74a2,2,0,0,1-1,2.91C778.76,719.31,778.5,719.81,777.85,719.81Z"/><path class="cls-15" d="M445.78,528.63a14.54,14.54,0,0,0,3.24,4.29c116,51.11,231.17-16.41,231.17-16.41C690.53,483,667,473.1,667,473.1c-2.85,1.64-5.82,3.41-8.41,4.8-65.84,32.56-203.74,28.39-203.74,28.39C441.25,515.76,442.81,524,445.78,528.63Z"/><path class="cls-16" d="M445.78,528.63a14.54,14.54,0,0,0,3.24,4.29c116,51.11,231.17-16.41,231.17-16.41C690.53,483,667,473.1,667,473.1c-2.85,1.64-5.82,3.41-8.41,4.8l6.08,7.44s-16.43,41.9-88.74,54C516.28,549.32,463.25,534.43,445.78,528.63Z"/><path class="cls-17" d="M541.38,553.87a230.76,230.76,0,0,1-93.53-19.31c-.26,0-.26-.25-.77-.25-.26-.25-6.08-4.8-6.08-12.24,0-6.31,4-12.12,11.9-17.54.26-.26,1-.26,1.81-.76,1.29,0,150.83,4.29,210.86-32.56.77-.25,1.81-.76,2.33-.25.25,0,25.35,10.85,14.48,45.81,0,.75-.77,1-1,1.26C680.7,518.66,619.13,553.87,541.38,553.87Zm-91.07-23.1c108,47.45,217.46-10.09,227.81-15.9C686,488.12,671.78,478,667,475.75c-60.28,36-197.66,33.32-211.64,32.56-6.08,4.54-8.92,9.21-8.92,13.76C446,526.86,449.79,530.27,450.31,530.77Zm229.88-14.26Z"/><path class="cls-17" d="M541.9,570.78a2.27,2.27,0,0,1-2.33-2.15V552a2.19,2.19,0,0,1,2.33-2.15,2.28,2.28,0,0,1,2.33,2.15v16.91C544.61,569.89,543.58,570.78,541.9,570.78Z"/><path class="cls-18" d="M526.12,588.45A22.79,22.79,0,0,0,529,599.8c2.85,5.3,7.89,8.71,13.2,8.71,8.92,0,16.17-9.21,16.17-20.32,0-9.21-5.05-16.91-11.39-19.3-1.29-.76-2.84-.76-4.78-.76C533.23,568.38,526.12,577.34,526.12,588.45Z"/><path class="cls-19" d="M526.12,588.45A22.79,22.79,0,0,0,529,599.8c1.29.76,2.85.76,4.79.76,8.92,0,16.17-9.21,16.17-20.32a22.79,22.79,0,0,0-2.85-11.35c-1.29-.76-2.84-.76-4.78-.76C533.23,568.38,526.12,577.34,526.12,588.45Z"/><path class="cls-20" d="M541.9,611c-10.35,0-18.5-10.09-18.5-22.46s8.15-22.46,18.5-22.46,18.5,10.09,18.5,22.46S552.51,611,541.9,611Zm0-40.5c-7.38,0-13.46,8.2-13.46,17.79s6.08,17.79,13.46,17.79,13.45-8.2,13.45-17.79C555.74,578.73,549.66,570.53,541.9,570.53Z"/><path class="cls-14" d="M638.4,838.69h0c89.52-25.37,54-124.18,54-124.18h0c-18.5,2.65-36.48,8.21-49.16,18.81C607,763,621.71,808,638.4,838.69Z"/><path class="cls-9" d="M647.33,926.9c-23.55,0-42.82-2.9-50.19-10.85-5.31-5.56-6.34-12.12-2.85-18.81,7.89-14.89,35.44-28,61.06-28.64-13.46-17.54-66.88-93.51-14-136.67q24.25-19.87,74.51-21.45a2.27,2.27,0,0,1,2.33,2.14,2.2,2.2,0,0,1-2.33,2.15c-32.21,1-56,7.69-71.28,20.31C588.34,781.4,661,868.72,662.07,869.61a1.45,1.45,0,0,1,.26,2.14,2.3,2.3,0,0,1-2.07,1.26c-26.64-.75-54.72,13-61.31,26-2.33,5.3-1.81,9.84,2.07,14,14.23,14.76,86.15,10.35,144.23-2.15,49.16-10.35,70.25-39.75,70-98.18,0-39.75-38.81-93.76-39.33-94.52a2.57,2.57,0,0,1,.78-3.4c1-.76,2.85-.26,3.75.75,1.81,2.15,39.84,55.65,39.84,96.67,0,60.07-22.76,91.62-74,102.72C716.92,921.6,678.5,926.9,647.33,926.9Z"/><path class="cls-9" d="M800.88,832.88h0a2.35,2.35,0,0,1-2.33-2.65l2.33-16.91c.26-1.26,1.29-1.89,2.85-1.89a2.51,2.51,0,0,1,2.07,2.65L803.47,831A2.43,2.43,0,0,1,800.88,832.88Z"/><path class="cls-9" d="M788.46,872a1.58,1.58,0,0,1-1-.25c-1.3-.76-1.81-1.89-1.3-2.9l7.12-15.65c.26-1.26,2.07-1.64,3.23-1.26,1.3.76,1.81,1.89,1.3,2.9l-7.12,15.65C790,871.25,789.5,872,788.46,872Z"/><path class="cls-9" d="M783.68,847.9h-.78a2.45,2.45,0,0,1-1.81-2.9l4.78-14.89c.26-1.26,1.82-1.89,3.24-1.64a2.45,2.45,0,0,1,1.81,2.9l-4.79,14.89A2.86,2.86,0,0,1,783.68,847.9Z"/><path class="cls-9" d="M389.77,737.48c-.26,0-1,0-1.3-.25-1-.76-1.29-1.89-.77-3.41l10.35-13.75c.77-1,2.07-1.27,3.75-.76,1,.76,1.29,1.89.77,3.41l-10.34,13.75A4.65,4.65,0,0,1,389.77,737.48Z"/><path class="cls-9" d="M386.28,768.52a2.26,2.26,0,0,1-2.33-2.14V749a2.18,2.18,0,0,1,2.33-2.14A2.26,2.26,0,0,1,388.6,749v17.42C389,767.26,388,768.52,386.28,768.52Z"/><path class="cls-9" d="M397.92,756.28a1.61,1.61,0,0,1-1-.25,2,2,0,0,1-1.29-2.9l6.34-14.26c.26-1.26,1.81-1.64,3.23-1.26a2,2,0,0,1,1.3,2.9l-6.34,14.26C399.47,756,399,756.28,397.92,756.28Z"/><path class="cls-9" d="M512.92,914.91h-.26a2.15,2.15,0,0,1-1.81-2.65c1.29-7.19,8.15-13.75,8.41-13.75,1-1,2.33-1,3.75,0s1,2.14,0,3.4c0,0-6.08,5.56-7.11,11.36A4.76,4.76,0,0,1,512.92,914.91Z"/><path class="cls-9" d="M525.6,921.47h-.26a2.15,2.15,0,0,1-1.81-2.65c1.29-6.81,7.37-14,7.89-14a2.66,2.66,0,0,1,3.75-.26,2.24,2.24,0,0,1,.26,3.41s-5.82,6.56-6.86,12.24C527.67,920.72,527.15,921.47,525.6,921.47Z"/><path class="cls-9" d="M540.35,924.25a1.61,1.61,0,0,1-1-.25,2.09,2.09,0,0,1-1.29-2.91c3.75-8.2,9.57-13.75,10.09-14,1-1,2.33-1,3.75,0s1,2.14,0,3.4a52.46,52.46,0,0,0-8.93,12.75A4,4,0,0,1,540.35,924.25Z"/><path class="cls-9" d="M420.94,908.1h-.25a2.16,2.16,0,0,1-1.82-2.65c1.3-7.2,8.15-13.76,8.41-13.76,1-1,2.33-1,3.75,0s1,2.15,0,3.41c0,0-6.08,5.55-7.11,11.36A4.72,4.72,0,0,1,420.94,908.1Z"/><path class="cls-9" d="M434.14,914.66h-.26a2.15,2.15,0,0,1-1.81-2.65c1.29-6.82,7.37-14,7.89-14a2.66,2.66,0,0,1,3.75-.25,2.23,2.23,0,0,1,.26,3.41s-5.82,6.56-6.86,12.24A5.77,5.77,0,0,1,434.14,914.66Z"/><path class="cls-9" d="M448.37,917.56a1.61,1.61,0,0,1-1-.25,2.08,2.08,0,0,1-1.29-2.9c3.75-8.21,9.57-13.76,10.09-14,1-1,2.33-1,3.75,0s1,2.14,0,3.41A52.65,52.65,0,0,0,451,916.55C450.31,916.8,449.79,917.56,448.37,917.56Z"/><path class="cls-10" d="M211.76,222c25.07,17.34,106.42,29,145.56-25.65s88.8-79,117.77-64.4c.39.41.71.59,1.1,1C504,146.1,504,118.14,504,118.14s-1-1.44-2.83-4.2c-9.23-12.8-42.28-50.23-90.93-38.1-58.21,14.37-80.71,77.64-168.92,70.66-38.8-3.05-54.09,7.73-57,22.31h0C180.73,187.78,197.61,212.1,211.76,222Z"/><path class="cls-11" d="M210.15,227.39c26,16,107.87,23.32,143.93-33.28s84.31-83.52,114-70.51c.42.4.75.56,1.16,1l13.54-9.33S430.69,71.14,379,126.43,317.25,217,261.65,221c-55.52,4.28-81.58-44.64-81.58-44.64C177.28,194.89,195.47,218.29,210.15,227.39Z"/><path class="cls-12" d="M191.87,165.86h0c22.65-14.13,16.33.45,77,.46s84-37.82,131-66.77,108.67,21.33,108.67,21.33.5-2.09,1.16-5.53c-9-12.93-41.49-50.84-90.32-39.43-58.43,13.52-81.91,76.45-170,68.17C210.27,141.08,194.74,151.4,191.87,165.86Z"/><path class="cls-9" d="M288.17,235.73c-33,4-65.84-4.86-80.08-15.54-16.47-12.08-34.05-41.86-24.55-61.37,5-10.21,18.77-21.29,58.34-16.85,53,5.82,82.11-15.28,111.08-35.3,18.64-13,36.39-25.89,59.47-30.53,59.93-12.81,94.77,45,95,45.72a1.26,1.26,0,0,1,.07,1.29c.19.73-.63,13.56-9.87,18.57-6,2.92-13.64,1.93-23.76-3.13C445.24,123,395,149,357.23,198.94c-15.45,20.2-38.23,33.23-66.14,37.25A3.21,3.21,0,0,0,288.17,235.73Zm-73.73-90c-13.46,1.62-22.57,6.6-26.54,14.47-8.08,17.22,8.42,45.44,23.16,56,14.56,10.86,48.27,19,79.79,14.45,18.42-2.59,44.28-10.91,62.83-35.13,39.68-52.86,91.3-78.72,123-61.93,7.92,4.3,14.23,5.48,18.55,3.11,5.8-2.86,7.13-11.64,7.06-14-3.4-5.93-36.37-54.43-89.37-43.19-22,4.64-39.52,16.89-57.4,29.76-29.23,20.6-59.7,42-114.34,36.1C230.53,145,222.06,144.77,214.44,145.74Z"/><path class="cls-10" d="M632.87,141.46h0c1.36,4.93,5.23,9.45,15.38,9.32,2.34,0,5.37-.54,8.78-.88,33.16-6.09,72.81,30.31,91.82,92s101.52,72.6,131.64,62.82c22.36-7.3,58.12-37.5,39.41-60h0c-6.68-7.8-19.58-14.5-42.55-18.92-87.52-17.15-87.87-82.68-139.11-111.61C686.76,85,633.39,128.71,633.39,128.71S631.1,135.22,632.87,141.46Z"/><path class="cls-11" d="M643.71,162.29c2.32-.26,5.3-1,8.66-1.64,32.47-9,75.29,23.85,99.87,83.66S860,307.79,889.11,295.42c21.6-9.21,54.46-42.4,33.76-63.22.77,20.44-19.53,45.55-74.51,44.67-55-.5-74.77-50.86-117.08-106.63-42.82-55.91-86.93-18.81-86.93-18.81Z"/><path class="cls-12" d="M627.54,154.34h0S662,114.58,712.4,135.79s68.43,82.27,121.6,92.12c52.52,9.46,63.64-1.64,89.26,4.54h0c-7.38-7.19-20.83-12.75-44.12-15.14-88.74-9.47-95.08-74.71-148.76-99.07-54-24.6-103.1,23.6-103.1,23.6S625.21,148.28,627.54,154.34Z"/><path class="cls-9" d="M798.91,296c-25.53-11-43.25-29.45-51.24-52.39-19.48-56.83-59-94.29-92.07-87.53-11,2.55-19.11,1.09-23.65-3.21-7.48-7.24-3.66-19.54-3.37-20a4.32,4.32,0,0,1,.59-1.23c.55-.48,53.76-46.31,107.2-18.44,20.73,11,33.66,27,46.89,44.56,20.48,26.55,41.83,53.77,95.1,62.29,39.55,6.24,49.59,20.58,50.77,31.51,2.55,20.62-24.9,44.76-44.36,51.89C880.13,305.17,845.06,315.48,798.91,296ZM684.81,155.15c26.56,11.09,52.8,43.26,67.72,87.31,9.78,27.85,32,42.61,48.66,49.85,29.19,12.75,64.25,13.68,81.59,7.44,17.87-6.46,43.52-28.55,41.1-47-1.57-13.11-17.71-23-46.6-27.49-55.07-8.87-77-37.14-98.09-64.35-13-16.9-25.54-33-45.43-43.1-47.54-24.63-95.2,12.79-100.78,17.41-.64,2.12-2.17,10.5,2.37,14.92,3.56,3.36,9.87,4,19.18,2.08C664.54,149.48,674.45,150.66,684.81,155.15Z"/><path class="cls-6" d="M534.78,507.43c6.34.76,12.42,1.26,18.5,1.64a227.55,227.55,0,0,0,32.21,0C682.26,503.52,729.21,445,738,374.29c4-33.31-.78-68.9-12.42-103.73C709.16,224,679.15,180.33,638.4,150.17h0c-2.07-1.26-4.27-2.65-6.34-3.91a107.55,107.55,0,0,0-15-6.82c-31.18-12.11-71.28-14.76-103.88-1.64h0a68.87,68.87,0,0,0-12.94,6.57h0a27.62,27.62,0,0,1-3.23,1.89c-55.76,36.22-99.87,106.63-115,175.54C360.92,417.2,396.11,510.33,534.78,507.43Z"/><path class="cls-21" d="M602.7,300.72c4.78,22.21-7.38,42.91-26.65,46.57-19.28,3.4-38.81-11.86-43.6-34.2s7.38-42.91,26.65-46.57C578.38,263.37,597.65,278.76,602.7,300.72Z"/><path class="cls-22" d="M562.72,284.82c12.68-2.14,25.23,7.95,28.21,22.46s-4.92,28-17.47,30.16-25.22-7.95-28.2-22.46S550.05,287,562.72,284.82Z"/><path class="cls-9" d="M570.23,350.69a37.29,37.29,0,0,1-20.05-5.8c-10.87-6.56-18.5-17.79-21.09-31.3-5-23.85,8.15-46.31,29.37-50a36.31,36.31,0,0,1,26.13,5.3c10.86,6.56,18.5,17.79,21.08,31.3h0c5.05,23.85-8.15,46.31-29.36,50A24,24,0,0,1,570.23,350.69Zm-5.82-82.53a31.23,31.23,0,0,0-5,.26c-18,3.4-29.36,23.09-24.84,44.16a44.36,44.36,0,0,0,19,28.27c6.86,4.29,14.75,6.06,22,4.54,18-3.4,29.37-23.09,24.84-44.16h0a44.32,44.32,0,0,0-19-28.27A33.78,33.78,0,0,0,564.41,268.16Z"/><path class="cls-21" d="M583.94,296.81c-3.23.25-5.82,2.9-5.3,5.3.26,2.65,3.23,4.29,6.34,3.66,3.23-.25,5.82-2.9,5.3-5.3C589.76,298.32,587.17,296.68,583.94,296.81Z"/><path class="cls-6" d="M413.31,504.78A223.33,223.33,0,0,0,446,513.49c37.52,7.44,79.3,9.21,129.49,2.65,168.3-20.95,163.26-142,163.26-142a2,2,0,0,1-.78-.26c-2.07-1-10.09-4.29-22.51-8.7-7.89-2.4-114.35-44.68-232.85-47.07-120.69-2.65-154.85,7.19-168.56,50.1-1,3.66-2.07,7.19-2.84,10.85C303.35,414.3,330.26,476,413.31,504.78Z"/><path class="cls-8" d="M413.31,504.78c-83.18-54.77-76.06-129-76.06-129-6.08-3.41-14-5.56-22.51-7.2-1,3.41-2.07,7.2-2.85,10.86C303.35,414.3,330.26,476,413.31,504.78Z"/><path class="cls-10" d="M579.15,247.47c15,6.81,29.63,7.44,33.25,1.26s-5.82-16.91-20.57-23.85-29.62-7.45-33.24-1.26C555.22,229.8,564.15,240.4,579.15,247.47Z"/><path class="cls-10" d="M476.18,233.46c15.65-5.55,26.13-14.89,23.29-22-2.85-6.56-17.47-7.44-33.25-1.89s-26.13,14.89-23.28,22C445.26,238,460.27,239,476.18,233.46Z"/><path class="cls-9" d="M601.4,255.17c-6.33,0-14.48-1.9-23.28-5.81-7.37-3.66-14-8.2-18.24-12.75-4.79-5.3-5.82-10.09-3.75-14,4.27-7.45,20-7.45,36.74.25,7.37,3.66,14,8.2,18.24,12.75,4.78,5.3,5.82,10.09,3.75,14C612.79,253.27,607.74,255.17,601.4,255.17Zm-31.95-33.82c-4.78,0-7.89,1-8.92,3.4s0,5.56,3.23,9.21a45.9,45.9,0,0,0,16.43,11.36c14.49,6.82,27.42,6.56,29.88,2.15,1-2.15,0-5.55-3.23-9.21a46,46,0,0,0-16.43-11.36C582.65,223.11,575.27,221.35,569.45,221.35Z"/><path class="cls-9" d="M456.91,239.26h-2.33c-7.12-.25-12.16-2.9-14-6.81s.26-8.71,5.3-13.75a59.93,59.93,0,0,1,19.28-11.11,64.62,64.62,0,0,1,22.5-3.66c7.12.25,12.16,2.9,14,6.81s-.26,8.71-5.31,13.76a60.24,60.24,0,0,1-19.27,11.11A64.28,64.28,0,0,1,456.91,239.26Zm27.94-30.66A59.88,59.88,0,0,0,466.61,212c-7.12,2.65-13.45,6.31-17.46,9.84-3.76,3.41-5,6.56-4.27,8.71,1,2.14,4.27,3.66,9.57,3.91,6.08.25,13.19-1,20.31-3.41h0c7.11-2.65,13.45-6.31,17.46-9.84,3.75-3.41,5-6.56,4.27-8.71-1-2.14-4.27-3.66-9.57-3.91Z"/><path class="cls-7" d="M489.12,519.42A429.74,429.74,0,0,0,575.53,516c168.3-20.95,163.26-142,163.26-142a2.07,2.07,0,0,1-.78-.25c4-33.32-.78-68.9-12.42-103.73-16.43-46.57-46.44-90.23-87.19-120.39h0l-6.34-3.92S700,219.83,714.73,326.84a169.74,169.74,0,0,1,1,37.86c-6.08,65.88-52.91,121.28-130,143.74C557.55,517,525.34,521.18,489.12,519.42Z"/><path class="cls-9" d="M381.88,323.82h-.26a2.52,2.52,0,0,1-2.07-2.65c15.65-71.68,61.06-141.34,116-177.06a27.62,27.62,0,0,1,3.23-1.89h0a30.65,30.65,0,0,1,2.85-1.64c1-.76,2.84-.25,3.75.76a2.58,2.58,0,0,1-.78,3.41,18.27,18.27,0,0,0-2.33,1.26h0a27.62,27.62,0,0,1-3.23,1.89c-53.95,35-98.58,103.23-113.84,173.9C384,323.44,382.91,323.82,381.88,323.82Z"/><path class="cls-6" d="M520,155.85l109.69,1.64a169.16,169.16,0,0,0-3.23-18.55c-4.27-16.66-11.9-39.75-28.85-49.47-15.65-9.21-19,2.15-19.27,14h0A100.4,100.4,0,0,0,580.19,121a16.71,16.71,0,0,0-1.29-3.41c-4-7.44-14.75-25.74-30.41-28C537.63,88,536.33,97,537.11,106a68.9,68.9,0,0,0,3.24,14l-3.76-3.66h0c-6.85-6.56-22.25-19.81-35.44-16.4-7.89,2.14-12.16,10.09-10.87,20.31C492.74,132.13,501.8,145.38,520,155.85Z"/><path class="cls-9" d="M735.68,294.16c-18.5-67-53.68-114.33-95.6-145.63-2.07-1.26-4.27-2.65-6.85-3.91-1.81-.76-3.24-1.64-4.79-2.15-1-.75-2.33,0-3.23,1s0,2.15,1,2.91a27.48,27.48,0,0,0,4.27,2.14c2.07,1.26,4.27,2.15,6.08,3.66,67.4,49.72,89.52,123.92,93.79,143,.26,1,24.32,88.21-22.77,152.82C681,484.46,636.33,506.55,575.53,514.5,440,531.41,374.24,489.63,347,463.13c-31.69-30.66-37.52-63.85-33.25-82.65,11.39-48.21,34.93-62,169.08-59.06,44.63.75,92.75,7.44,143.46,19.81a2.7,2.7,0,0,0,3.24-1.64,2.28,2.28,0,0,0-1.82-2.9c-51.48-12.24-99.86-19.31-145-20.32-130.53-2.9-161.7,8.2-174.12,62.47-4.79,20.31,1.29,54.76,34.41,87.07,23.28,23,74.25,56.66,171.79,56.66a582.11,582.11,0,0,0,61.32-3.66c62.35-8.2,108-30.92,135.57-68.77C759.1,386,737.23,300,735.68,294.16Z"/><path class="cls-7" d="M578.9,103.73h0c24.57-12.74,47.86,35.46,47.86,35.46-4-16.66-11.9-39.75-28.59-49.47C582.13,80.39,578.9,91.87,578.9,103.73Z"/><path class="cls-9" d="M627.28,146.39a2.45,2.45,0,0,1-2.33-1.9c-2.85-15.14-10.87-42.4-28.59-53-3.75-1.89-8.15-3.91-11.13-2.14-6.08,3.66-4.78,21.45-2.32,31.54.25,1.27-.26,2.15-1.82,2.65a2.61,2.61,0,0,1-2.84-1.26c0-.25-11.9-27-29.63-29.65-2.84-.26-5,0-6.33,1.26-4.27,4.54-1.82,18.55,1,26a2.2,2.2,0,0,1-1,2.65c-1,.76-2.33.26-3.24-.75-.26-.25-20.57-23.1-36-19.31-4,1-6.86,3.91-8.15,8.2-2.07,6.82-.78,18.3,10.35,30.42,1,1,.77,2.14-.26,3.4a3,3,0,0,1-3.75-.25c-10.35-11.1-14.49-24.1-11.13-34.45a16.47,16.47,0,0,1,11.9-11.36c12.42-3.41,26.39,6.82,34.67,14-1.29-7.19-2.07-16.66,2.33-21.45,1.81-1.9,5.05-3.92,11.13-2.91,12.16,1.9,21.34,12.24,27.16,20.7-.26-8.71.26-19.56,6.34-23.09,4-2.65,9.57-1.64,16.43,2.14,19.28,11.36,27.43,40,30.66,55.91.26,1.26-.78,2.14-2.07,2.65Z"/><path class="cls-23" d="M410.08,383.63c-7.89-2.14-15.27,5.55-11.13,12.12V396c20.05,33.57,59.25,54.77,111.77,46.31,46.83-7.7,77.1-43.91,78.27-66.12.25-6.82-2.07-12.24-7.38-15.4-18.24-10.1-43.08,22.21-94.3,29.66C456.39,394.23,428.06,388.68,410.08,383.63Z"/><path class="cls-21" d="M398.44,395.24c0,.25.25.25.25.76,99.35,45.55,188.87-19.56,190-20.32.26-6.81-2.07-12.24-7.38-15.39-18.24-10.1-43.07,22.21-94.3,29.65-30.66,4.29-59.25-1.26-77.1-6.56C401.67,381,395.07,388.55,398.44,395.24Z"/><path class="cls-9" d="M488.08,446.1c-38.81,0-72.18-17.42-90.68-48.21a11,11,0,0,1,1-12.74c3.23-3.66,8.14-4.8,13.19-3.66,18,5.3,44.89,10.09,74.51,6.31,25.36-3.66,43.86-13.25,58.6-20.7,15.66-8.2,27.17-14,37.52-8.2,7.37,4.29,10.35,12.11,8.15,22.46-5,25.11-37.26,56.41-79.56,63.22A189.94,189.94,0,0,1,488.08,446.1Zm-79.81-60.45a8.88,8.88,0,0,0-5.82,2.65,6.81,6.81,0,0,0-.78,7.45h0C423,431,463.76,447.61,510.33,439.66c44.63-7.44,71.28-39.75,75.29-59.56,1-4.8,1.3-13.76-6.08-17.8-7.89-4.29-18.24,1-32.21,8.46-15.26,7.7-34.41,17.79-60.28,21.45-30.4,4.29-58.6-1-76.58-6.31A7,7,0,0,0,408.27,385.65Z"/><path class="cls-24" d="M688.08,136.29c-1.3-19.56-18-35-38.55-36.85a36.77,36.77,0,0,0,3.75-18.3C652,59.69,631.67,43,607.61,44.29c-10.86.76-20.31,4.8-27.42,11.36-6.34-15.65-23.55-26-42.82-25.11-23.54,1.26-41.78,19.81-40.49,41.77a30.82,30.82,0,0,0,3.23,12.24c-19,5.3-31.69,21.45-30.66,40,1.3,21.46,21.61,38.11,45.67,36.85a45.16,45.16,0,0,0,31.69-15.14,47.15,47.15,0,0,0,33.25,11.86,51.5,51.5,0,0,0,24.06-8.2c5.3,17.41,23.54,29.65,43.85,28.65C671.13,176.8,689.37,158.25,688.08,136.29Z"/><path class="cls-2" d="M647.59,177.93C627,179.2,609,166.83,603.73,149.29a46.63,46.63,0,0,1-24.06,8.2c-12.93.76-25.09-3.91-33.24-11.86a5.58,5.58,0,0,0-1,1.26,13.29,13.29,0,0,0,2.59-3.66c10.09,5.81,22.77,6.82,35.18,3.66a41.76,41.76,0,0,0,21.09-13c9.57,15.9,30.4,24.11,49.93,18.55,15.66-4.29,26.65-16.4,29.89-29.91a40.36,40.36,0,0,1,3.75,13.76C689.37,158.25,671.13,176.8,647.59,177.93Z"/><path class="cls-4" d="M577.86,50.86a46.76,46.76,0,0,0-22.51-4.55c-23.54,1.27-41.78,19.82-40.49,41.77a30.77,30.77,0,0,0,3.23,12.24c-19,5.3-31.69,21.46-30.65,40a34.61,34.61,0,0,0,5.3,16.66c-12.94-6.31-22.25-18.3-22.77-32.31-1-18.55,11.9-35,30.66-40a35,35,0,0,1-3.23-12.24C496.1,51,514.34,31.93,537.89,30.67,554.58,29.66,570,37.86,577.86,50.86Z"/><path class="cls-5" d="M645.52,180.84c-19.28,0-36.74-10.86-43.6-27a45.73,45.73,0,0,1-22.25,6.56c-12.16.76-24.32-2.9-33.24-10.34-8.15,8.45-19.54,13.25-31.7,14a48.65,48.65,0,0,1-33.5-10.34A40.2,40.2,0,0,1,466,124.81c-1-18.55,10.87-35.46,29.63-41.9a46.56,46.56,0,0,1-2.07-10.35A40.09,40.09,0,0,1,504.9,41.9c8.15-8.46,19.27-13.25,31.69-14,18.5-1,36,8.2,44.37,23.09,7.38-5.55,16.95-8.7,26.39-9.46,25.36-1.26,47.61,16.4,48.9,39.24a39.67,39.67,0,0,1-2.32,16.41c20.56,3.66,36,19.31,37,38.87a40.09,40.09,0,0,1-11.38,30.66A48.8,48.8,0,0,1,645.52,180.84Zm-40.62-34.2a2.84,2.84,0,0,1,2.07,1.89c5,16.41,22.25,27.76,41,26.25,10.87-.76,20.31-4.8,27.43-12.24,7.11-7.19,10.87-16.66,10.09-26.25h0c-1-17.79-16.17-32.31-35.7-34.2a3.5,3.5,0,0,1-2.33-1.26c-.26-.76-.78-1.64,0-2.65,2.33-5.55,4-11.11,3.23-16.91C649.4,61,630.38,45.81,608.13,47.07c-9.57.76-19,4.29-25.61,10.35a3,3,0,0,1-2.85.76,3.14,3.14,0,0,1-2.07-1.64c-6.34-14.9-22.25-24.36-39.58-23.35C527.15,34,517.71,38,510.59,45.43c-7.11,7.19-10.86,16.66-10.09,26.25A29.52,29.52,0,0,0,503.35,83a3,3,0,0,1,0,2.14,4.58,4.58,0,0,1-1.81,1.64c-18,4.8-29.63,20.32-28.59,37.1A35.1,35.1,0,0,0,486.4,149a41.26,41.26,0,0,0,28.85,9.21c11.9-.76,22.25-5.81,29.36-14.26a2.7,2.7,0,0,1,2.07-1,2.53,2.53,0,0,1,2.33,1,43.19,43.19,0,0,0,31.18,10.85,41.09,41.09,0,0,0,22.25-7.44A3,3,0,0,1,604.9,146.64Z"/><path class="cls-3" d="M70.24,334.92c.78,14-11.12,26-26.39,27s-28.59-10.1-29.62-24.11c-.78-14,11.12-26,26.39-27C56,310.19,69.21,321,70.24,334.92Z"/><path class="cls-4" d="M66.1,322.68a29.82,29.82,0,0,0-16.42-3.91c-15.27.75-27.43,12.74-26.39,27A23.65,23.65,0,0,0,27.55,358,26.55,26.55,0,0,1,14.36,337.7c-.78-14,11.12-26,26.39-27C51,310.19,60.8,315,66.1,322.68Z"/><path class="cls-2" d="M43.6,361.93A30.44,30.44,0,0,1,27.17,358a37.61,37.61,0,0,1-2.85-5.55,25.94,25.94,0,0,0,10.35,1.26c15.26-.75,27.42-12.74,26.39-27,0-2.15-.78-4.55-1.29-6.82a64,64,0,0,1,6.08,2.65,25.37,25.37,0,0,1,4.26,12.24C71.15,349.18,59,361.3,43.6,361.93Z"/><path class="cls-5" d="M42,364.83a32.26,32.26,0,0,1-20.57-7.19c-6.08-5.3-10.09-12.12-10.34-19.56-1-15.65,12.41-28.9,29.62-29.91,17.2-.76,31.69,11.35,32.73,27S62.09,364.83,42,364.83Zm0-51.36H40.75c-14,.75-24.32,11.35-23.54,24.1S29.62,359.78,43.6,359s24.32-11.35,23.54-24.1C66.36,322.93,55.24,313.47,42,313.47Z"/><path class="cls-3" d="M168,455.81c1,19.82-15.65,36.85-37.51,37.86S90,479.41,89,459.47s15.65-36.84,37.52-37.85S167,436,168,455.81Z"/><path class="cls-4" d="M160.67,436.76a43.45,43.45,0,0,0-25.36-6.82c-21.6,1-38.55,17.8-37.51,37.86.26,7.2,3.23,13.76,7.37,19.31C96,480.8,89.52,471.21,89,459.85,88,440,104.65,423,126.52,422,140.62,421.24,153,427,160.67,436.76Z"/><path class="cls-2" d="M131,493.93a44.41,44.41,0,0,1-25.35-6.82c-1-1.64-2.33-3.41-3.24-4.79A43.65,43.65,0,0,0,122,486.23c21.6-1,38.55-17.8,37.51-37.86a30.78,30.78,0,0,0-4.27-14.26c1.82,1,3.76,1.89,5.31,2.9h0a33.69,33.69,0,0,1,7.37,19.31C169.59,475.75,152.78,492.66,131,493.93Z"/><path class="cls-5" d="M129,496.58c-22.51,0-41.52-15.9-42.56-36.85-.77-10.35,3.24-20.32,10.87-28A44.21,44.21,0,0,1,126.65,419a43.45,43.45,0,0,1,30.65,9.84,37.26,37.26,0,0,1,14,26.75C172.05,477,156.14,496.58,129,496.58Zm0-71.94h-1.81a36.23,36.23,0,0,0-25.09,11.11c-6.34,6.56-10.09,14.89-9.19,24.1,1,18.3,18.24,32.56,38.29,31.55s35.71-16.66,34.67-34.95c-.26-8.71-4.78-16.91-12.16-23A39,39,0,0,0,129,424.64Z"/><path class="cls-3" d="M130,238c.78,11.11-8.41,20.45-20.57,21.2s-22.51-7.69-23.28-18.8,8.4-20.44,20.56-21.2S129.23,226.9,130,238Z"/><path class="cls-4" d="M127.16,229.55a22.13,22.13,0,0,0-11.9-2.15c-12.16.76-21.34,10.1-20.57,21.2A19.8,19.8,0,0,0,97,257.06c-6.34-3.41-11.12-9.47-11.38-16.66-.78-11.1,8.41-20.44,20.57-21.2C115.78,218.7,123.15,223.11,127.16,229.55Z"/><path class="cls-2" d="M111.25,260.72a28.88,28.88,0,0,1-11.9-2.15c-1-1.89-3.23-3.4-3.75-5.55,1.81.25,4.27,1,6.08.76a22.07,22.07,0,0,0,21.08-21.2c0-2.15.26-4.55,0-5.3,2.07.25,4.27,2.9,6.08,3.91a19.65,19.65,0,0,1,2.33,8.45C132.08,250.62,122.89,260.21,111.25,260.72Z"/><path class="cls-5" d="M107.76,262.11c-13.2,0-24.32-9.47-25.1-21.46-.77-12.74,10.09-23.34,23.55-24.1s25.61,9.21,26.39,21.45h0a21.74,21.74,0,0,1-6.34,16.66,26.1,26.1,0,0,1-17.21,7.45Zm0-40h-1c-10.35.76-18.5,8.46-18,18.3.78,9.47,9.19,16.66,20.05,16.41a19.23,19.23,0,0,0,12.94-5.56A16.42,16.42,0,0,0,126.52,239C126.52,229,117.85,222.1,107.76,222.1Z"/><path class="cls-3" d="M1096.86,320.28c.78,14-11.12,26-26.39,27-15.26.75-28.59-10.1-29.62-24.11-.78-14,11.12-26,26.39-27C1082.89,295.17,1096.08,306.27,1096.86,320.28Z"/><path class="cls-4" d="M1092.59,307.91a29.86,29.86,0,0,0-16.43-3.91c-15.26.76-27.42,12.75-26.39,27a23.69,23.69,0,0,0,4.27,12.24,26.52,26.52,0,0,1-13.19-20.32c-.78-14,11.12-26,26.39-27A30.43,30.43,0,0,1,1092.59,307.91Z"/><path class="cls-2" d="M1070.47,347.54a30.45,30.45,0,0,1-16.43-3.91,37.58,37.58,0,0,1-2.84-5.55,26.07,26.07,0,0,0,10.34,1.26c15.27-.76,27.43-12.75,26.39-27a33,33,0,0,0-1.29-6.81,61.56,61.56,0,0,1,6.08,2.65,25.38,25.38,0,0,1,4.27,12.24C1097.64,334.54,1085.74,346.53,1070.47,347.54Z"/><path class="cls-5" d="M1068.53,350.44a32.24,32.24,0,0,1-20.57-7.19c-6.08-5.3-10.09-12.12-10.35-19.56-1-15.65,12.42-28.9,29.63-29.91s31.69,11.36,32.73,27S1088.32,350.44,1068.53,350.44Zm0-51.61h-1.29c-14,.76-24.32,11.36-23.55,24.1a20.62,20.62,0,0,0,8.15,15.65,24.86,24.86,0,0,0,18.24,5.81c14-.76,24.32-11.36,23.55-24.11C1092.85,308.42,1081.73,298.83,1068.53,298.83Z"/><path class="cls-3" d="M257,332.52c.78,14-11.12,26-26.39,27-15.26.76-28.59-10.1-29.62-24.1-.78-14,11.12-26,26.39-27C243.07,307.54,256.27,318.52,257,332.52Z"/><path class="cls-4" d="M252.9,320.28a29.86,29.86,0,0,0-16.43-3.91c-15.26.76-27.42,12.75-26.39,27a23.81,23.81,0,0,0,4.27,12.24,26.54,26.54,0,0,1-13.19-20.32c-.78-14,11.12-26,26.39-27A29.63,29.63,0,0,1,252.9,320.28Z"/><path class="cls-2" d="M230.65,359.78a30.45,30.45,0,0,1-16.43-3.91,37.58,37.58,0,0,1-2.84-5.55,25.92,25.92,0,0,0,10.35,1.26c15.26-.76,27.42-12.75,26.39-27,0-2.14-.78-4.54-1.3-6.81a64,64,0,0,1,6.08,2.65,25.38,25.38,0,0,1,4.27,12.24C258,346.78,246.05,358.65,230.65,359.78Z"/><path class="cls-5" d="M228.84,362.68a32.26,32.26,0,0,1-20.57-7.19c-6.08-5.3-10.09-12.11-10.35-19.56-1-15.65,12.42-28.9,29.63-29.91s31.69,11.36,32.73,27S247.6,362.68,228.84,362.68Zm0-51.61h-1.29c-14,.76-24.32,11.36-23.55,24.1a20.6,20.6,0,0,0,8.15,15.65,24.86,24.86,0,0,0,18.24,5.81c14-.76,24.32-11.36,23.55-24.11C253.16,320.53,242,311.07,228.84,311.07Z"/><path class="cls-3" d="M983.8,410c1,19.81-15.65,36.85-37.52,37.85-21.6,1-40.49-14.26-41.52-34.19s15.65-36.85,37.51-37.86C963.62,374.8,982.63,390.19,983.8,410Z"/><path class="cls-4" d="M976,390.7a43.45,43.45,0,0,0-25.36-6.82c-21.6,1-38.55,17.8-37.51,37.86.26,7.2,3.23,13.76,7.37,19.31-9.18-6.31-15.65-15.9-16.17-27.26-1-19.81,15.65-36.85,37.51-37.86C955.73,375.05,968.66,381.23,976,390.7Z"/><path class="cls-2" d="M946.28,448.12a44.41,44.41,0,0,1-25.35-6.82c-1-1.64-2.33-3.4-3.24-4.79a43.65,43.65,0,0,0,19.54,3.91c21.6-1,38.55-17.79,37.51-37.86a30.81,30.81,0,0,0-4.27-14.26c1.82,1,3.76,1.89,5.31,2.9h0a33.72,33.72,0,0,1,7.37,19.31C984.83,429.69,967.89,446.86,946.28,448.12Z"/><path class="cls-5" d="M944.08,450.77a46,46,0,0,1-28.58-10.1,37.26,37.26,0,0,1-14-26.75c-1-21.45,17-39.75,40.49-40.76s43.6,15.39,44.63,36.85c.78,10.34-3.23,20.31-10.86,28-7.38,7.7-18.24,12.24-29.37,12.75Zm0-72.19h-1.81c-20,1-35.7,16.66-34.67,35,.26,8.71,4.79,16.91,12.16,23,7.12,5.8,16.43,8.7,26.39,8.45a36.2,36.2,0,0,0,25.1-11.1c6.34-6.57,10.09-14.89,9.18-24.11C979.27,392.34,963.36,378.58,944.08,378.58Z"/><path class="cls-3" d="M1009.41,236.11c.78,11.11-8.41,20.44-20.57,21.2s-22.51-7.7-23.28-18.8,8.41-20.45,20.57-21.2S1008.64,225,1009.41,236.11Z"/><path class="cls-4" d="M1006.7,227.66a22,22,0,0,0-11.91-2.15c-12.16.76-21.34,10.1-20.56,21.2a19.82,19.82,0,0,0,2.32,8.46c-6.33-3.41-11.12-9.47-11.38-16.66-.78-11.11,8.41-20.45,20.57-21.2A21.94,21.94,0,0,1,1006.7,227.66Z"/><path class="cls-2" d="M990.4,258.57a28.79,28.79,0,0,1-11.91-2.14c-1-1.9-3.23-3.41-3.75-5.56,1.81.26,4.27,1,6.08.76a22.08,22.08,0,0,0,21.09-21.2c0-2.14.26-4.54,0-5.3,2.07.25,4.27,2.9,6.08,3.91a19.84,19.84,0,0,1,2.33,8.46C1011.74,248.6,1002.56,258.32,990.4,258.57Z"/><path class="cls-5" d="M987.42,259.71a26.71,26.71,0,0,1-16.95-5.81c-5-4.29-7.89-9.84-8.15-15.64a21.77,21.77,0,0,1,6.34-16.66,26,26,0,0,1,17.21-7.45,26.56,26.56,0,0,1,18.24,5.81,21.46,21.46,0,0,1,8.15,15.65c.77,12.74-10.09,23.34-23.55,24.1Zm0-40h-1a19.23,19.23,0,0,0-12.94,5.56,15.47,15.47,0,0,0-4.79,12.24,16.53,16.53,0,0,0,6.08,11.86,20.22,20.22,0,0,0,13.46,4.29,19.17,19.17,0,0,0,12.93-5.55,15.45,15.45,0,0,0,4.79-12.24A16.51,16.51,0,0,0,999.84,224,19.92,19.92,0,0,0,987.42,219.7Z"/><path class="cls-3" d="M979,115.72c.78,11.11-8.41,20.44-20.57,21.2s-22.51-7.7-23.28-18.8,8.41-20.45,20.57-21.2S978.24,104.74,979,115.72Z"/><path class="cls-4" d="M976.3,107.39a22.08,22.08,0,0,0-11.91-2.14c-12.16.75-21.34,10.09-20.56,21.2a19.78,19.78,0,0,0,2.32,8.45c-6.33-3.41-11.12-9.46-11.38-16.66-.78-11.1,8.41-20.44,20.57-21.2C964.78,96.29,972.67,100.83,976.3,107.39Z"/><path class="cls-2" d="M960,138.18A28.79,28.79,0,0,1,948.09,136c-1-1.9-3.23-3.41-3.75-5.55,1.81.25,4.27,1,6.08.75A22.07,22.07,0,0,0,971.51,110c0-2.14.26-4.54,0-5.3,2.07.25,4.27,2.9,6.08,3.91a19.84,19.84,0,0,1,2.33,8.46C981.34,128.59,972.16,137.93,960,138.18Z"/><path class="cls-5" d="M957,139.7a26.77,26.77,0,0,1-16.95-5.81c-5-4.29-7.89-9.84-8.15-15.65a21.75,21.75,0,0,1,6.34-16.65,26,26,0,0,1,17.21-7.45A26.56,26.56,0,0,1,973.71,100a21.44,21.44,0,0,1,8.15,15.64c.77,12.75-10.09,23.35-23.55,24.11Zm0-40.13h-1a19.17,19.17,0,0,0-12.94,5.55,16.11,16.11,0,0,0,1.29,24.1,20.12,20.12,0,0,0,13.46,4.29A19.17,19.17,0,0,0,970.73,128a15.89,15.89,0,0,0,4.79-12.24,16.53,16.53,0,0,0-6.08-11.86A19.17,19.17,0,0,0,957,99.57Z"/><path class="cls-3" d="M111,121.53c.78,11.1-8.41,20.44-20.57,21.2s-22.5-7.7-23.28-18.81,8.41-20.44,20.57-21.2S110.22,110.67,111,121.53Z"/><path class="cls-4" d="M108.41,113.07a22.08,22.08,0,0,0-11.91-2.14c-12.16.75-21.34,10.09-20.56,21.2a19.78,19.78,0,0,0,2.32,8.45c-6.33-3.41-11.12-9.46-11.38-16.66-.78-11.1,8.41-20.44,20.57-21.2A22.07,22.07,0,0,1,108.41,113.07Z"/><path class="cls-2" d="M92,144.24a29,29,0,0,1-11.9-2.14c-1-1.9-3.24-3.41-3.76-5.56,1.81.25,4.27,1,6.08.76a22.08,22.08,0,0,0,21.09-21.2c0-2.15.26-4.54,0-5.3,2.07.25,4.27,2.9,6.08,3.91a19.8,19.8,0,0,1,2.33,8.46C113.32,134.4,104.14,143.74,92,144.24Z"/><path class="cls-5" d="M89,145.38a25.56,25.56,0,0,1-16.69-5.81c-5-4.29-7.89-9.84-8.15-15.65a21.68,21.68,0,0,1,6.34-16.65A27,27,0,0,1,106,105.62c5,4.3,7.89,9.85,8.15,15.65.77,12.75-10.09,23.35-23.55,24.11Zm0-40H88A19.18,19.18,0,0,0,75,110.93,16.11,16.11,0,0,0,76.32,135a20.24,20.24,0,0,0,13.46,4.29,19.21,19.21,0,0,0,12.93-5.55,15.45,15.45,0,0,0,4.79-12.24,16.55,16.55,0,0,0-6.08-11.87A20.72,20.72,0,0,0,89,105.37Z"/><path class="cls-25" d="M376.83,1027.22l-6.08,40.51-1.29,9.21c-2.85,19.31-21.09,33.57-42.56,33.57s-39.33-14.26-42.56-33.57l-1.3-9.21L277,1027.22c-3.75-23.34,16.43-44.42,42.56-44.42h15.27C360.4,982.68,380.2,1003.88,376.83,1027.22Z"/><path class="cls-26" d="M857.15,1027.22l-6.08,40.51-1.29,9.21c-2.85,19.31-21.09,33.57-42.56,33.57s-39.33-14.26-42.56-33.57l-1.29-9.21-6.08-40.51c-3.76-23.34,16.42-44.42,42.56-44.42h15.26C840.85,982.68,860.9,1003.88,857.15,1027.22Z"/><path class="cls-27" d="M376.83,1027.22l-6.08,40.51H283.3l-6.08-40.51c-3.75-23.34,16.43-44.42,42.56-44.42h15.27C360.4,982.68,380.2,1003.88,376.83,1027.22Z"/><path class="cls-28" d="M857.15,1027.22l-6.08,40.51H763.62l-6.08-40.51c-3.75-23.34,16.43-44.42,42.56-44.42h15.27C840.85,982.68,860.9,1003.88,857.15,1027.22Z"/><path class="cls-29" d="M326.9,1113.41c-22.77,0-42-15.64-45.41-36.21l-7.37-49.47A39.35,39.35,0,0,1,285,994.41c8.41-9.21,21.35-14.26,34.67-14.26h15.27a49.37,49.37,0,0,1,34.67,14.26,41.39,41.39,0,0,1,10.86,33.32l-7.37,49.47C369.46,1097.64,349.54,1113.41,326.9,1113.41Zm-7.63-127.83c-11.39,0-22.51,4.54-29.89,12.24s-11.12,18.3-9.18,28.65l7.37,49.47c2.85,17.79,19.54,31.29,39.33,31.29s36.48-13.25,39.32-31.29l7.38-49.47h0a35.25,35.25,0,0,0-9.19-28.65c-7.37-7.7-18.5-12.24-29.88-12.24Z"/><path class="cls-29" d="M807.22,1113.41c-22.77,0-42-15.64-45.41-36.21l-7.37-49.47a39.33,39.33,0,0,1,10.87-33.32c8.66-9.21,21.34-14.26,34.66-14.26h15.27a49.37,49.37,0,0,1,34.67,14.26,41.39,41.39,0,0,1,10.86,33.32h0l-7.37,49.47C849.78,1097.64,830.25,1113.41,807.22,1113.41Zm-7.37-127.83c-11.39,0-22.51,4.54-29.89,12.24s-11.12,18.3-9.18,28.65l7.37,49.47c2.85,17.79,19.54,31.29,39.33,31.29S844,1094,846.8,1075.94l7.38-49.47h0A35.25,35.25,0,0,0,845,997.82c-7.37-7.7-18.5-12.24-29.88-12.24Z"/><path class="cls-30" d="M1024.94,632.74H45.41l7.89,83.41,11.12,117c7.12,78.11,55.24,144.87,124.19,183.48a26.33,26.33,0,0,0,3.23,1.9c38.81,21.2,84.61,32.81,132.86,32.81h485c135.57,0,248.89-94.78,260.53-218.19l11.13-117,7.89-83.41Z"/><path class="cls-31" d="M1024.94,632.74H45.41l7.89,83.41H914.72c55,0,98.31,42.91,93.53,92.88h0c-11.39,123.42-124.45,218.19-260.54,218.19H263.12a287.55,287.55,0,0,1-71.28-9.21c38.81,21.2,84.61,32.81,132.86,32.81h485c135.57,0,248.89-94.77,260.53-218.19l11.13-117,7.89-83.42h-63.91l-.38.51Z"/><path class="cls-32" d="M1130.37,635.64a49.94,49.94,0,0,1-17.21,37.86,61.29,61.29,0,0,1-41.52,15.65H61.84c-32.47,0-58.61-24.1-58.61-53.51a50,50,0,0,1,17.21-37.86A61.48,61.48,0,0,1,45.79,584,69.23,69.23,0,0,1,62,582.14H1071.89C1104,582.39,1130.37,606,1130.37,635.64Z"/><path class="cls-33" d="M120.82,689.4h949.91c32.47,0,59.76-23.85,59.76-53.51a50.68,50.68,0,0,0-17.2-38.11A61.46,61.46,0,0,0,1087.93,584h0c0,41.52-36,75.46-81.36,77Z"/><path class="cls-34" d="M1012.52,582.39H62.61c-32.47,0-59.76,23.85-59.76,53.5A50.68,50.68,0,0,0,20.05,674a61.46,61.46,0,0,0,25.36,13.75h0c0-41.52,36-75.46,81.36-77Z"/><path class="cls-29" d="M809.29,1054.23H324.7a284.48,284.48,0,0,1-134.28-33.57,26.28,26.28,0,0,0-3.23-1.89c-71.93-40-118.63-109.54-125.74-185.63L48,689.4a2.72,2.72,0,0,1,2.85-2.9c1.81,0,3.23,1,3.23,2.65L67.53,832.88c6.85,74.46,52.91,142.23,122.89,181.09a27.11,27.11,0,0,0,3.23,1.9c39.59,21.45,85.13,32.55,131.31,32.55H809.29c135.31,0,246-92.87,257.3-215.54L1080.17,688c0-1.64,1.81-2.65,3.24-2.65a2.93,2.93,0,0,1,2.84,2.91L1072.8,833.14c-5.82,60.32-35.7,116.22-84.6,157.49S875.91,1054.23,809.29,1054.23Z"/><path class="cls-29" d="M1071.51,692.05H61.84C28.07,692.05,0,666.69,0,635.64a52.54,52.54,0,0,1,18.24-39.75,60.55,60.55,0,0,1,26.65-14.26,74.56,74.56,0,0,1,17.2-2.14H1072c33.77,0,61.84,25.36,61.84,56.4a52.55,52.55,0,0,1-18.24,39.76A66,66,0,0,1,1071.51,692.05ZM61.84,584.79a67.13,67.13,0,0,0-15.27,1.89,54.25,54.25,0,0,0-24.06,13c-10.35,9.46-16.43,22.46-16.43,36,0,28,25.1,50.86,55.76,50.86H1071.76a57.73,57.73,0,0,0,39.33-14.89c10.35-9.47,16.43-22.47,16.43-36,0-28-25.1-50.85-55.76-50.85Z"/><path class="cls-3" d="M992.21,534.69a43.7,43.7,0,0,0-17,3.4c-.78-20.69-19.27-37.35-42-37.35a43,43,0,0,0-27.43,9.46c-4.78-14-19-24.35-36-24.35-20.57,0-37.77,15.39-37.77,34.45a15.09,15.09,0,0,0,.26,3.41h-2.85c-20.57,0-37.77,15.39-37.77,34.45,0,10.35,5.3,19.81,13.45,26.25a32.29,32.29,0,0,0-6.34,18.8c0,15.9,11.9,29.4,27.68,33.32a30.77,30.77,0,0,0-7.11,20.31c0,18.3,15.26,32.81,34.93,34.2a35.15,35.15,0,0,0-4,15.65c0,18.8,16.94,34.45,37.77,34.45,20.57,0,37.77-15.39,37.77-34.45,0-1.89-.25-3.91-.25-5.55h.25c20.57,0,37.78-15.4,37.78-34.45,0-9.47-4.27-17.8-10.87-24.11,18-1.89,32.21-14.26,36-29.91,1.3,0,2.85.26,4,.26,23.29,0,42-17.42,42-38.37S1015.49,534.69,992.21,534.69Z"/><path class="cls-4" d="M898.94,498.22a46.62,46.62,0,0,0-11.9-1.64c-20.57,0-37.78,15.39-37.78,34.45a15,15,0,0,0,.26,3.4h-2.85c-20.56,0-37.77,15.4-37.77,34.46,0,10.34,5.3,19.81,13.45,26.24A32.33,32.33,0,0,0,816,613.94a33.23,33.23,0,0,0,8.15,21.45c-15-4.54-25.62-17.42-25.62-32.56,0-7.19,2.07-13.75,6.34-18.8-8.15-6.31-13.45-15.65-13.45-26.25,0-18.8,16.94-34.45,37.77-34.45h2.85c0-1-.26-2.15-.26-3.41,0-18.8,16.94-34.45,37.77-34.45A39.27,39.27,0,0,1,898.94,498.22Z"/><path class="cls-2" d="M1034.77,573.18c0,21.2-19,38.86-42.56,38.86a20.88,20.88,0,0,1-4-.25c-4,15.9-18.24,28-36,29.91a32.47,32.47,0,0,1,10.87,24.1c0,18.81-17,34.45-37.77,34.45h-.26a39.81,39.81,0,0,1,.26,5.56c0,18.8-17,34.45-37.78,34.45a51.17,51.17,0,0,1-11.9-1.64,39.47,39.47,0,0,1-22.25-17.54,15.27,15.27,0,0,0,4.79,1.64,46.62,46.62,0,0,0,11.9,1.64c20.57,0,37.77-15.4,37.77-34.45,0-1.9-.26-3.92-.26-5.56h.26c20.57,0,37.78-15.39,37.78-34.45,0-9.46-4.27-17.79-10.87-24.1,18-1.89,32.21-14.26,36-29.91,1.3,0,2.85.25,4,.25,23.29,0,42.56-17.41,42.56-38.86a33,33,0,0,0-5-17.8,40.71,40.71,0,0,1,12.42,9.21A35.55,35.55,0,0,1,1034.77,573.18Z"/><path class="cls-5" d="M887.55,743.16c-22.51,0-40.75-16.66-40.75-37.1a44.7,44.7,0,0,1,2.33-13.25c-19-3.41-33.5-18.55-33.5-36.47a34.83,34.83,0,0,1,5.3-18.55c-15.65-5.56-26.13-19.31-26.13-35a34.83,34.83,0,0,1,5.3-18.55c-7.89-7.19-12.41-16.66-12.41-26.75,0-20.45,18.24-37.1,40.49-37.1v-.76c0-20.44,18.24-37.1,40.74-37.1,16.43,0,31.18,8.71,37.52,22.46a49.17,49.17,0,0,1,26.13-7.44c23.29,0,42.56,15.64,44.89,36.47a53.36,53.36,0,0,1,14.23-1.9c25.1,0,45.41,18.55,45.41,41.52s-20.31,41.52-45.41,41.52h-1.81c-4.27,14.26-17,25.36-32.47,28.9a34.69,34.69,0,0,1,8.15,22.21c0,19.56-16.95,36-37.78,37.1v2.9C928.3,726.38,910.06,743.16,887.55,743.16ZM829.21,526c-19,0-34.67,14-34.67,31.55A30.55,30.55,0,0,0,807,581.63a3.35,3.35,0,0,1,.78,3.66,28.13,28.13,0,0,0-5.82,17.54c0,14.26,10.86,26.75,25.61,30.67a2.77,2.77,0,0,1,1.81,4.29A29.88,29.88,0,0,0,823,656.34c0,16.4,14,30.41,32.21,31.55a3.48,3.48,0,0,1,2.33,1.26,4.58,4.58,0,0,1,0,2.65,30.86,30.86,0,0,0-3.75,14.26c0,17.41,15.26,31.55,34.67,31.55s34.67-14,34.67-31.55a36.19,36.19,0,0,0-.26-5.3c0-1,0-1.64.77-2.15a2.88,2.88,0,0,1,2.33-1h.26c19.28,0,34.67-14,34.67-31.55a30.18,30.18,0,0,0-10.09-22.21,3,3,0,0,1-.78-2.9,3,3,0,0,1,2.33-1.89c16.43-1.89,29.89-13,33.51-28,.26-1.26,1.81-2.14,3.23-2.14s2.33.25,4,.25c21.61,0,39.33-15.9,39.33-36s-17.47-36-39.33-36a43.64,43.64,0,0,0-15.65,2.9,3.59,3.59,0,0,1-2.85-.25c-.77-.76-1.29-1.26-1.29-2.15-.78-19.56-18-35-39.33-35a40.71,40.71,0,0,0-25.61,8.71,3,3,0,0,1-2.85.75,2.84,2.84,0,0,1-2.07-1.89c-4.78-13.25-18-22.21-33.24-22.21-19,0-34.67,14-34.67,31.55v3.41a2.71,2.71,0,0,1-.78,2.14,2.82,2.82,0,0,1-2.33,1A20.31,20.31,0,0,0,829.21,526Z"/><path class="cls-6" d="M371.53,582.89c2.33,7.7,10.86,14.77,25.09,17.54,39.85,7.45,78-1.89,84.61-20.69a33.06,33.06,0,0,0-11.39-23.35c-7.11-6.31-20-12.24-48.12-12.74C385.76,543.27,365.71,565.73,371.53,582.89Z"/><path class="cls-9" d="M423.79,605a163,163,0,0,1-27.68-2.65c-14.23-2.65-24.06-9.47-27.17-18.81h0c-2.33-7.69-.26-16.65,5.82-24.1,9.57-11.86,26.65-18.3,46.44-18.3,31.18.25,43.6,7.7,49.94,13.25,12.16,10.35,12.42,24.86,12.16,25.75C478.25,595.64,453.41,605,423.79,605Zm-49.93-22.59c2.32,7.7,10.86,13.25,23.28,15.9,37.78,7.19,75-1.26,81.37-18.8a30.29,30.29,0,0,0-10.87-21.21c-6.08-5.3-17.2-11.86-46.83-12.11-18-.25-33.76,5.81-42.56,16.41-4.65,6-6.46,13.25-4.39,19.81Z"/><path class="cls-9" d="M382.14,594.88h0a2.46,2.46,0,0,1-2.33-2.14c.77-9.47,8.15-18.55,8.41-18.81a2.65,2.65,0,0,1,3.75-.25,2.25,2.25,0,0,1,.26,3.41s-6.86,8.45-7.38,16.66A3.52,3.52,0,0,1,382.14,594.88Z"/><path class="cls-9" d="M400.63,601.44h0a2.46,2.46,0,0,1-2.32-2.14c.77-9.21,7.11-18.8,7.37-19.56a2.65,2.65,0,0,1,3.23-.76,2.21,2.21,0,0,1,.78,2.9s-6.08,9.47-6.86,17.54C403,600.43,401.67,601.44,400.63,601.44Z"/><path class="cls-9" d="M419.91,603.08h-.78a2.32,2.32,0,0,1-1.81-2.65c3.24-11.35,9.57-19.3,10.09-19.56a2.66,2.66,0,0,1,3.75-.25,2.24,2.24,0,0,1,.26,3.41,53.88,53.88,0,0,0-9.18,18.3A8.09,8.09,0,0,1,419.91,603.08Z"/><path class="cls-6" d="M577.08,582.89c2.33,7.7,10.87,14.77,25.1,17.54,39.84,7.45,77.1-1.89,85.38-20.69,0,0-4.27-14.89-15.65-23.85-7.38-5.81-16.43-12.12-44.89-12.24C591.06,543.27,571.26,565.73,577.08,582.89Z"/><path class="cls-9" d="M587.69,594.88h0a2.47,2.47,0,0,1-2.33-2.14c.78-9.47,8.15-18.55,8.41-18.81a2.66,2.66,0,0,1,3.75-.25,2.24,2.24,0,0,1,.26,3.41s-6.85,8.45-7.37,16.66C589.76,594,588.73,594.88,587.69,594.88Z"/><path class="cls-9" d="M605.93,601.44h0a2.47,2.47,0,0,1-2.33-2.14c.78-9.21,7.12-18.8,7.38-19.56a2.65,2.65,0,0,1,3.23-.76,2.22,2.22,0,0,1,.78,2.9s-6.08,9.47-6.86,17.54C608.52,600.43,607.48,601.44,605.93,601.44Z"/><path class="cls-9" d="M625.21,603.08h-.78a2.32,2.32,0,0,1-1.81-2.65c3.23-11.35,9.57-19.3,10.09-19.56a2.66,2.66,0,0,1,3.75-.25,2.24,2.24,0,0,1,.26,3.41,53.88,53.88,0,0,0-9.18,18.3A8.09,8.09,0,0,1,625.21,603.08Z"/><path class="cls-9" d="M629.09,605a163.17,163.17,0,0,1-27.69-2.65c-14.23-2.65-24.06-9.47-27.16-18.81h0c-2.33-7.69-.26-16.65,5.82-24.1,9.57-11.86,26.65-18.3,46.44-18.3,28.33.25,37.77,5.81,46.44,12.75,11.13,8.45,17.21,24.35,16.17,26.25C683,595.64,658.45,605,629.09,605Zm-49.94-22.59c2.33,7.7,10.87,13.25,23.29,15.9,37,7.19,74-1.26,82.14-18.8-1-2.91-5.3-14.77-14.48-22-6.34-5.3-14.49-11.36-43.08-11.86-18-.26-33.77,5.8-42.56,16.4-5.31,6.56-7.38,13.76-5.31,20.32Z"/><path class="cls-22" d="M411.37,307.28a3,3,0,0,1-2.59-1.38,2.67,2.67,0,0,1,1-3.66c1.29-.76,26.91-13.51,54.46-8.46A104.15,104.15,0,0,0,444,281.54a2.69,2.69,0,0,1-1.29-3.66,3.22,3.22,0,0,1,4-1.26,118.45,118.45,0,0,1,31.17,21.2,2.49,2.49,0,0,1,.26,3.41,3.34,3.34,0,0,1-3.49,1c-29.11-11.87-61.58,4.29-61.84,4.54C412.54,307.28,411.89,307.28,411.37,307.28Z"/><path class="cls-35" d="M314,370.13c11.13,6.31,25.36,7.44,42.56,2.65h0a103.52,103.52,0,0,0,10.35-3.66c29.37-12.12,55.76-50.1,26.65-53-18-1.64-32.21-.76-43.6,2.14C306.46,329.12,305.68,365.59,314,370.13Z"/><path class="cls-36" d="M356.13,372.78h0a103.52,103.52,0,0,0,10.35-3.66c29.37-12.12,55.76-50.1,26.65-53-18-1.64-32.21-.76-43.59,2.14,0,0,33.76,1.9,38.8,10.1C395.85,340.22,356.13,372.78,356.13,372.78Z"/><path class="cls-22" d="M336.86,378.08a50,50,0,0,1-24.32-5.81c-5.31-2.9-6.86-14-2.85-24.35C314,335.8,331,308.67,394,314.35c11.12,1,14,7.19,14.23,10.35,2.33,14-18,37.35-40.49,47.07C356.78,375.68,346.43,378.08,336.86,378.08Zm40.23-60.7c-45.66,0-58.86,21.45-62.87,31.3-3.75,10.09-1.29,17.79.78,19.3,13.45,7.45,31.17,7.2,50.71-1,21.6-9.21,39.58-31.29,37.51-41.89-.77-3.91-4-6.31-10.09-6.56h0A147.54,147.54,0,0,0,377.09,317.38Z"/></g></svg>