<svg id="Capa_1" data-name="Capa 1" xmlns="http://www.w3.org/2000/svg" viewBox="0 0 1053.97 1082.86"><defs><style>.cls-1,.cls-16,.cls-23{fill:#e9bc3c;}.cls-10,.cls-13,.cls-2,.cls-4,.cls-6,.cls-7{fill:#070308;}.cls-16,.cls-2,.cls-22,.cls-8{opacity:0.4;}.cls-11,.cls-13,.cls-16,.cls-18,.cls-2,.cls-21,.cls-22,.cls-23,.cls-4,.cls-5,.cls-6,.cls-7,.cls-8{isolation:isolate;}.cls-3{fill:#253238;}.cls-12,.cls-4{opacity:0.1;}.cls-11,.cls-18,.cls-19,.cls-5,.cls-8{fill:#fff;}.cls-23,.cls-5{opacity:0.3;}.cls-6,.cls-9{opacity:0.2;}.cls-7{opacity:0.6;}.cls-11,.cls-21{opacity:0.5;}.cls-13{opacity:0.7;}.cls-14{fill:#37464e;}.cls-15{fill:#d793b1;}.cls-17,.cls-18{opacity:0.8;}.cls-20{fill:#369fca;}.cls-21,.cls-22,.cls-24{fill:#6f191c;}.cls-25{fill:#445962;}.cls-26{fill:#c8c7c7;}.cls-27{fill:#ecebeb;}.cls-28{fill:#dcdbdb;}</style></defs><title>peluqueria</title><g id="Dog_2" data-name="Dog 2"><path class="cls-1" d="M378.48,801.74s19.92,160.85-2.22,226.12a85.06,85.06,0,0,1-16.66,27.82c-3.73,4.65-150.27.68-153,0s15.57-44,25.77-50,87.5,11.6,87.5,11.6-62-189-62.89-194.67a204.49,204.49,0,0,1-.71-20.86l-1.82,28.69s-5-21.65-5.37-31.58S254,690.62,254,690.62Z" transform="translate(-53.71 -44.08)"/><path class="cls-2" d="M378.48,801.74s19.92,160.85-2.22,226.12a85.06,85.06,0,0,1-16.66,27.82c-3.73,4.65-150.27.68-153,0s15.57-44,25.77-50,87.5,11.6,87.5,11.6-62-189-62.89-194.67a204.49,204.49,0,0,1-.71-20.86l-1.82,28.69s-5-21.65-5.37-31.58S254,690.62,254,690.62Z" transform="translate(-53.71 -44.08)"/><path class="cls-3" d="M240.83,1026.74c-7.57,6-15.9,17.94-12.62,29.81C228.74,1044.55,235.63,1036.15,240.83,1026.74Z" transform="translate(-53.71 -44.08)"/><path class="cls-3" d="M225.81,1025.64c-7.57,6-15.9,17.94-12.62,29.78C213.7,1043.45,220.61,1035.06,225.81,1025.64Z" transform="translate(-53.71 -44.08)"/><path class="cls-4" d="M229,720.3c14.21,34.24,60.32,102.8,67.51,110.41C304.61,839.24,375,878,400,895.07c10.1-35.33-21.48-93.46-21.48-93.46L254,690.73S230,699.7,229,720.3Z" transform="translate(-53.71 -44.08)"/><path class="cls-1" d="M786.49,981.94c-.93,15.2,1.59,72.88-45.1,72.88H510.58c-30.06,0-241.18-214.07-276.79-263.69s-66.18-109.35-70.49-157S200,343.69,244.54,242.32c0,0,.35-47.69,10.55-86s38.64-93.41,70.84-106,182.51,19.22,197.55,55.65,14,100.71,14,100.71,129.34,68.22,128.71,79.49S614.64,365,571.68,370.26,446.3,335.08,446.3,335.08s-3.76,45.27.53,62.59S560.1,599.79,580,618s129.88,67.8,154,118.88S791.31,901.77,786.49,981.94Z" transform="translate(-53.71 -44.08)"/><path class="cls-1" d="M786.49,981.94c-.93,15.2,1.59,72.88-45.1,72.88H510.58c-30.06,0-241.18-214.07-276.79-263.69s-66.18-109.35-70.49-157S200,343.69,244.54,242.32c0,0,.35-47.69,10.55-86s38.64-93.41,70.84-106,182.51,19.22,197.55,55.65,14,100.71,14,100.71,129.34,68.22,128.71,79.49S614.64,365,571.68,370.26,446.3,335.08,446.3,335.08s-3.76,45.27.53,62.59S560.1,599.79,580,618s129.88,67.8,154,118.88S791.31,901.77,786.49,981.94Z" transform="translate(-53.71 -44.08)"/><path class="cls-5" d="M786.49,981.94c-.93,15.2,1.59,72.88-45.1,72.88H510.58c-30.06,0-241.18-214.07-276.79-263.69s-66.18-109.35-70.49-157S200,343.69,244.54,242.32c0,0,.35-47.69,10.55-86s38.64-93.41,70.84-106,182.51,19.22,197.55,55.65,14,100.71,14,100.71,129.34,68.22,128.71,79.49S614.64,365,571.68,370.26,446.3,335.08,446.3,335.08s-3.76,45.27.53,62.59S560.1,599.79,580,618s129.88,67.8,154,118.88S791.31,901.77,786.49,981.94Z" transform="translate(-53.71 -44.08)"/><path class="cls-4" d="M712.39,730.81c17.19,27.88,37.48,188.2,15.55,245.13-18.68,48.45-124.73,74.89-188.38,78.86H741.47c46.71,0,44.19-57.66,45.1-72.89,4.84-80.16-28.45-194.15-52.62-245.13S599.78,636.07,580,617.87,451.27,414.77,446.9,397.56s-.55-62.58-.55-62.58-32.81-19.2-45-27.49c0,0-8.6,65-8.65,86.89S540.49,615.73,565.88,630.15,695.23,703,712.39,730.81Z" transform="translate(-53.71 -44.08)"/><path class="cls-6" d="M609.62,637.45c3.25,49.55,23.37,122,53.43,163.46,30.54,42.06,91.34,48.47,108.53,49.54-10.78-45.66-25.37-87.7-37.63-113.54C715.85,698.79,650.13,661.49,609.62,637.45Z" transform="translate(-53.71 -44.08)"/><path class="cls-6" d="M579,659.17c-3.53,19.22-34.91,22.3-49.92,14s-23.63-37.37-11.28-55.28S583.32,635.89,579,659.17Z" transform="translate(-53.71 -44.08)"/><path class="cls-6" d="M467.93,505.91c.81,23.47,17.44,61.31,35.33,68.9A35.58,35.58,0,0,0,542.69,565c-20.2-31.71-44.15-71.92-63.1-105.12C471.31,467.42,467.32,488.47,467.93,505.91Z" transform="translate(-53.71 -44.08)"/><path class="cls-4" d="M246.91,525.89c-3.18-18.46-5-37.66-3.33-55.78a1.39,1.39,0,0,0-1-1.65,1.31,1.31,0,0,0-1.31.45c-2.25,3-8.61,11.53-9.54,12.83a24.75,24.75,0,0,1,.15-3.34c.28-3.78.68-7.53,1.24-11.26a166.46,166.46,0,0,1,4.74-22,151.91,151.91,0,0,1,7.57-20.66c3.08-6.67,6.77-12.85,10.3-19.24.15-.29-.25-.65-.48-.42a89.46,89.46,0,0,0-12.62,18.26,135.84,135.84,0,0,0-8.93,20.15A134.26,134.26,0,0,0,228,465.31c-.68,3.94-1.19,7.83-1.57,11.92a40.86,40.86,0,0,0,0,11.79,2.33,2.33,0,0,0,4.44.39c.53-1.1,8.59-13.3,9.82-15.05a145.14,145.14,0,0,0-.12,23.68,142.93,142.93,0,0,0,5,28.09.69.69,0,0,0,.79.57A.7.7,0,0,0,246.91,525.89Z" transform="translate(-53.71 -44.08)"/><path class="cls-3" d="M590.87,722.13c-51.36-25.56-158.2-61.47-202.52-7.15-35.49,46.34-11.28,127.49,8.3,177.2a730.7,730.7,0,0,0,64.79,124.47q-17.56-30-33-61.6c-27.76-57.58-78.24-171.2-39.19-232.87,40.38-56.7,150.7-21.67,201.68,0Z" transform="translate(-53.71 -44.08)"/><path class="cls-3" d="M569.59,703.56a60.55,60.55,0,0,0-34.45-2.38A263,263,0,0,0,569.59,703.56Z" transform="translate(-53.71 -44.08)"/><path class="cls-3" d="M533,1054.82a5,5,0,0,0,2.53-4.27,91.57,91.57,0,0,0,.4-16.22,366.65,366.65,0,0,0-7-53.15c-.76-3.47-1.46-6.94-2.35-10.43.36,3.57.81,7.12,1.16,10.67.81,6.67,3.08,24.9,3.94,31.84,1.26,10.58,2.7,21.15,3.18,31.84,0,3.23.89,7.82-1.87,9.67Z" transform="translate(-53.71 -44.08)"/><path class="cls-3" d="M532.82,975.6c-1,6.13-1.49,12.52-2,18.65-1.49,13.3,2.67-.86,3-5.85A35.83,35.83,0,0,0,532.82,975.6Z" transform="translate(-53.71 -44.08)"/><path class="cls-3" d="M368.79,1026.74c-7.57,6-15.9,17.94-12.62,29.81C356.7,1044.55,363.62,1036.15,368.79,1026.74Z" transform="translate(-53.71 -44.08)"/><path class="cls-3" d="M353.75,1025.64c-7.57,6-15.9,17.94-12.62,29.78C341.66,1043.45,348.55,1035.06,353.75,1025.64Z" transform="translate(-53.71 -44.08)"/><path class="cls-1" d="M427.37,567.75s-79.28,66.1-124.53,77.52-135-75.31-135-75.31-34.9,67.23-40.38,75.31-33.79,12.63-39,6-4.87-37.58,0-54.77,57.22-91.27,78.24-89.08,81.88,40.92,86.37,40.16c7.09-1.25,46.14-60,74.81-105.25" transform="translate(-53.71 -44.08)"/><path class="cls-5" d="M427.37,567.75s-79.28,66.1-124.53,77.52-135-75.31-135-75.31-34.9,67.23-40.38,75.31-33.79,12.63-39,6-4.87-37.58,0-54.77,57.22-91.27,78.24-89.08,81.88,40.92,86.37,40.16c7.09-1.25,46.14-60,74.81-105.25" transform="translate(-53.71 -44.08)"/><path class="cls-4" d="M88.59,651.14c5.22,6.65,33.67,2.11,39-5.94S168,569.86,168,569.86s89.75,86.6,135,75.34c29.3-7.36,72.89-37.71,99.95-58.13-15.6,10.2-88.82,32.2-109.31,35.26C272.33,625.46,168,564.77,168,564.77s-44.39,68.8-48.89,71.74S97,647.88,91.77,645.93c-3.21-1.26-6.26-14.4-6.84-23.6C84.4,635.16,85.54,647.26,88.59,651.14Z" transform="translate(-53.71 -44.08)"/><path class="cls-3" d="M110.62,623.76c-8,6.28-16.6,18.75-13.3,31.14C97.85,642.38,105.07,633.59,110.62,623.76Z" transform="translate(-53.71 -44.08)"/><path class="cls-3" d="M95.23,613.09c-6.46,9-13.3,25.14-7.25,36.51C85.66,636.56,91.74,625,95.23,613.09Z" transform="translate(-53.71 -44.08)"/><path class="cls-3" d="M409.05,584.93c-29.86,18.25-59.67,37.6-90.86,52L310.36,640c-1.34.39-4.62,1.49-5.9,1.85-40.51,7.51-102.07-45.92-136.52-72,26.58,25.24,54.44,49.26,85.31,66,16.83,8.5,35.84,16.77,54.31,11.27,15.14-4.83,29.2-13.35,43.06-21.67a660.8,660.8,0,0,0,58.5-40.58Z" transform="translate(-53.71 -44.08)"/><path class="cls-3" d="M175.71,554.94c-12.06,21.67-24.53,44.8-35.33,67.36A331.81,331.81,0,0,0,175.71,554.94Z" transform="translate(-53.71 -44.08)"/><path class="cls-3" d="M397.46,603.55c-10.52,2.61-20.19,6.28-30.71,9.36C377.42,614.16,388.25,610.07,397.46,603.55Z" transform="translate(-53.71 -44.08)"/><path class="cls-3" d="M317.58,458.53l-37,51.64c-8.91,11.63-17,24.77-27.39,34.24a111.17,111.17,0,0,1-12.62-6.24c-17.06-9-34.1-18.51-51.79-26.07a79.68,79.68,0,0,0-20.64-6.55,12.69,12.69,0,0,0-7.37,1.85,89.8,89.8,0,0,0-23.35,19.27c7.57-6.52,15.57-12.85,24.2-16.37a10.51,10.51,0,0,1,6.24-1.18,89.21,89.21,0,0,1,19.56,7.54c14.92,7.3,36.22,19.22,51.16,27.3A122.75,122.75,0,0,0,252,550.43a3.84,3.84,0,0,0,3.23-.42,48.13,48.13,0,0,0,9.91-10.43c6.47-8.45,12.62-17.18,18.48-26.08,11.86-17.76,23.14-36.09,34-54.76Z" transform="translate(-53.71 -44.08)"/><path class="cls-3" d="M301.73,469.09a44.62,44.62,0,0,0-9.82,28.22C295,487.53,298.83,479.05,301.73,469.09Z" transform="translate(-53.71 -44.08)"/><path class="cls-1" d="M401.22,50.49C377.83,76.78,371.39,183.7,350.39,220.7s-95.91,25.61-106.78-26.07S291.71,56.8,326.06,47.55,401.22,50.49,401.22,50.49Z" transform="translate(-53.71 -44.08)"/><path class="cls-7" d="M401.22,50.49C377.83,76.78,371.39,183.7,350.39,220.7s-95.91,25.61-106.78-26.07S291.71,56.8,326.06,47.55,401.22,50.49,401.22,50.49Z" transform="translate(-53.71 -44.08)"/><path class="cls-3" d="M673.75,284.41c.63,8.58-27.64,36.77-40,34.79s-23.8-49.55-18.52-59.64S672.94,273.48,673.75,284.41Z" transform="translate(-53.71 -44.08)"/><path class="cls-3" d="M638.47,310.38c-9.9,9.11-38.11,40.84-49.9,32.6-10.1-7.48-12.32-24.72-14.29-38,.61,14.13,2.53,32.25,13.2,40.55C601.67,355.16,628.75,322.07,638.47,310.38Z" transform="translate(-53.71 -44.08)"/><path class="cls-3" d="M621.53,340.58c-3.68,2.61-7.85,6.42-11.76,7.36.3.13.3.57.33.44,7.17-12.44,17.09-22.22,24.91-34.21A164.21,164.21,0,0,0,615.35,336c-2.53,3.78-5.73,7.14-7.09,12C608.38,355.11,619.84,342.41,621.53,340.58Z" transform="translate(-53.71 -44.08)"/><path class="cls-6" d="M494.45,152c-28.69-20.19-55.7-3.16-70.39,28.68-11.88,25.74-7,64,20.6,83.45s58.85.5,70-23.68S525.65,174,494.45,152Z" transform="translate(-53.71 -44.08)"/><path class="cls-3" d="M484.74,212.1c-10.93,4-13.43,18.56-10.1,29.62,3.11,10.43,11.38,14.84,20.19,11.82,8.05-2.77,13.78-15.65,9.34-29.11C500,212,490.79,209.91,484.74,212.1Z" transform="translate(-53.71 -44.08)"/></g><g id="Dog_1" data-name="Dog 1"><path class="cls-1" d="M995.87,886.68c8,19.34-7.57,73.3-17.41,82.82s-41.09,33.17-43.18,37.65-.69,25.33,2,28.4,21,6.31,23.78,9,7.07,14.55,3.89,17.94-54,2.6-58,.78-28-59.41-28.12-70.12-7.57-105.75,24.91-120.9S984.29,858.69,995.87,886.68Z" transform="translate(-53.71 -44.08)"/><path class="cls-8" d="M995.87,886.68c8,19.34-7.57,73.3-17.41,82.82s-41.09,33.17-43.18,37.65-.69,25.33,2,28.4,21,6.31,23.78,9,7.07,14.55,3.89,17.94-54,2.6-58,.78-28-59.41-28.12-70.12-7.57-105.75,24.91-120.9S984.29,858.69,995.87,886.68Z" transform="translate(-53.71 -44.08)"/><g class="cls-9"><path class="cls-10" d="M950.82,1053.78a21.49,21.49,0,0,0-4.89-3.49,36.18,36.18,0,0,0-5.63-2.22c-.28,0-.36.34,0,.44a24.75,24.75,0,0,1,9.18,7.07,39.15,39.15,0,0,1,6.59,9.41c.15.37.63,0,.56-.28A21.28,21.28,0,0,0,950.82,1053.78Z" transform="translate(-53.71 -44.08)"/><path class="cls-10" d="M960.24,1049.82a21.11,21.11,0,0,0-4.87-3.5,37.49,37.49,0,0,0-5.66-2.21c-.25,0-.35.34,0,.41a25.15,25.15,0,0,1,9.21,7.07,39.56,39.56,0,0,1,6.57,9.41c.17.37.65,0,.58-.26A21.09,21.09,0,0,0,960.24,1049.82Z" transform="translate(-53.71 -44.08)"/></g><path class="cls-1" d="M713.65,485.81c-10.34,11.94-10.77,35.41-13.9,39S671,576.14,664,602.19s5.45,51.25,5.45,51.25S642,733.44,642,826.83c0,106.92,29.43,118.81,70,138.94s80,5.37,149.74-11.27c51.11-12.15,108.9,24.26,131.87-17.63,34.65-63.21,12.62-192.27,10.93-193.94s-.63-20.23-34.78-79.95c0,0,20.19-16.35,22.31-36.66s-12.62-66.11-30.56-99.1c0,0,.25-17.21-5.81-27.85S917.78,455,903,445.39s-95.4-12.54-114.18-9.39S730.36,466.46,713.65,485.81Z" transform="translate(-53.71 -44.08)"/><path class="cls-11" d="M713.65,485.81c-10.34,11.94-10.77,35.41-13.9,39S671,576.14,664,602.19s5.45,51.25,5.45,51.25S642,733.44,642,826.83c0,106.92,29.43,118.81,70,138.94s80,5.37,149.74-11.27c51.11-12.15,108.9,24.26,131.87-17.63,34.65-63.21,12.62-192.27,10.93-193.94s-.63-20.23-34.78-79.95c0,0,20.19-16.35,22.31-36.66s-12.62-66.11-30.56-99.1c0,0,.25-17.21-5.81-27.85S917.78,455,903,445.39s-95.4-12.54-114.18-9.39S730.36,466.46,713.65,485.81Z" transform="translate(-53.71 -44.08)"/><g class="cls-12"><path class="cls-10" d="M969.7,663A253.83,253.83,0,0,0,938,682.57,86.24,86.24,0,0,0,969.7,663Z" transform="translate(-53.71 -44.08)"/><path class="cls-10" d="M669.43,653.44a33.17,33.17,0,0,0,15.93,15.88A86.16,86.16,0,0,0,669.43,653.44Z" transform="translate(-53.71 -44.08)"/></g><path class="cls-1" d="M890.8,441.27c11.54-6,34.56-11.61,39.5-9.62,6.31,2.6,13.61,14.65,40.51,38.77,18.55,16.64,41.42,26.24,44,32.81s-3.63,13-9.18,41.72c-3,15.52,5,42.38,2.19,44.49s-29.48-14.71-40.08-39.82a131.77,131.77,0,0,1-10.47-46.94S922,463.1,916.93,457.88,890.8,441.27,890.8,441.27Z" transform="translate(-53.71 -44.08)"/><path class="cls-13" d="M890.8,441.27c11.54-6,34.56-11.61,39.5-9.62,6.31,2.6,13.61,14.65,40.51,38.77,18.55,16.64,41.42,26.24,44,32.81s-3.63,13-9.18,41.72c-3,15.52,5,42.38,2.19,44.49s-29.48-14.71-40.08-39.82a131.77,131.77,0,0,1-10.47-46.94S922,463.1,916.93,457.88,890.8,441.27,890.8,441.27Z" transform="translate(-53.71 -44.08)"/><path class="cls-1" d="M784,437.28c-10.92-7.15-33.29-15-38.41-13.54-6.51,1.91-14.89,13.25-43.94,34.56-20,14.7-43.69,21.95-46.92,28.24s2.37,13.4,5.23,42.4c1.53,15.65-8.94,41.73-6.37,44.07s30.75-11.71,43.64-35.62A130.8,130.8,0,0,0,712,491.68s38.82-35.89,44.44-40.53S784,437.28,784,437.28Z" transform="translate(-53.71 -44.08)"/><path class="cls-13" d="M784,437.28c-10.92-7.15-33.29-15-38.41-13.54-6.51,1.91-14.89,13.25-43.94,34.56-20,14.7-43.69,21.95-46.92,28.24s2.37,13.4,5.23,42.4c1.53,15.65-8.94,41.73-6.37,44.07s30.75-11.71,43.64-35.62A130.8,130.8,0,0,0,712,491.68s38.82-35.89,44.44-40.53S784,437.28,784,437.28Z" transform="translate(-53.71 -44.08)"/><path class="cls-13" d="M747.12,616.59c-.3,11.94,12.22,35.31,27.21,37.13,9,1.07,22.71-4.53,29.07-13.17a53.57,53.57,0,0,0,53,1.39c5.88,8.91,19.36,15.25,28.4,14.63,15.14-1.05,28.69-23.74,29-35.68.46-19.14-30.11-36.69-35.84-44.49s-17.66-25.81-45.81-26.65-41,16.82-47,24.25S747.57,597.34,747.12,616.59Z" transform="translate(-53.71 -44.08)"/><path class="cls-3" d="M897.27,543.57c10.8,3.31,13.25,15.31,10.09,24.44-3.08,8.63-11.23,12.28-19.91,9.77-8-2.29-13.61-12.9-9.21-24A15.53,15.53,0,0,1,897.27,543.57Z" transform="translate(-53.71 -44.08)"/><path class="cls-3" d="M775.77,540.47c10.77,3.31,13.25,15.31,10.09,24.43-3.08,8.63-11.23,12.26-19.91,9.78-8-2.29-13.61-13-9.21-24A15.5,15.5,0,0,1,775.77,540.47Z" transform="translate(-53.71 -44.08)"/><path class="cls-3" d="M919.55,569.94a27.55,27.55,0,0,1,14.54-.89.36.36,0,0,1,0,.7c-3.08,1.54-12.32,2.19-14.49,1.18C919.27,570.77,919.12,570.14,919.55,569.94Z" transform="translate(-53.71 -44.08)"/><path class="cls-3" d="M915.74,577.24A22.7,22.7,0,0,1,928.13,583a.42.42,0,0,1,0,.59.39.39,0,0,1-.33.09c-3.43,0-11.38-3.63-12.62-5.5a.68.68,0,0,1,.29-.88A.59.59,0,0,1,915.74,577.24Z" transform="translate(-53.71 -44.08)"/><path class="cls-3" d="M910.44,583A14.44,14.44,0,0,1,916,591.5a.43.43,0,0,1-.48.39l-.1,0a15.23,15.23,0,0,1-5.76-8.37C909.66,583.18,910.14,582.69,910.44,583Z" transform="translate(-53.71 -44.08)"/><path class="cls-3" d="M743.74,565.4a27.39,27.39,0,0,0-14.46-1.62.37.37,0,0,0-.25.45.38.38,0,0,0,.25.26c3,1.66,12.21,2.81,14.43,1.9a.56.56,0,0,0,.28-.72A.55.55,0,0,0,743.74,565.4Z" transform="translate(-53.71 -44.08)"/><path class="cls-3" d="M747.15,572.88a22.89,22.89,0,0,0-12.62,5.22.41.41,0,0,0,.06.58.38.38,0,0,0,.29.1c3.43.13,11.56-3,12.8-4.85a.68.68,0,0,0-.13-.92A.66.66,0,0,0,747.15,572.88Z" transform="translate(-53.71 -44.08)"/><path class="cls-3" d="M752.22,578.88a14.31,14.31,0,0,0-5.93,8.24.41.41,0,0,0,.37.45l.18,0a15.18,15.18,0,0,0,6.16-8.09C753,579.14,752.55,578.72,752.22,578.88Z" transform="translate(-53.71 -44.08)"/><path class="cls-3" d="M830.64,590.15c4.84,0,17.91-5.85,21.83-8.69A8.37,8.37,0,0,0,854.19,570a6.12,6.12,0,0,0-.39-.5c-1.89-1.93-28.16-6.44-43.48-1C806,570,807.26,577,808.07,578,810.75,581.36,824.88,590.09,830.64,590.15Z" transform="translate(-53.71 -44.08)"/><path class="cls-14" d="M817.31,571.5c0,2.61,6.11,5,13.93,5.42s14.29-1.3,14.41-3.91-6.11-5-13.93-5.42S817.51,568.89,817.31,571.5Z" transform="translate(-53.71 -44.08)"/><path class="cls-6" d="M865.64,503.65c7-1.18,16.89-5.58,22.72.13a156.83,156.83,0,0,0,20.52,21.33A134.93,134.93,0,0,0,932.17,540c3.74,2.29,7.45,4.69,8.94,8.66a25.11,25.11,0,0,1,.73,13.37,22.33,22.33,0,0,0,1.66-14.18c-1.16-5-5.3-8.61-9.18-11.37-7.75-5.35-15.48-9.52-22.19-15.49s-13.38-12.18-19.74-18.67c-7.09-8.58-18.85-2.61-26.72,1.33Z" transform="translate(-53.71 -44.08)"/><path class="cls-6" d="M800.8,502c-7.57-4.28-19.15-10.93-26.65-2.61-6.66,6.15-13.45,12.23-20.62,17.63s-14.89,9.41-22.89,14.34c-4,2.61-8.33,5.92-9.74,10.88a22.64,22.64,0,0,0,1,14.26,24.74,24.74,0,0,1,1.36-13.33c1.66-3.88,5.48-6.1,9.34-8.18a135.15,135.15,0,0,0,24-13.67A156.2,156.2,0,0,0,778.11,501c2.53-2.61,6.16-2.61,9.62-2.19a93.77,93.77,0,0,1,13.07,3.23Z" transform="translate(-53.71 -44.08)"/><path class="cls-15" d="M813.52,595.34c1.39,17.28,5.53,25.5,15.53,26.31s15.31-6.68,19.28-23.47l-17.06-6Z" transform="translate(-53.71 -44.08)"/><path class="cls-3" d="M831.27,592.1a58.31,58.31,0,0,0-1.62,21.41A58.29,58.29,0,0,0,831.27,592.1Z" transform="translate(-53.71 -44.08)"/><path class="cls-3" d="M891.66,584.7c-6.41,7.3-14.48,13.63-23.87,15.41-6.51-.47-12.95-3.65-19.31-5.87A129.7,129.7,0,0,0,834,589.36a32,32,0,0,0-11.43,1c-8.1,1.64-16.56,4.61-24.46,5.81-5,.39-10.37-2.24-14.76-4.9A44.05,44.05,0,0,1,771,580a39.93,39.93,0,0,0,18.47,18.25c5.2,3,12.09,2.3,17.67.89,7.75-1.49,16.63-4.3,24.38-4.7a25.19,25.19,0,0,1,7.39,1.78l8,2.74c6.91,2.06,13.83,5.34,21.43,5,10.09-2.61,18.22-10.43,23.37-19.24Z" transform="translate(-53.71 -44.08)"/><path class="cls-3" d="M848.5,628a42,42,0,0,1-37.85-1A28.47,28.47,0,0,0,848.5,628Z" transform="translate(-53.71 -44.08)"/><path class="cls-6" d="M878.16,676.8a204.77,204.77,0,0,1-101.23-4.07c28.82,16.93,71.25,18.39,101.31,4.07Z" transform="translate(-53.71 -44.08)"/><path class="cls-6" d="M852.16,692.21A106.75,106.75,0,0,1,798,690.05,62.1,62.1,0,0,0,852.16,692.21Z" transform="translate(-53.71 -44.08)"/><path class="cls-1" d="M809.74,888.68c8,19.38-19.84,73.49-29.66,83s-41,33.14-43.16,37.65-.65,25.3,2,28.4,21,6.31,23.8,9c2.53,2.34,7.07,14.52,3.86,17.91s-54,2.61-57.92.78-28-59.38-28.12-70.09-33.31-105.77-.83-120.93S798.18,860.7,809.74,888.68Z" transform="translate(-53.71 -44.08)"/><path class="cls-11" d="M809.74,888.68c8,19.38-19.84,73.49-29.66,83s-41,33.14-43.16,37.65-.65,25.3,2,28.4,21,6.31,23.8,9c2.53,2.34,7.07,14.52,3.86,17.91s-54,2.61-57.92.78-28-59.38-28.12-70.09-33.31-105.77-.83-120.93S798.18,860.7,809.74,888.68Z" transform="translate(-53.71 -44.08)"/><g class="cls-9"><path class="cls-10" d="M798.78,938.75a136.65,136.65,0,0,1-6.66,13c-1.19,2.06-2.52,4.07-3.71,6.08a66.46,66.46,0,0,1-4.39,6,119.69,119.69,0,0,1-10.32,11c-1.9,1.9-5.05,4.75-7.2,6.49-14.23,12.13-27.76,25.51-27.53,25.38,3.63-2.14,28.09-23.47,30.49-25.27s4.41-3.52,6.61-5.22a64.69,64.69,0,0,0,10.83-10.61c6-8,8.86-17.55,12.16-26.81C799.14,938.7,798.86,938.6,798.78,938.75Z" transform="translate(-53.71 -44.08)"/><path class="cls-10" d="M828.44,884.67a179.7,179.7,0,0,0-27.76,57.19c-.86,2.86-1.69,5.73-2.53,8.63s-1.28,6.18-2.29,9.18c0,.21.27.28.35,0,.81-2.61,2-5.22,3-7.83s1.87-4.93,2.83-7.4q2.85-7.44,5.65-14.89c3.74-9.91,7.58-19.8,12.22-29.34a158,158,0,0,1,8.71-15.44C828.87,884.72,828.57,884.48,828.44,884.67Z" transform="translate(-53.71 -44.08)"/><path class="cls-10" d="M752.47,1056a21.07,21.07,0,0,0-4.87-3.49,36.14,36.14,0,0,0-5.65-2.25c-.26,0-.36.34,0,.45a25.31,25.31,0,0,1,9.21,7.06,39.09,39.09,0,0,1,6.56,9.42c.18.36.66,0,.58-.29A21.07,21.07,0,0,0,752.47,1056Z" transform="translate(-53.71 -44.08)"/><path class="cls-10" d="M761.91,1052.09a20.86,20.86,0,0,0-4.9-3.5,34.83,34.83,0,0,0-5.62-2.24c-.28,0-.36.34,0,.44a25,25,0,0,1,9.18,7.07,38.22,38.22,0,0,1,6.59,9.41c.15.37.66,0,.58-.28A21.29,21.29,0,0,0,761.91,1052.09Z" transform="translate(-53.71 -44.08)"/></g><path class="cls-1" d="M659.64,749.74s41.9,43.6,76.5,39.12,59.39-24.18,69.84-27.49,15.52,2,29.73-4.51c18.07-8.21,5-38.91-8.2-47.46S785,706.61,779.38,705s-21.86-11.35-31.88-23.81C745,678.05,641.22,720.9,659.64,749.74Z" transform="translate(-53.71 -44.08)"/><path class="cls-11" d="M659.64,749.74s41.9,43.6,76.5,39.12,59.39-24.18,69.84-27.49,15.52,2,29.73-4.51c18.07-8.21,5-38.91-8.2-47.46S785,706.61,779.38,705s-21.86-11.35-31.88-23.81C745,678.05,641.22,720.9,659.64,749.74Z" transform="translate(-53.71 -44.08)"/><path class="cls-16" d="M835.71,756.83c-14.21,6.47-19.28,1.23-29.73,4.52s-35.34,22.94-69.84,27.48c-25.24,3.31-54.57-19.17-68.42-31.45,1.29.47,42.45,15.65,65,12.88s62.57-23.28,66.88-25,19.86,9.36,34.2,2.9c12.19-5.53,9-17,7.77-20.24C846.16,739.28,846.38,752,835.71,756.83Z" transform="translate(-53.71 -44.08)"/><g class="cls-9"><path class="cls-10" d="M654.34,746c25.24,19.53,51.39,36.87,81.47,47.36C703.71,794,671.78,773.26,654.34,746Z" transform="translate(-53.71 -44.08)"/><path class="cls-10" d="M722.39,783.09c13.75,6.08,28.94,1.93,41.82-4.64,7.57-3.6,18.75-9.41,26.4-13.4a155.36,155.36,0,0,1,15.72-7.69c8.81-1.52,18.5.54,26.6-3.52a11,11,0,0,0,7.4-8.19c2.65-13-5.18-28.25-16.26-34.76-17.39-8.19-38.33-2.61-56.2,2.19,28.24-13.54,66.65-21.21,78.79,17.39,6.19,21.85-5.68,33.41-26.47,33.77-4.24.34-9.82-.57-13.41.76-13.2,6-26.93,13-40.68,18.25-13.65,5.69-30.59,8.55-43.71,0Z" transform="translate(-53.71 -44.08)"/><path class="cls-10" d="M787,705.9c-17.92.89-37.53-11.39-42.22-29.8C758.22,687.73,772.33,696.15,787,705.9Z" transform="translate(-53.71 -44.08)"/></g><path class="cls-1" d="M968.46,663.87s54.27,24,65.25,57S1024,777.2,1008,775.27s-44.64-30.9-44.64-30.9a16.88,16.88,0,0,1-13.73,15.23c-13.13,2.74-23.35-6.05-27.77-27.88-2.85-14.21,8.69-34.84,32.81-37.6a121.72,121.72,0,0,1,32,1Z" transform="translate(-53.71 -44.08)"/><path class="cls-11" d="M968.46,663.87s54.27,24,65.25,57S1024,777.2,1008,775.27s-44.64-30.9-44.64-30.9a16.88,16.88,0,0,1-13.73,15.23c-13.13,2.74-23.35-6.05-27.77-27.88-2.85-14.21,8.69-34.84,32.81-37.6a121.72,121.72,0,0,1,32,1Z" transform="translate(-53.71 -44.08)"/><path class="cls-16" d="M1008,775.27c-16.07-1.9-44.64-30.82-44.64-30.82a16.88,16.88,0,0,1-13.73,15.23c-11.84,2.47-21.31-4.44-26.28-21.83,2.8,5.53,13.38,18.25,25.47,14.32s15.75-19.56,15.75-19.56,30.28,29.94,48.76,23.65c16.4-5.53,23.47-24.77,16.88-43.37a48,48,0,0,1,3.54,7.83C1044.71,753.81,1024,777.2,1008,775.27Z" transform="translate(-53.71 -44.08)"/><g class="cls-9"><path class="cls-10" d="M964.45,729.61c.94,8.45,1.59,18-3.38,25.4a21,21,0,0,1-25.24,5.66c-8-5.22-12.09-13-15.77-21.49a31.11,31.11,0,0,1,1.69-27.38c9.26-16.22,27.76-22.92,45.1-21.46,16.38.94,33.11,5.21,46.69,14.94a109.41,109.41,0,0,0-46.77-8.89c-15.14,0-30.74,5.52-38.49,19.35a23.2,23.2,0,0,0-1.51,20.86,43.05,43.05,0,0,0,12,18.8c5.63,3.6,14.64,1.77,19.46-2.92,4.9-5.74,5.56-15.26,6.19-22.84Z" transform="translate(-53.71 -44.08)"/><path class="cls-10" d="M963.32,744.37c8,6.18,15.9,12.36,24,17.78,11.89,8,23.85,14,36.29,3.55,10.75-9.78,11.61-26.57,8-40.24,8.3,13.8,8.65,33.67-3.16,45.67a27.09,27.09,0,0,1-31.6,4.79c-13.7-7.38-24.6-18.93-33.56-31.55Z" transform="translate(-53.71 -44.08)"/><path class="cls-10" d="M968.46,663.87a44,44,0,0,1,18.33,31.29A44,44,0,0,1,968.46,663.87Z" transform="translate(-53.71 -44.08)"/><path class="cls-10" d="M968.46,663.87c30.06,7,59.9,28.68,68.93,60.26a56.2,56.2,0,0,1,1.79,13.72,120.85,120.85,0,0,0-5.27-12.33C1019.62,697.59,994.23,680.19,968.46,663.87Z" transform="translate(-53.71 -44.08)"/></g></g><g id="Bubbles"><g class="cls-17"><path class="cls-1" d="M105.57,626.32c-31.64,0-50.88,25.42-51.84,55.46-.75,24.12,16.56,51.71,51.84,51.71,36,0,53.33-30,52.88-51.21C157.89,659.75,144.42,626.32,105.57,626.32Z" transform="translate(-53.71 -44.08)"/><path class="cls-18" d="M105.57,626.32c-31.64,0-50.88,25.42-51.84,55.46-.75,24.12,16.56,51.71,51.84,51.71,36,0,53.33-30,52.88-51.21C157.89,659.75,144.42,626.32,105.57,626.32Z" transform="translate(-53.71 -44.08)"/></g><path class="cls-19" d="M143.43,662.88c0,12.51-9.82,22.66-21.93,22.66h0c-12.11,0-32.81,8.6-32.81-3.91s20.62-41.42,32.81-41.42,21.93,10.15,21.93,22.67Z" transform="translate(-53.71 -44.08)"/><g class="cls-17"><path class="cls-1" d="M699.14,682.9c-17.79,0-28.59,14.27-29.12,31.14-.43,13.56,9.31,29.05,29.12,29.05,15.77.66,29.06-12,29.69-28.31,0-.12,0-.25,0-.37C728.59,701.68,721,682.9,699.14,682.9Z" transform="translate(-53.71 -44.08)"/><path class="cls-18" d="M699.14,682.9c-17.79,0-28.59,14.27-29.12,31.14-.43,13.56,9.31,29.05,29.12,29.05,15.77.66,29.06-12,29.69-28.31,0-.12,0-.25,0-.37C728.59,701.68,721,682.9,699.14,682.9Z" transform="translate(-53.71 -44.08)"/></g><path class="cls-19" d="M719.69,703.64a12.35,12.35,0,1,1-12.35-12.76,12.56,12.56,0,0,1,12.35,12.76Z" transform="translate(-53.71 -44.08)"/><g class="cls-17"><path class="cls-1" d="M1027.17,681.63c-21.91,0-35.33,17.6-35.89,38.38-.53,16.72,11.48,35.81,35.89,35.81,24.91,0,36.92-20.86,36.6-35.44C1063.44,704.76,1054.12,681.63,1027.17,681.63Z" transform="translate(-53.71 -44.08)"/><path class="cls-18" d="M1027.17,681.63c-21.91,0-35.33,17.6-35.89,38.38-.53,16.72,11.48,35.81,35.89,35.81,24.91,0,36.92-20.86,36.6-35.44C1063.44,704.76,1054.12,681.63,1027.17,681.63Z" transform="translate(-53.71 -44.08)"/></g><ellipse class="cls-19" cx="986.15" cy="660.99" rx="12.34" ry="12.75"/><g class="cls-17"><path class="cls-1" d="M1073.53,615.21c-12.84,0-20.62,10.43-21,22.48-.3,9.77,6.71,20.86,21,20.86,11.38.46,21-8.7,21.42-20.45,0-.14,0-.28,0-.41C1094.78,628.77,1089.31,615.21,1073.53,615.21Z" transform="translate(-53.71 -44.08)"/><path class="cls-18" d="M1073.53,615.21c-12.84,0-20.62,10.43-21,22.48-.3,9.77,6.71,20.86,21,20.86,11.38.46,21-8.7,21.42-20.45,0-.14,0-.28,0-.41C1094.78,628.77,1089.31,615.21,1073.53,615.21Z" transform="translate(-53.71 -44.08)"/></g><path class="cls-19" d="M1088.47,628.35a7.37,7.37,0,1,1-7.37-7.62,7.48,7.48,0,0,1,7.37,7.62Z" transform="translate(-53.71 -44.08)"/><g class="cls-17"><path class="cls-1" d="M517.47,761.5c-12.84,0-20.64,10.3-21,22.48-.3,9.78,6.71,20.86,21,20.86,11.4.45,21-8.73,21.42-20.5,0-.12,0-.24,0-.36C538.7,775,533.25,761.5,517.47,761.5Z" transform="translate(-53.71 -44.08)"/><path class="cls-18" d="M517.47,761.5c-12.84,0-20.64,10.3-21,22.48-.3,9.78,6.71,20.86,21,20.86,11.4.45,21-8.73,21.42-20.5,0-.12,0-.24,0-.36C538.7,775,533.25,761.5,517.47,761.5Z" transform="translate(-53.71 -44.08)"/></g><path class="cls-19" d="M532.41,774.62A7.37,7.37,0,1,1,525,767a7.49,7.49,0,0,1,7.37,7.62Z" transform="translate(-53.71 -44.08)"/><g class="cls-17"><path class="cls-1" d="M1013.92,820c.4,19-13.3,44.94-41.7,50.65-4.44,40.84-38.81,91.19-104.43,91.19-37.1,0-64.24-15.41-81.32-37a69,69,0,0,1-29.78,6.33A70,70,0,0,1,725,924.1c.48,4,.73,8,.83,11.78.86,42-33.57,101.71-105.05,101.71-59.56,0-93.38-39.67-101.2-81a67.81,67.81,0,0,1-34.71,8.94c-35.05,0-56.2-21.41-63.27-45.42-17.41,18.75-43.08,32.28-77.16,32.28-55.7,0-88.84-34.66-99.34-73a65.75,65.75,0,0,1-46.64,17.89c-44.87,0-66.93-35.12-65.95-65.79,1.19-38.23,25.67-70.59,65.95-70.59a73.36,73.36,0,0,1,12.47,1,51.67,51.67,0,0,1-2.52-17.16c1-30.4,20.42-56.06,52.42-56.06,38.61,0,52.44,32.41,53.43,55.13a103.83,103.83,0,0,1,30.11-4.28c71.35,0,99.62,56.4,104.29,100.27a63,63,0,0,1,36.14-10.72c29.55,0,47.6,15.12,57.44,33.43,17.67-23,44.47-37.81,78.47-37.81,31.72,0,54.92,11.19,71.35,27.43,5.78-32.2,29-57.37,64.56-57.37a70.74,70.74,0,0,1,24.56,4.1,96.28,96.28,0,0,1,60.39-46.66V751c1-30.41,20.4-56.07,52.4-56.07,39.4,0,53,33.9,53.48,56.54a46.79,46.79,0,0,1-2,14.16,51.93,51.93,0,0,1,15-2.09C999.84,763.48,1013.46,797.28,1013.92,820Z" transform="translate(-53.71 -44.08)"/><path class="cls-18" d="M1013.92,820c.4,19-13.3,44.94-41.7,50.65-4.44,40.84-38.81,91.19-104.43,91.19-37.1,0-64.24-15.41-81.32-37a69,69,0,0,1-29.78,6.33A70,70,0,0,1,725,924.1c.48,4,.73,8,.83,11.78.86,42-33.57,101.71-105.05,101.71-59.56,0-93.38-39.67-101.2-81a67.81,67.81,0,0,1-34.71,8.94c-35.05,0-56.2-21.41-63.27-45.42-17.41,18.75-43.08,32.28-77.16,32.28-55.7,0-88.84-34.66-99.34-73a65.75,65.75,0,0,1-46.64,17.89c-44.87,0-66.93-35.12-65.95-65.79,1.19-38.23,25.67-70.59,65.95-70.59a73.36,73.36,0,0,1,12.47,1,51.67,51.67,0,0,1-2.52-17.16c1-30.4,20.42-56.06,52.42-56.06,38.61,0,52.44,32.41,53.43,55.13a103.83,103.83,0,0,1,30.11-4.28c71.35,0,99.62,56.4,104.29,100.27a63,63,0,0,1,36.14-10.72c29.55,0,47.6,15.12,57.44,33.43,17.67-23,44.47-37.81,78.47-37.81,31.72,0,54.92,11.19,71.35,27.43,5.78-32.2,29-57.37,64.56-57.37a70.74,70.74,0,0,1,24.56,4.1,96.28,96.28,0,0,1,60.39-46.66V751c1-30.41,20.4-56.07,52.4-56.07,39.4,0,53,33.9,53.48,56.54a46.79,46.79,0,0,1-2,14.16,51.93,51.93,0,0,1,15-2.09C999.84,763.48,1013.46,797.28,1013.92,820Z" transform="translate(-53.71 -44.08)"/></g><ellipse class="cls-19" cx="327.65" cy="737.48" rx="23.22" ry="23.99"/><ellipse class="cls-19" cx="849.92" cy="685.77" rx="23.22" ry="23.99"/><ellipse class="cls-19" cx="223.51" cy="678.98" rx="18.8" ry="19.43"/><ellipse class="cls-19" cx="930.78" cy="763.08" rx="23.22" ry="23.99"/><ellipse class="cls-19" cx="164.25" cy="756.91" rx="23.22" ry="23.99"/><ellipse class="cls-19" cx="586.76" cy="829.43" rx="33.19" ry="34.29"/></g><g id="Tub"><path class="cls-20" d="M1073.71,821s-37.86,246.3-133.21,246.3H235.35c-95.3,0-133.23-246.3-133.23-246.3Z" transform="translate(-53.71 -44.08)"/><path class="cls-14" d="M1073.71,821s-1.39,9-4.34,23.7L115.85,886.39c-9.39-37.24-13.73-65.33-13.73-65.33Z" transform="translate(-53.71 -44.08)"/><path class="cls-20" d="M1095.09,773.73H80.74c-7.57,0-13.28,5.66-12.49,12.18l3,25.17c.68,5.63,6.08,9.88,12.62,9.88H1092.08c6.44,0,11.82-4.25,12.5-9.88l3-25.17C1108.39,779.39,1102.51,773.73,1095.09,773.73Z" transform="translate(-53.71 -44.08)"/></g><g id="Lotions"><path class="cls-1" d="M950.6,1120H793.53V924.85c0-31.68,24.86-57.37,55.53-57.37h45.88c30.67,0,55.53,25.69,55.53,57.37V1120Z" transform="translate(-53.71 -44.08)"/><path class="cls-21" d="M950.6,1120H793.53V924.85c0-31.68,24.86-57.37,55.53-57.37h45.88c30.67,0,55.53,25.69,55.53,57.37V1120Z" transform="translate(-53.71 -44.08)"/><rect class="cls-3" x="778.92" y="793.6" width="78.82" height="29.73"/><rect class="cls-3" x="792.67" y="778.18" width="51.34" height="15.41"/><polygon class="cls-6" points="844.01 791.01 792.67 788.46 792.67 793.6 844.01 793.6 844.01 791.01"/><rect class="cls-3" x="809.84" y="748.59" width="17.04" height="29.6"/><polygon class="cls-3" points="809.81 758.6 883.61 758.6 877.58 748.56 809.81 748.56 809.81 758.6"/><polygon class="cls-3" points="872.58 766.16 888.15 766.16 877.6 748.56 862.03 748.56 872.58 766.16"/><rect class="cls-19" x="791.26" y="893.32" width="92.35" height="116.83"/><path class="cls-1" d="M895.09,974.64a25.39,25.39,0,0,0,.16-2.61,21,21,0,0,0-1.14-6.39,8.26,8.26,0,0,0-.86-1.64,4.26,4.26,0,0,0-5-1.49,11.19,11.19,0,0,0-4.11,2.22,12.78,12.78,0,0,0-5.17,7.48,8.26,8.26,0,0,0,3.05,8.06,7.74,7.74,0,0,0,10.1-.16A8.37,8.37,0,0,0,895.09,974.64Z" transform="translate(-53.71 -44.08)"/><path class="cls-1" d="M913,980a8,8,0,0,0,2.53-9.26,14.52,14.52,0,0,0-7.22-7.67,11.07,11.07,0,0,0-2-.73,4,4,0,0,0-4.49,1.38A9.32,9.32,0,0,0,900,968.3c-.18,1.22-.25,2.42-.4,3.65a10.25,10.25,0,0,0,1.59,6.41,8.2,8.2,0,0,0,3.66,3.06A7.63,7.63,0,0,0,913,980Z" transform="translate(-53.71 -44.08)"/><path class="cls-1" d="M921.14,993.18a9,9,0,0,0,6.39-7.31,10.46,10.46,0,0,0,0-1.12,10.06,10.06,0,0,0-2.25-6.52l-.48-.54a4.53,4.53,0,0,0-6-.53,13.41,13.41,0,0,0-3.76,3.71,12.81,12.81,0,0,0-2.73,5.87,6.4,6.4,0,0,0,.68,3.8A6.5,6.5,0,0,0,921.14,993.18Z" transform="translate(-53.71 -44.08)"/><path class="cls-1" d="M876.34,999.75v1.07c.15,3.18,2.25,5.4,5.83,6.7a18.63,18.63,0,0,0,11.51.26,14.3,14.3,0,0,1,7.57,0,19.14,19.14,0,0,0,11.36-.18,8,8,0,0,0,5.88-5.74,6.79,6.79,0,0,0-1.87-6,17.06,17.06,0,0,0-3-2.61,26.89,26.89,0,0,1-6.29-6,12.93,12.93,0,0,0-16.18-3,9.93,9.93,0,0,0-3.88,3.65,13.73,13.73,0,0,1-5,4.85,11.15,11.15,0,0,0-5.53,6.31A4.58,4.58,0,0,0,876.34,999.75Z" transform="translate(-53.71 -44.08)"/><path class="cls-1" d="M867.16,984.47a8.83,8.83,0,0,0,5.47,8.29,6.66,6.66,0,0,0,9.25-2.53l0-.08a6.17,6.17,0,0,0,.51-3.52,14.72,14.72,0,0,0-4.09-7.46,12.93,12.93,0,0,0-2.53-2.14,4.4,4.4,0,0,0-5.68.5,9,9,0,0,0-2.52,4.72A20.78,20.78,0,0,0,867.16,984.47Z" transform="translate(-53.71 -44.08)"/><path class="cls-1" d="M1073.38,940.71l-9.21,143.43h-83l-9.49-143.43c-.2-2.27,3-9.73,3-9.73v-8.5h95.56V931S1073.56,938.44,1073.38,940.71Z" transform="translate(-53.71 -44.08)"/><path class="cls-22" d="M1073.38,940.71l-9.21,143.43h-83l-9.49-143.43c-.2-2.27,3-9.73,3-9.73v-8.5h95.56V931S1073.56,938.44,1073.38,940.71Z" transform="translate(-53.71 -44.08)"/><path class="cls-23" d="M1066.44,1048.93l-2.27,35.34h-83l-9.49-143.43c-.2-2.27,3-9.73,3-9.73v-8.5h14.72C988.68,931.71,982.42,1029.37,1066.44,1048.93Z" transform="translate(-53.71 -44.08)"/><g class="cls-9"><path class="cls-10" d="M978.23,931.06c7.4-.55,14.77-.78,22.16-1s14.77-.26,22.16-.31,14.77,0,22.14.29l11.08.36c3.71.21,7.39.34,11.08.63-3.69.28-7.37.41-11.08.65l-11.08.36c-7.37.24-14.77.29-22.14.32s-14.79,0-22.16-.29S985.63,931.61,978.23,931.06Z" transform="translate(-53.71 -44.08)"/></g><g class="cls-9"><path class="cls-10" d="M978.51,930a7.64,7.64,0,0,1-.63-3.1,7.17,7.17,0,0,1,.63-3.1,7.48,7.48,0,0,1,.63,3.1A7.64,7.64,0,0,1,978.51,930Z" transform="translate(-53.71 -44.08)"/></g><g class="cls-9"><path class="cls-10" d="M982.17,930a7.64,7.64,0,0,1-.63-3.1,7.48,7.48,0,0,1,.63-3.1,7.17,7.17,0,0,1,.63,3.1A7.32,7.32,0,0,1,982.17,930Z" transform="translate(-53.71 -44.08)"/></g><g class="cls-9"><path class="cls-10" d="M985.85,929.94a7.89,7.89,0,0,1,0-6.18A7.81,7.81,0,0,1,985.85,929.94Z" transform="translate(-53.71 -44.08)"/></g><g class="cls-9"><path class="cls-10" d="M989.51,929.94a7.5,7.5,0,0,1-.58-3,7.17,7.17,0,0,1,.63-3.1,7.81,7.81,0,0,1,0,6.18Z" transform="translate(-53.71 -44.08)"/></g><g class="cls-9"><path class="cls-10" d="M993.2,929.94a7.21,7.21,0,0,1-.66-3.11,7.5,7.5,0,0,1,.63-3.07,6.9,6.9,0,0,1,.63,3.07A7.53,7.53,0,0,1,993.2,929.94Z" transform="translate(-53.71 -44.08)"/></g><g class="cls-9"><path class="cls-10" d="M996.86,929.94a7,7,0,0,1-.63-3.11,7.17,7.17,0,0,1,.63-3.1,7.71,7.71,0,0,1,.63,3.1A7.56,7.56,0,0,1,996.86,929.94Z" transform="translate(-53.71 -44.08)"/></g><g class="cls-9"><path class="cls-10" d="M1000.52,929.94a8,8,0,0,1,0-6.21,7.32,7.32,0,0,1,.63,3.1A7.19,7.19,0,0,1,1000.52,929.94Z" transform="translate(-53.71 -44.08)"/></g><g class="cls-9"><path class="cls-10" d="M1004.2,929.94a8.06,8.06,0,0,1,0-6.21,7.2,7.2,0,0,1,.66,3.1A7.52,7.52,0,0,1,1004.2,929.94Z" transform="translate(-53.71 -44.08)"/></g><g class="cls-9"><path class="cls-10" d="M1007.86,929.94a7.72,7.72,0,0,1-.63-3.11,7.17,7.17,0,0,1,.63-3.1A8.06,8.06,0,0,1,1007.86,929.94Z" transform="translate(-53.71 -44.08)"/></g><g class="cls-9"><path class="cls-10" d="M1011.65,929.94a8.06,8.06,0,0,1,0-6.21A8.06,8.06,0,0,1,1011.65,929.94Z" transform="translate(-53.71 -44.08)"/></g><g class="cls-9"><path class="cls-10" d="M1015.21,929.94a7.19,7.19,0,0,1-.63-3.11,7,7,0,0,1,.63-3.1,7.71,7.71,0,0,1,.63,3.1A7.89,7.89,0,0,1,1015.21,929.94Z" transform="translate(-53.71 -44.08)"/></g><g class="cls-9"><path class="cls-10" d="M1018.87,929.94a7.56,7.56,0,0,1-.63-3.11,7,7,0,0,1,.63-3.1,7.17,7.17,0,0,1,.63,3.1A7.34,7.34,0,0,1,1018.87,929.94Z" transform="translate(-53.71 -44.08)"/></g><g class="cls-9"><path class="cls-10" d="M1022.55,929.94a7.89,7.89,0,0,1-.66-3.11,7.55,7.55,0,0,1,.64-3.1,7.17,7.17,0,0,1,.63,3.1A7.7,7.7,0,0,1,1022.55,929.94Z" transform="translate(-53.71 -44.08)"/></g><g class="cls-9"><path class="cls-10" d="M1026.21,929.91a7.89,7.89,0,0,1,0-6.18A7.89,7.89,0,0,1,1026.21,929.91Z" transform="translate(-53.71 -44.08)"/></g><g class="cls-9"><path class="cls-10" d="M1029.87,929.91a7.89,7.89,0,0,1,0-6.18A7.89,7.89,0,0,1,1029.87,929.91Z" transform="translate(-53.71 -44.08)"/></g><g class="cls-9"><path class="cls-10" d="M1033.56,929.91a7.18,7.18,0,0,1-.64-3.1,7.31,7.31,0,0,1,.61-3.1,7.35,7.35,0,0,1,.66,3.1A7.64,7.64,0,0,1,1033.56,929.91Z" transform="translate(-53.71 -44.08)"/></g><g class="cls-9"><path class="cls-10" d="M1037.21,929.91a7.64,7.64,0,0,1-.63-3.1,7.32,7.32,0,0,1,.63-3.1,7.65,7.65,0,0,1,.64,3.1A7.49,7.49,0,0,1,1037.21,929.91Z" transform="translate(-53.71 -44.08)"/></g><g class="cls-9"><path class="cls-10" d="M1040.87,929.91a7.64,7.64,0,0,1-.63-3.1,7.81,7.81,0,0,1,.63-3.1,7.83,7.83,0,0,1,0,6.2Z" transform="translate(-53.71 -44.08)"/></g><g class="cls-9"><path class="cls-10" d="M1044.46,929.91a8,8,0,0,1,0-6.2A8,8,0,0,1,1044.46,929.91Z" transform="translate(-53.71 -44.08)"/></g><g class="cls-9"><path class="cls-10" d="M1048.22,929.91a7.48,7.48,0,0,1-.63-3.1,7.17,7.17,0,0,1,.63-3.1A8,8,0,0,1,1048.22,929.91Z" transform="translate(-53.71 -44.08)"/></g><g class="cls-9"><path class="cls-10" d="M1052,929.91a7.77,7.77,0,0,1,0-6.2,6.74,6.74,0,0,1,.63,3.1A7.64,7.64,0,0,1,1052,929.91Z" transform="translate(-53.71 -44.08)"/></g><g class="cls-9"><path class="cls-10" d="M1055.56,929.91a7.94,7.94,0,0,1,0-6.2,7.94,7.94,0,0,1,0,6.2Z" transform="translate(-53.71 -44.08)"/></g><g class="cls-9"><path class="cls-10" d="M1059.22,929.91a7.94,7.94,0,0,1,0-6.2,7,7,0,0,1,.63,3.1A7.17,7.17,0,0,1,1059.22,929.91Z" transform="translate(-53.71 -44.08)"/></g><g class="cls-9"><path class="cls-10" d="M1062.91,929.89a8.07,8.07,0,0,1,0-6.18,7,7,0,0,1,.65,3.1A7.44,7.44,0,0,1,1062.91,929.89Z" transform="translate(-53.71 -44.08)"/></g><g class="cls-9"><path class="cls-10" d="M1066.57,929.89a7.42,7.42,0,0,1-.63-3.08,7,7,0,0,1,.63-3.1,7.45,7.45,0,0,1,.6,3.2A7.09,7.09,0,0,1,1066.57,929.89Z" transform="translate(-53.71 -44.08)"/></g><rect class="cls-24" x="929.49" y="1040.21" width="79.02" height="35.67"/><g class="cls-12"><path class="cls-10" d="M983.2,1108.21q6.9-1.11,13.78-1.6c4.6-.36,9.17-.65,13.76-.78l-2.25,2.09a4.12,4.12,0,0,1,.38-1.25,5.76,5.76,0,0,1,.46-.71,5.13,5.13,0,0,1,.93-1,8.6,8.6,0,0,1,1.89-1.22,15.67,15.67,0,0,1,3.64-1.13,37.93,37.93,0,0,1,13.85,0,15.67,15.67,0,0,1,3.64,1.13,8.6,8.6,0,0,1,1.89,1.22,5.62,5.62,0,0,1,1,1,4,4,0,0,1,.43.71,3.22,3.22,0,0,1,.4,1.25l-2.27-2.09c4.59,0,9.19.39,13.78.76s9.16.86,13.76,1.59c-4.6.73-9.17,1.22-13.76,1.59s-9.19.63-13.78.78l-2.27-2.11a1.24,1.24,0,0,0,0,.47h0l-.23-.16a3.74,3.74,0,0,0-.91-.47,12.24,12.24,0,0,0-2.52-.7,47,47,0,0,0-12.09,0,15.69,15.69,0,0,0-2.52.7,4.36,4.36,0,0,0-.91.47l-.23.16h0v-.47l-2.27,2.09c-4.57-.13-9.16-.4-13.76-.76S987.8,1108.91,983.2,1108.21Z" transform="translate(-53.71 -44.08)"/></g><ellipse class="cls-1" cx="968.87" cy="925.76" rx="33.01" ry="16.17"/><rect class="cls-1" x="945.24" y="1006.55" width="47.42" height="4.43"/><rect class="cls-1" x="950.52" y="1015.07" width="36.87" height="4.43"/><rect class="cls-1" x="950.44" y="949.51" width="36.87" height="4.43"/></g><g id="Scissors"><path class="cls-14" d="M476.33,891.16c2.17,20.86,20.19,25.63,22.52,26.91s2.52,2,2.7,3.55a96.05,96.05,0,0,0,11.78,35.46l16.94,157.59,2.67-.44c12-61.94,1.67-148.64,1.67-148.64-5.81-3.05-15.9-14.14-19.33-24.13s-5.88-24.69-4.4-27.59c1.24-2.47,9.85-11.24,11.41-25.13,0-1,2.3-.87,2.75-1.91A24.19,24.19,0,0,0,523.5,877c-.5-.7-1.91.32-3.23-.88-3.81-9.13-10.67-12.36-17.51-14.27C491,858.41,474.19,870.51,476.33,891.16Zm8.61-12.2c3.41-6.91,12.62-14,22.94-7.46,7.57,4.77,10,14.63,5.76,24.72s-14.06,13.64-22.72,8.5-9.74-18.2-6-25.76Z" transform="translate(-53.71 -44.08)"/><path class="cls-3" d="M523.71,955.6l-8.36,20,5.93,55.28,15.9-35.8c-1.16-17.89-2.52-29.57-2.52-29.57A42.87,42.87,0,0,1,523.71,955.6Z" transform="translate(-53.71 -44.08)"/><path class="cls-25" d="M532.26,1110.79c1-5.84,1.64-11.71,2.3-17.61s1.11-11.78,1.49-17.68q1.13-17.76,1.11-35.54c0-11.84-.43-23.7-1.34-35.49-.23-3-.38-5.92-.71-8.87l-.85-8.84c-.28-3-.69-5.87-1.09-8.81l-1.06-8.79c1.19,11.79,2.35,23.47,2.93,35.36s1.06,23.63,1.06,35.44-.25,23.65-.83,35.47S533.68,1099,532.26,1110.79Z" transform="translate(-53.71 -44.08)"/><path class="cls-25" d="M523.28,962.64s-31.55,80.5-35.34,143.64l2.53,1.17L546,960.53a92.85,92.85,0,0,0,20.19-30.83c.58-1.38,1.06-2,3.51-2.6s20.47-.55,28.39-19.51-4.87-29.86-1.94-36.87,6.51-11.14,14.77-13.2,5.57-9.18-1.44-7.82a31.07,31.07,0,0,0-17.32,11.6c-3,4.54-3.1,8.71-11.51,8.71a26.34,26.34,0,0,0-24.25,15.28c-7.37,14.58,2.07,30.85,2.75,34.16s-5.32,16.77-11.13,25.43S529.59,961.34,523.28,962.64Zm39.52-74.48c3.41-6.88,12.62-14,22.94-7.46,7.57,4.8,10,14.63,5.76,24.73s-14,13.63-22.72,8.52S559,895.62,562.8,888.16Z" transform="translate(-53.71 -44.08)"/><path class="cls-26" d="M527.67,981.68a4.69,4.69,0,0,1,.93,6.42,4.62,4.62,0,0,1-1.31,1.22,4,4,0,0,1-4.42-.24,4.69,4.69,0,0,1-.93-6.42,4.48,4.48,0,0,1,1.31-1.22A3.94,3.94,0,0,1,527.67,981.68Z" transform="translate(-53.71 -44.08)"/><path class="cls-27" d="M527.52,983.21a3.37,3.37,0,0,1-.31,4.49,2.84,2.84,0,0,1-4.1-.21l-.09-.1a3.32,3.32,0,0,1,.31-4.49,2.84,2.84,0,0,1,4.1.21Z" transform="translate(-53.71 -44.08)"/><path class="cls-3" d="M489.63,1105.08q1.29-9,2.86-17.84c1-6,2.12-11.84,3.3-17.76,2.32-11.79,4.87-23.47,7.78-35.18,1.36-5.87,2.92-11.66,4.41-17.47s3.18-11.58,4.92-17.29l2.53-8.63,2.77-8.53,1.37-4.3,1.49-4.23,2.9-8.5c-4.34,11.14-8.43,22.4-11.94,33.9l-1.34,4.28-1.28,4.22-2.53,8.66c-1.54,5.82-3.15,11.61-4.54,17.47-2.8,11.69-5.38,23.47-7.57,35.31S490.9,1093.08,489.63,1105.08Z" transform="translate(-53.71 -44.08)"/><path class="cls-3" d="M582.21,871.65a25.31,25.31,0,0,0-14,2.46,24.53,24.53,0,0,0-10.5,10.43,26.48,26.48,0,0,0-3,15,48.32,48.32,0,0,0,3.84,14.87c.45,1.14,1.06,2.34,1.39,3.41a8.69,8.69,0,0,1,0,3.52,35.09,35.09,0,0,1-2.17,7.12,105.26,105.26,0,0,1-6.79,13.35,50,50,0,0,1-9.21,11.48,40.29,40.29,0,0,1-11.84,8.32,28.35,28.35,0,0,0,6.44-3.34,55.72,55.72,0,0,0,5.78-4.51,52.14,52.14,0,0,0,9.59-11.42,97.17,97.17,0,0,0,7-13.43,36.31,36.31,0,0,0,2.29-7.36,10.33,10.33,0,0,0,0-4.07,35.42,35.42,0,0,0-1.43-3.57,46.21,46.21,0,0,1-3.84-14.45A26.29,26.29,0,0,1,558.43,885a24.11,24.11,0,0,1,10-10.27A25.71,25.71,0,0,1,582.21,871.65Z" transform="translate(-53.71 -44.08)"/></g><g id="Combs"><polygon class="cls-3" points="273.18 912.75 117.71 1041.57 104.79 1026.31 260.26 897.46 273.18 912.75"/><path class="cls-3" d="M194.72,1105.86h0a1.41,1.41,0,0,1-2-.13l-19.89-21.26,4.42-3.7L195,1103.9a1.4,1.4,0,0,1-.17,1.91Z" transform="translate(-53.71 -44.08)"/><path class="cls-3" d="M202.11,1099.73h0a1.42,1.42,0,0,1-1.94,0l-19.91-21.28,4.44-3.65,17.67,23.13A1.42,1.42,0,0,1,202.11,1099.73Z" transform="translate(-53.71 -44.08)"/><path class="cls-3" d="M209.53,1093.58h0a1.44,1.44,0,0,1-2,0l-19.88-21.28,4.41-3.65,17.67,23.1A1.42,1.42,0,0,1,209.53,1093.58Z" transform="translate(-53.71 -44.08)"/><path class="cls-3" d="M216.93,1087.45h0a1.45,1.45,0,0,1-2-.13l-19.88-21.26,4.41-3.54,17.67,23.13A1.42,1.42,0,0,1,216.93,1087.45Z" transform="translate(-53.71 -44.08)"/><path class="cls-3" d="M224.35,1081.29h0a1.42,1.42,0,0,1-2,0l-19.89-21.38,4.42-3.65,17.67,23.1A1.43,1.43,0,0,1,224.35,1081.29Z" transform="translate(-53.71 -44.08)"/><path class="cls-3" d="M231.77,1075.16h0a1.41,1.41,0,0,1-1.94-.13l-19.89-21.25,4.41-3.68L232,1073.24A1.41,1.41,0,0,1,231.77,1075.16Z" transform="translate(-53.71 -44.08)"/><path class="cls-3" d="M239.16,1069h0a1.44,1.44,0,0,1-1.94-.13l-19.91-21.28,4.41-3.65,17.67,23.13A1.41,1.41,0,0,1,239.16,1069Z" transform="translate(-53.71 -44.08)"/><path class="cls-3" d="M246.58,1062.88h0a1.42,1.42,0,0,1-2-.13l-19.89-21.25,4.41-3.68L246.81,1061a1.38,1.38,0,0,1-.2,1.91Z" transform="translate(-53.71 -44.08)"/><path class="cls-3" d="M254,1056.75h0a1.41,1.41,0,0,1-1.94-.13l-19.92-21.28,4.44-3.65,17.67,23.13A1.42,1.42,0,0,1,254,1056.75Z" transform="translate(-53.71 -44.08)"/><path class="cls-3" d="M261.4,1050.6h0a1.41,1.41,0,0,1-2-.13l-19.89-21.25,4.42-3.68,17.67,23.13A1.42,1.42,0,0,1,261.4,1050.6Z" transform="translate(-53.71 -44.08)"/><path class="cls-3" d="M268.79,1044.47h0a1.42,1.42,0,0,1-1.94-.13l-19.94-21.28,4.42-3.65L269,1042.54A1.42,1.42,0,0,1,268.79,1044.47Z" transform="translate(-53.71 -44.08)"/><path class="cls-3" d="M276.21,1038.32h0a1.43,1.43,0,0,1-2,0l-19.77-21.39,4.42-3.65,17.67,23.11a1.41,1.41,0,0,1-.35,1.92Z" transform="translate(-53.71 -44.08)"/><path class="cls-3" d="M283.61,1032.19h0a1.42,1.42,0,0,1-1.94-.13l-19.89-21.25,4.41-3.68,17.67,23.13A1.42,1.42,0,0,1,283.61,1032.19Z" transform="translate(-53.71 -44.08)"/><path class="cls-3" d="M291,1026h0a1.4,1.4,0,0,1-1.94,0l-19.92-21.28,4.42-3.65,17.67,23.1A1.43,1.43,0,0,1,291,1026Z" transform="translate(-53.71 -44.08)"/><path class="cls-3" d="M298.45,1019.91h0a1.46,1.46,0,0,1-2-.13l-19.89-21.26,4.42-3.67L298.68,1018A1.42,1.42,0,0,1,298.45,1019.91Z" transform="translate(-53.71 -44.08)"/><path class="cls-3" d="M305.84,1013.78h0a1.44,1.44,0,0,1-1.94-.13L284,992.37l4.44-3.65,17.67,23.13A1.41,1.41,0,0,1,305.84,1013.78Z" transform="translate(-53.71 -44.08)"/><path class="cls-3" d="M313.26,1007.75h0a1.41,1.41,0,0,1-2-.13l-19.89-21.25,4.41-3.68,17.67,23.13A1.41,1.41,0,0,1,313.26,1007.75Z" transform="translate(-53.71 -44.08)"/><path class="cls-3" d="M320.66,1001.5h0a1.43,1.43,0,0,1-1.94-.14l-19.89-21.27,4.42-3.66,17.66,23.14A1.41,1.41,0,0,1,320.66,1001.5Z" transform="translate(-53.71 -44.08)"/><path class="cls-3" d="M328.08,995.34h0a1.4,1.4,0,0,1-2-.13l-19.89-21.36,4.42-3.67,17.67,23.13a1.42,1.42,0,0,1-.13,2Z" transform="translate(-53.71 -44.08)"/><path class="cls-3" d="M335.47,989.21h0a1.41,1.41,0,0,1-1.94-.13L313.64,967.8l4.42-3.65,17.67,23.13A1.41,1.41,0,0,1,335.47,989.21Z" transform="translate(-53.71 -44.08)"/><path class="cls-3" d="M342.82,983.06h0a1.4,1.4,0,0,1-1.94,0L321,961.78l4.42-3.65,17.67,23.1A1.43,1.43,0,0,1,342.82,983.06Z" transform="translate(-53.71 -44.08)"/><polygon class="cls-4" points="123.54 1036.72 128.69 1043.45 125.01 1046.68 119.13 1040.37 123.54 1036.72"/><polygon class="cls-4" points="130.96 1030.59 135.96 1037.11 132.25 1040.34 126.55 1034.24 130.96 1030.59"/><polygon class="cls-4" points="138.38 1024.44 143.2 1030.77 139.49 1034.01 133.97 1028.11 138.38 1024.44"/><polygon class="cls-4" points="145.8 1018.31 150.47 1024.41 146.74 1027.7 141.36 1021.96 145.8 1018.31"/><polygon class="cls-4" points="153.2 1012.15 157.72 1018.07 153.96 1021.38 148.78 1015.83 153.2 1012.15"/><polygon class="cls-4" points="160.62 1006.02 164.99 1011.74 161.2 1015.02 156.2 1009.68 160.62 1006.02"/><polygon class="cls-4" points="168.01 999.9 172.23 1005.4 168.42 1008.71 163.6 1003.55 168.01 999.9"/><polygon class="cls-4" points="175.43 993.74 179.47 999.04 175.66 1002.37 170.99 997.42 175.43 993.74"/><polygon class="cls-4" points="182.83 987.59 186.74 992.7 182.9 996.06 178.41 991.26 182.83 987.59"/><polygon class="cls-4" points="190.25 981.46 193.98 986.36 190.15 989.73 185.83 985.14 190.25 981.46"/><polygon class="cls-4" points="197.67 975.33 201.23 980.03 197.37 983.39 193.25 978.98 197.67 975.33"/><polygon class="cls-4" points="205.06 969.18 208.5 973.66 204.61 977.08 200.65 972.83 205.06 969.18"/><polygon class="cls-4" points="212.46 963.05 215.74 967.35 211.83 970.77 208.04 966.7 212.46 963.05"/><polygon class="cls-4" points="219.88 956.92 223.01 960.99 219.07 964.43 215.46 960.57 219.88 956.92"/><polygon class="cls-4" points="227.3 950.77 230.28 954.65 226.31 958.09 222.88 954.42 227.3 950.77"/><polygon class="cls-4" points="234.72 944.64 237.52 948.29 233.56 951.78 230.28 948.29 234.72 944.64"/><polygon class="cls-4" points="242.11 938.48 244.76 941.98 240.78 945.47 237.7 942.16 242.11 938.48"/><polygon class="cls-4" points="249.53 932.33 252.03 935.64 248.02 939.11 245.12 936.01 249.53 932.33"/><polygon class="cls-4" points="256.93 926.2 259.28 929.28 255.24 932.8 252.51 929.88 256.93 926.2"/><polygon class="cls-4" points="264.35 920.07 266.55 922.94 262.48 926.46 259.91 923.72 264.35 920.07"/><polygon class="cls-4" points="273.79 916.61 269.73 920.15 267.33 917.6 271.75 913.92 273.79 916.61"/><path class="cls-1" d="M214.71,931.24c-21.08,60.53-72,78.65-76.6,94.59-8.36,29-3.69,42.5-8.48,67.22-3.59,18.55-16.21,38-33.29,33.15s-17.52-27.9-10.7-45.43c9.06-23.47,20.19-32.54,28.52-61.59,4.59-15.91-29.08-57.87-14.87-120.33,14.69-64.28,61.53-77.34,82.88-71.35S236.41,868.94,214.71,931.24Z" transform="translate(-53.71 -44.08)"/><path class="cls-4" d="M214.71,931.24c-21.08,60.5-72,78.65-76.63,94.59-8.33,29-3.66,42.5-8.45,67.22-3.61,18.55-16.21,38-33.29,33.15a19.23,19.23,0,0,1-13.48-14.29,19.27,19.27,0,0,0,4.64,1.95c17.12,4.83,29.46-13.66,32.81-31.45,4.5-23.7-.3-36.69,7.58-64.49,4.39-15.25,55-32.1,75.28-90,21-59.58-12.24-94.06-33.61-100.08a36.82,36.82,0,0,0-5.78-1.1,44.58,44.58,0,0,1,18.29.68C203.53,833.42,236.41,868.92,214.71,931.24Z" transform="translate(-53.71 -44.08)"/><ellipse class="cls-19" cx="157.86" cy="911.94" rx="74.4" ry="48.39" transform="translate(-815.52 764.12) rotate(-73.74)"/><path class="cls-4" d="M204.46,925c-11.36,39.5-41.39,65.63-67.11,58.41-18.6-5.22-29.83-26.44-30.29-52.7,2.53,19.53,12.32,34.58,27,38.72,23.58,6.65,51.06-17.31,61.46-53.46,9.89-34.45.71-67.56-20.57-76.38,1.16.21,2.35.47,3.51.78C204.16,847.66,215.82,885.55,204.46,925Z" transform="translate(-53.71 -44.08)"/><path class="cls-28" d="M155.24,921.12a2.51,2.51,0,0,0-3.12,1.72l-3.18,11.09a2.61,2.61,0,0,0,1.74,3.1,2.51,2.51,0,0,0,3.13-1.72l3.18-11A2.63,2.63,0,0,0,155.24,921.12Z" transform="translate(-53.71 -44.08)"/><path class="cls-28" d="M145.15,956.3A2.52,2.52,0,0,0,142,958l-3.18,11.09a2.61,2.61,0,0,0,1.74,3.1,2.51,2.51,0,0,0,3.13-1.72l3.18-11.11A2.62,2.62,0,0,0,145.15,956.3Z" transform="translate(-53.71 -44.08)"/><path class="cls-28" d="M142,916.64a2.48,2.48,0,0,0-3.46.89l-5.9,10a2.64,2.64,0,0,0,.9,3.41A2.48,2.48,0,0,0,137,930l5.91-9.94A2.66,2.66,0,0,0,142,916.64Z" transform="translate(-53.71 -44.08)"/><path class="cls-28" d="M143.28,937.34a2.61,2.61,0,0,0-3.38,1.18L134.85,949a2.65,2.65,0,0,0,1.21,3.34,2.49,2.49,0,0,0,3.36-1.18l5.05-10.43A2.66,2.66,0,0,0,143.28,937.34Z" transform="translate(-53.71 -44.08)"/><path class="cls-28" d="M130.23,931.11a2.62,2.62,0,0,0-3.56.39l-7.26,9a2.5,2.5,0,0,0,.29,3.45l.08.07a2.46,2.46,0,0,0,3.55-.38h0l7.3-8.89A2.67,2.67,0,0,0,130.23,931.11Z" transform="translate(-53.71 -44.08)"/><path class="cls-28" d="M119.81,922.35a2.48,2.48,0,0,0-3.43-1h0l-10.25,5.58a2.66,2.66,0,0,0-1,3.39,2.48,2.48,0,0,0,3.43,1h0l10.1-5.48a2.47,2.47,0,0,0,1.3-3.19C119.91,922.55,119.86,922.45,119.81,922.35Z" transform="translate(-53.71 -44.08)"/><path class="cls-28" d="M156.81,941.23A2.59,2.59,0,0,1,159,944l-1.26,11.45a2.56,2.56,0,0,1-2.78,2.22,2.58,2.58,0,0,1-2.24-2.77L154,943.45A2.53,2.53,0,0,1,156.81,941.23Z" transform="translate(-53.71 -44.08)"/><path class="cls-28" d="M130.81,966a2.61,2.61,0,0,0-3.38,1.17l-5.05,10.43A2.64,2.64,0,0,0,123.6,981,2.48,2.48,0,0,0,127,979.8l5-10.43A2.65,2.65,0,0,0,130.81,966Z" transform="translate(-53.71 -44.08)"/><path class="cls-28" d="M152.14,972a2.59,2.59,0,0,1,2.25,2.76l-1.27,11.48a2.53,2.53,0,0,1-2.8,2.21,2.58,2.58,0,0,1-2.24-2.76l1.26-11.47A2.53,2.53,0,0,1,152.14,972Z" transform="translate(-53.71 -44.08)"/><path class="cls-28" d="M171.2,942.56a2.53,2.53,0,0,1,2.82,2.19l1.42,11.42a2.59,2.59,0,0,1-2.2,2.79,2.54,2.54,0,0,1-2.83-2.16L169,945.35A2.58,2.58,0,0,1,171.2,942.56Z" transform="translate(-53.71 -44.08)"/><path class="cls-28" d="M184.77,940.63a2.61,2.61,0,0,1,3.46.91l5.81,10a2.65,2.65,0,0,1-.94,3.41,2.46,2.46,0,0,1-3.45-.91l-5.83-10A2.66,2.66,0,0,1,184.77,940.63Z" transform="translate(-53.71 -44.08)"/><path class="cls-28" d="M132.45,910.82a2.52,2.52,0,0,0-3-1.93l-11.24,2.38a2.61,2.61,0,0,0-1.94,3,2.52,2.52,0,0,0,3,1.9l11.39-2.45A2.62,2.62,0,0,0,132.45,910.82Z" transform="translate(-53.71 -44.08)"/><path class="cls-28" d="M180.1,924.31a2.47,2.47,0,0,1,3.57-.15l.15.15,8.25,7.82a2.67,2.67,0,0,1,0,3.55,2.47,2.47,0,0,1-3.57,0h0l-8.35-8A2.68,2.68,0,0,1,180.1,924.31Z" transform="translate(-53.71 -44.08)"/><path class="cls-28" d="M148.88,910a2.49,2.49,0,0,0-3.3-1.36l-5.05,1.72a2.64,2.64,0,0,0-1.36,3.26A2.61,2.61,0,0,0,142.5,915l5.05-1.72A2.63,2.63,0,0,0,148.88,910Z" transform="translate(-53.71 -44.08)"/><path class="cls-28" d="M166.58,915a2.46,2.46,0,0,1,3.52.56h0l3.41,4.1a2.51,2.51,0,0,1-.49,3.43l-.09.06a2.48,2.48,0,0,1-3.53-.56h0l-3.4-4.1A2.66,2.66,0,0,1,166.58,915Z" transform="translate(-53.71 -44.08)"/><path class="cls-28" d="M114.66,937.34a2.65,2.65,0,0,0-3.58,0l-8.38,7.83a2.49,2.49,0,0,0-.09,3.43l.09.09a2.6,2.6,0,0,0,3.58,0l8.41-8A2.68,2.68,0,0,0,114.66,937.34Z" transform="translate(-53.71 -44.08)"/><path class="cls-28" d="M181.29,956a2.51,2.51,0,0,1,3.08,1.83L187.25,969a2.62,2.62,0,0,1-1.82,3,2.52,2.52,0,0,1-3.08-1.83L179.47,959A2.62,2.62,0,0,1,181.29,956Z" transform="translate(-53.71 -44.08)"/><path class="cls-28" d="M120.72,904.25a2.57,2.57,0,0,0-2.53-2.61l-11.63-.23a2.51,2.51,0,0,0-3.1,1.83,2.62,2.62,0,0,0,1.78,3.2,2.47,2.47,0,0,0,1.32,0l11.63.21A2.56,2.56,0,0,0,120.72,904.25Z" transform="translate(-53.71 -44.08)"/><path class="cls-28" d="M193.61,924.77a2.63,2.63,0,0,1,3.48-.88l10.1,5.89a2.67,2.67,0,0,1,.88,3.42,2.48,2.48,0,0,1-3.46.9l0,0-10.1-5.86A2.67,2.67,0,0,1,193.61,924.77Z" transform="translate(-53.71 -44.08)"/><path class="cls-28" d="M168.87,924.31a2.56,2.56,0,0,1,2.53,2.6l-.2,11.37a2.53,2.53,0,1,1-5,0l.28-11.52A2.55,2.55,0,0,1,168.87,924.31Z" transform="translate(-53.71 -44.08)"/><path class="cls-28" d="M163.19,958.44a2.57,2.57,0,0,1,2.53,2.61l-.28,11.53a2.56,2.56,0,0,1-2.59,2.54,2.59,2.59,0,0,1-2.46-2.68l.21-11.63A2.55,2.55,0,0,1,163.19,958.44Z" transform="translate(-53.71 -44.08)"/><path class="cls-28" d="M128.64,948.71a2.48,2.48,0,0,0-3.45.89l-5.89,9.94a2.66,2.66,0,0,0,.89,3.44,2.62,2.62,0,0,0,3.48-.89l5.88-10a2.49,2.49,0,0,0-.82-3.36Z" transform="translate(-53.71 -44.08)"/><path class="cls-28" d="M160.92,910.72a2.51,2.51,0,0,1-3.13,1.76h0a2.62,2.62,0,0,1-1.79-3.16,2.52,2.52,0,0,1,3.14-1.76h0A2.62,2.62,0,0,1,160.92,910.72Z" transform="translate(-53.71 -44.08)"/><path class="cls-28" d="M161.63,898.91a2.51,2.51,0,0,0,3.1-1.73l3.21-11.08a2.62,2.62,0,0,0-1.74-3.1,2.51,2.51,0,0,0-3.13,1.72l-3.18,11.11A2.62,2.62,0,0,0,161.63,898.91Z" transform="translate(-53.71 -44.08)"/><path class="cls-28" d="M171.73,863.73a2.52,2.52,0,0,0,3.13-1.72L178,850.92a2.62,2.62,0,0,0-1.75-3.1,2.51,2.51,0,0,0-3.13,1.75L170,860.65A2.62,2.62,0,0,0,171.73,863.73Z" transform="translate(-53.71 -44.08)"/><path class="cls-28" d="M174.86,903.44a2.47,2.47,0,0,0,3.45-.88l5.91-10a2.65,2.65,0,0,0-.91-3.41,2.48,2.48,0,0,0-3.46.89L174,900A2.64,2.64,0,0,0,174.86,903.44Z" transform="translate(-53.71 -44.08)"/><path class="cls-28" d="M173.72,882.58a2.48,2.48,0,0,0,3.38-1.17L182.15,871a2.64,2.64,0,0,0-1.19-3.34,2.48,2.48,0,0,0-3.38,1.17l-5.05,10.43A2.66,2.66,0,0,0,173.72,882.58Z" transform="translate(-53.71 -44.08)"/><path class="cls-28" d="M186.62,888.92a2.62,2.62,0,0,0,3.56-.39l7.29-9a2.67,2.67,0,0,0-.38-3.52,2.47,2.47,0,0,0-3.55.38h0l-7.19,9A2.66,2.66,0,0,0,186.62,888.92Z" transform="translate(-53.71 -44.08)"/><path class="cls-28" d="M197.07,897.71a2.48,2.48,0,0,0,3.43,1l10.24-5.48a2.64,2.64,0,0,0,1-3.39,2.48,2.48,0,0,0-3.43-1h0l-10.25,5.48A2.66,2.66,0,0,0,197.07,897.71Z" transform="translate(-53.71 -44.08)"/><path class="cls-28" d="M160.07,878.8a2.58,2.58,0,0,1-2.25-2.76l1.26-11.45a2.54,2.54,0,0,1,2.8-2.22,2.58,2.58,0,0,1,2.25,2.76l-1.26,11.45A2.54,2.54,0,0,1,160.07,878.8Z" transform="translate(-53.71 -44.08)"/><path class="cls-28" d="M186,854.05a2.48,2.48,0,0,0,3.38-1.17l5-10.43a2.53,2.53,0,0,0-4.57-2.17l-5,10.43A2.65,2.65,0,0,0,186,854.05Z" transform="translate(-53.71 -44.08)"/><path class="cls-28" d="M164.73,848.08a2.58,2.58,0,0,1-2.24-2.76l1.26-11.45a2.55,2.55,0,0,1,2.8-2.22,2.58,2.58,0,0,1,2.25,2.77l-1.29,11.44A2.54,2.54,0,0,1,164.73,848.08Z" transform="translate(-53.71 -44.08)"/><path class="cls-28" d="M145.63,877.37a2.55,2.55,0,0,1-2.83-2.17l-1.41-11.45a2.58,2.58,0,0,1,2.22-2.79,2.55,2.55,0,0,1,2.8,2.17l1.44,11.45A2.6,2.6,0,0,1,145.63,877.37Z" transform="translate(-53.71 -44.08)"/><path class="cls-28" d="M132.1,879.4a2.48,2.48,0,0,1-3.46-.91l-5.8-10a2.65,2.65,0,0,1,.93-3.41,2.49,2.49,0,0,1,3.46.93h0l5.8,10A2.65,2.65,0,0,1,132.1,879.4Z" transform="translate(-53.71 -44.08)"/><path class="cls-28" d="M184.42,909.21a2.52,2.52,0,0,0,3,1.93l11.39-2.46a2.6,2.6,0,0,0,1.94-3,2.52,2.52,0,0,0-3-1.93l-11.39,2.45A2.61,2.61,0,0,0,184.42,909.21Z" transform="translate(-53.71 -44.08)"/><path class="cls-28" d="M136.77,895.8a2.47,2.47,0,0,1-3.57,0v0l-8.38-8a2.51,2.51,0,0,1-.08-3.47.6.6,0,0,1,.08-.08,2.47,2.47,0,0,1,3.56,0l8.37,8A2.66,2.66,0,0,1,136.77,895.8Z" transform="translate(-53.71 -44.08)"/><path class="cls-28" d="M168,910.07a2.5,2.5,0,0,0,3.31,1.33l5-1.7a2.63,2.63,0,0,0,1.37-3.28,2.5,2.5,0,0,0-3.31-1.36l-5.05,1.72A2.64,2.64,0,0,0,168,910.07Z" transform="translate(-53.71 -44.08)"/><path class="cls-28" d="M150.27,905.09a2.48,2.48,0,0,1-3.51-.6l-3.33-4.1a2.67,2.67,0,0,1,.58-3.49,2.48,2.48,0,0,1,3.53.56h0l3.45,4.1A2.65,2.65,0,0,1,150.27,905.09Z" transform="translate(-53.71 -44.08)"/><path class="cls-28" d="M202.19,882.76a2.47,2.47,0,0,0,3.57,0v0l8.33-8a2.67,2.67,0,0,0,0-3.55,2.6,2.6,0,0,0-3.58,0l-8.38,8A2.66,2.66,0,0,0,202.19,882.76Z" transform="translate(-53.71 -44.08)"/><path class="cls-28" d="M135.71,864a2.51,2.51,0,0,1-3.08-1.8l-2.9-11.19a2.62,2.62,0,0,1,1.84-3,2.52,2.52,0,0,1,3.08,1.83L137.53,861A2.62,2.62,0,0,1,135.71,864Z" transform="translate(-53.71 -44.08)"/><path class="cls-28" d="M196.21,915.78a2.57,2.57,0,0,0,2.52,2.61l11.64.23a2.52,2.52,0,0,0,3.13-1.77,2.63,2.63,0,0,0-1.72-3.24,2.42,2.42,0,0,0-1.41,0l-11.64-.23A2.55,2.55,0,0,0,196.21,915.78Z" transform="translate(-53.71 -44.08)"/><path class="cls-28" d="M123.24,895.25a2.62,2.62,0,0,1-3.48.89l-10.1-5.89a2.51,2.51,0,0,1-.93-3.33l0-.09a2.49,2.49,0,0,1,3.46-.89l10.09,5.87A2.64,2.64,0,0,1,123.24,895.25Z" transform="translate(-53.71 -44.08)"/><path class="cls-28" d="M148,895.83a2.57,2.57,0,0,1-2.53-2.61l.25-11.53a2.53,2.53,0,1,1,5.05,0l-.28,11.53A2.57,2.57,0,0,1,148,895.83Z" transform="translate(-53.71 -44.08)"/><path class="cls-28" d="M153.68,861.72a2.57,2.57,0,0,1-2.52-2.61l.27-11.53a2.53,2.53,0,1,1,5,.14l-.2,11.39a2.57,2.57,0,0,1-2.52,2.61Z" transform="translate(-53.71 -44.08)"/><path class="cls-28" d="M188.21,871.32a2.48,2.48,0,0,0,3.45-.89l5.91-9.94a2.65,2.65,0,0,0-.91-3.44,2.49,2.49,0,0,0-3.46.91l-5.9,9.94A2.66,2.66,0,0,0,188.21,871.32Z" transform="translate(-53.71 -44.08)"/></g></svg>