<svg xmlns="http://www.w3.org/2000/svg" viewBox="0 0 1133.86 1133.86"><defs><style>.cls-1{isolation:isolate;}.cls-2{fill:#9ed4cd;}.cls-2,.cls-3{stroke:#48c1f1;}.cls-11,.cls-2,.cls-3{stroke-miterlimit:10;}.cls-3{fill:#6ac7e1;}.cls-4{opacity:0.3;}.cls-5{fill:#262b5f;}.cls-6{opacity:0.55;}.cls-7{fill:#fff;}.cls-8{fill:#5ec5ec;}.cls-9{fill:#39bcdc;}.cls-10{fill:#c1e3ea;}.cls-11{fill:#262c60;stroke:#7d3a8e;}.cls-12{fill:#624a2e;opacity:0.7;mix-blend-mode:multiply;}.cls-13{fill:#70706f;}.cls-14{fill:#fffdf0;}.cls-15{fill:#cacbcc;}.cls-16{fill:#e8501d;}</style></defs><title>GUARDERIA</title><g class="cls-1"><g id="Capa_1" data-name="Capa 1"><polygon class="cls-2" points="1033.39 557.61 937.84 1120.52 202.97 1120.52 104.16 538.4 141.84 502.48 559.66 104.22 1033.39 557.61"/><path class="cls-3" d="M938.61,1121.52H202.2l-.14-.82L103.15,538l38.08-36.3L559.67,102.88,1034.4,557.23l-.1.56Zm-734.87-2H937.07L1032.39,558,559.66,105.56,105.16,538.78Z" transform="translate(0)"/><g class="cls-4"><polygon class="cls-5" points="250.33 1126.85 202.97 1126.85 104.16 544.73 141.84 508.81 250.33 1126.85"/></g><g class="cls-6"><polygon class="cls-7" points="1020.93 637.32 937.84 1126.85 914.14 1126.85 1000.43 618.54 1020.93 637.32"/></g><polygon class="cls-8" points="1127.38 550.12 1083.83 612.2 1033.39 563.93 559.66 110.55 104.16 544.73 58.66 588.09 6.48 534.29 559.65 7.02 1127.38 550.12"/><g class="cls-6"><path class="cls-7" d="M558.31,111.83h0L104.16,544.73l-45.5,43.36-14.74-15.2,43.57-41.53,451-420.71A13.55,13.55,0,0,1,558.31,111.83Z" transform="translate(0)"/></g><g class="cls-6"><path class="cls-7" d="M1127.38,550.12l-43.55,62.08,10.73-17.52,7.88-27.85a19.63,19.63,0,0,0-3.71-23.19l-556.49-520L6.5,534.31l0,0L559.65,7Z" transform="translate(0)"/></g><g class="cls-4"><path class="cls-5" d="M915,1053.7H225c-22.64,0-41-2.7-41-6s18.36-6,41-6H915c22.64,0,41,2.69,41,6S937.65,1053.7,915,1053.7Z" transform="translate(0)"/></g><g class="cls-4"><path class="cls-5" d="M657.11,209.82H461.82a6,6,0,0,1,0-12H657.11a6,6,0,0,1,0,12Z" transform="translate(0)"/></g><g class="cls-4"><path class="cls-5" d="M777.19,324.74H341.26a6,6,0,0,1,0-12H777.19a6,6,0,0,1,0,12Z" transform="translate(0)"/></g><g class="cls-4"><path class="cls-5" d="M917,458.54H727.25a6,6,0,0,1,0-12H917a6,6,0,0,1,0,12Z" transform="translate(0)"/></g><g class="cls-4"><path class="cls-5" d="M389.1,458.54H200.87a6,6,0,0,1,0-12H389.1a6,6,0,0,1,0,12Z" transform="translate(0)"/></g><g class="cls-4"><path class="cls-5" d="M771.57,597a6,6,0,0,1-.16-12l258.67-8.37a5.75,5.75,0,0,1,5.72,5.82,5.84,5.84,0,0,1-5.39,6.2l-258.67,8.37Z" transform="translate(0)"/></g><g class="cls-4"><path class="cls-5" d="M115.6,618.21a6,6,0,0,1-.16-12l229.39-7.43a6,6,0,0,1,.33,12l-229.39,7.43Z" transform="translate(0)"/></g><g class="cls-4"><path class="cls-5" d="M135.91,737.88a6,6,0,0,1-.16-12l246-8a6,6,0,0,1,.33,12l-246,8Z" transform="translate(0)"/></g><g class="cls-4"><path class="cls-5" d="M741.32,718.24a6,6,0,0,1-.17-12l268.37-8.7a5.75,5.75,0,0,1,5.72,5.83,5.84,5.84,0,0,1-5.38,6.2l-268.37,8.69Z" transform="translate(0)"/></g><g class="cls-4"><path class="cls-5" d="M158.5,870.92a5.77,5.77,0,0,1-5.54-5.73,5.84,5.84,0,0,1,5.28-6.29l826.89-42.73a5.76,5.76,0,0,1,5.81,5.73,5.85,5.85,0,0,1-5.28,6.29L158.77,870.91Z" transform="translate(0)"/></g><g class="cls-4"><polygon class="cls-5" points="1020.94 637.34 503.94 163.67 559.66 110.55 1033.39 563.99 1020.94 637.34"/></g><g class="cls-4"><path class="cls-5" d="M177.61,983.48a5.78,5.78,0,0,1-5.55-5.75,5.84,5.84,0,0,1,5.3-6.27L969.53,932.6a6,6,0,0,1,.42,12L177.86,983.47Z" transform="translate(0)"/></g><ellipse class="cls-9" cx="558.17" cy="593.55" rx="213.44" ry="231.05"/><g class="cls-6"><path class="cls-7" d="M718,746.62c26.3-38.4,41.85-86,41.85-137.43,0-127.6-95.57-231.05-213.45-231.05-63.53,0-120.6,30.07-159.69,77.75,38.89-56.66,101.18-93.38,171.41-93.38,117.9,0,213.45,103.43,213.45,231C771.61,652.25,751.37,705.87,718,746.62Z" transform="translate(0)"/></g><path class="cls-5" d="M558.17,831.61c-121.26,0-219.92-106.79-219.92-238.06s98.66-238.07,219.92-238.07S778.1,462.28,778.1,593.55,679.44,831.61,558.17,831.61Zm0-462.09c-114.11,0-207,100.5-207,224s92.85,224,207,224,207-100.5,207-224S672.29,369.52,558.17,369.52Z" transform="translate(0)"/><ellipse class="cls-10" cx="559.37" cy="594.41" rx="164.04" ry="177.56"/><path class="cls-5" d="M937.84,1133.86H203a6.65,6.65,0,0,1-6.38-5.75L97.78,546a7,7,0,0,1,5.2-8.16,6.54,6.54,0,0,1,7.55,5.63l97.84,576.36H932.44L1027,562.67a6.53,6.53,0,0,1,7.54-5.63,7,7,0,0,1,5.2,8.17l-95.55,562.9A6.65,6.65,0,0,1,937.84,1133.86Z" transform="translate(0)"/><path class="cls-5" d="M1083.83,619.22a6.2,6.2,0,0,1-4.29-1.76L559.66,119.9,63,593.35a6.13,6.13,0,0,1-8.75-.18L2,539.37a7.37,7.37,0,0,1-2-5.22A7.26,7.26,0,0,1,2.2,529L555.36,1.75a6.12,6.12,0,0,1,8.58,0l567.73,543.1a7.44,7.44,0,0,1,.87,9.5L1089,616.45a6.37,6.37,0,0,1-4.52,2.74C1084.26,619.21,1084,619.22,1083.83,619.22ZM559.66,103.53a6.22,6.22,0,0,1,4.3,1.76L1082.89,602l35.69-50.89L559.64,16.37,16.08,534.49l42.76,44.09,496.54-473.3A6.19,6.19,0,0,1,559.66,103.53Z" transform="translate(0)"/><path class="cls-11" d="M956,416" transform="translate(0)"/><path class="cls-7" d="M922.55,390.66" transform="translate(0)"/><path class="cls-12" d="M359.32,414.27S348,479,391,477.29s26.26-48,71.75-55.18,230.77,1.72,230.77,1.72,23.26,51.7,59.21,44.33,13-76.7-62.07-92.54S375.18,385,359.32,414.27Z" transform="translate(0)"/><path class="cls-13" d="M826.85,355.05c2.83-2.37,6-4.61,8.41-7.38a46.93,46.93,0,0,0,12-23.75c2.42-11.69-1.83-25.66-8.56-36.14a43.83,43.83,0,0,0-19.23-19.72c-24.32-17.89-54.23-19.77-71.65,12.61a.2.2,0,0,0,0,.13c-.47.52-.93,1-1.37,1.55a28.23,28.23,0,0,0-1.8,2.38c-1.12.43-2.32.74-3.43,1.08-40.49,1.69-81.09,3.46-121.72,5-38.76-.12-25.46-.27-64.24-1.35-41-1.15-10-3.06-51.09-3.41-22-.18-43.65-.42-65.38-4.82-11.26-2.25-24.64-4.92-35.61-10.51-9.3-15.11-26.36-26.53-41.89-23.47-24.55,4.86-50.91,25.32-55,49.95-1.72,6.31-2.38,12.8-1.27,18.74a47.86,47.86,0,0,0,11.6,24c2.43,2.82,5.53,5.15,8.37,7.6,13.19,11.53,11,19.32,1.86,30.9-26.52,33.51-5.35,77.75,34.17,86.2,17.93,3.82,37-3.47,51.38-13.7,12-8.54,16.9-22,18.82-36,14.37-11,31.22-9.73,49.81-8.9,17.28.79,14.47-.27,31.72-.8,34.82-1.09,18-1.11,52.89-.87,35.84.24,19.53-1.8,55.35-.84,17.89.48,35.75,1.69,53.54,3.38,9.48.91,18.91,1.63,28.09,4.43,5.88,1.79,11.27,5.85,17.06,8.48,1.72,14.07,6.39,27.66,18.25,36.47C752,466.9,771,474.66,789,471.25c39.63-7.48,61.47-51.19,35.48-85.34C815.5,374.1,813.44,366.29,826.85,355.05Z" transform="translate(0)"/><path class="cls-14" d="M795,342.08c-.56,1.59-1.11,3.16-1.69,4.75a20.69,20.69,0,0,0-.69,9.28c1.15,3.72,3.72,7.25,6.53,10.31a15.56,15.56,0,0,1,1.62-6.26c10.51-21.28,42.87-27.41,33.53-58.86C826.13,273.64,792.84,263,768.13,276c-12.15,6.41-18,16.09-22.81,27.87a50.35,50.35,0,0,0-7.1,15.65A112.74,112.74,0,0,0,736,332.28a1,1,0,0,1-1.24-.22c-6.51-7.43-2.26-23.48,3.46-35.87-11.34,3.53-23.95,3.12-36,3.47-23,.66-46,.67-69,.56-9.15,0-18.37-.07-27.52-.14-42.55,1.44-32.92,4.58-75.55,4-41.25-.64-10.82-1-52-3.84-17.52-1.22-34.1-4.73-51.38-7.59-6.39-1.05-12.42-2.23-17.12-5.58,1.38,7.54.47,15.09-3.72,21.58a2.71,2.71,0,0,1-1.87,1.17c-1.12-.52-1.85-1.81-2.43-3.72a.85.85,0,0,1-.08-.35,2.52,2.52,0,0,1,.75-1.09c1.27-14-6.83-31.78-19.09-41.86-9.27-6.67-19.35-9.53-33.94-2.22-15.51,7.75-32.2,19.39-34.88,38.33-2.86,20.25,8.13,30.55,21.78,42.63a70,70,0,0,1,5.81,5.44,30.2,30.2,0,0,0-2.34-19.11c-2.92-6.36-2.55-4.85-3.82-11.8-.37-2,2.54-5.11,4.18-2.83,8.3,11.53,16.39,19.57,11.55,34.58a112,112,0,0,1-5,12.48c-1,7.26-4.27,13.08-8.84,19.07-4.5,10.7-7.49,21.65-4.75,32.95,6.3,25.91,27.84,41,54.49,32.4a49.76,49.76,0,0,0,18.94-10.84,56.8,56.8,0,0,0,23.55-46,2.77,2.77,0,0,1,.51,1.42c1.18.52,2,1.73,2,4,0,4.83-.09,9.88-.47,14.95,17.16-13.92,40.78-8.72,64.82-9,42.81-.6,13.75-2.65,56.55-2.16,43.14.49,34.13-2.37,77.31-.56,28.75,1.24,63-1,88.34,14.95-.24-4.51-.24-9-.17-13.29,0-.14.06-.2.06-.33a66.82,66.82,0,0,0,10.15,24.45,79.32,79.32,0,0,0,3.92,8.26c2.92,9.23,8.5,17.19,19.17,23.43,18.36,10.72,40.37,7.36,56.59-4.84a44.87,44.87,0,0,0,10.75-11.44c1.66-7.86,2.52-16,.51-23.48s-5.26-14.05-8.73-20.65c-5.76-5-10.65-11.44-15.73-16.91-4.47-4.81-8.83-9.76-10.45-16.33a19.35,19.35,0,0,1,.71-10.5,27.51,27.51,0,0,1,5.3-7.85l.58-.58a30.28,30.28,0,0,1,4.13-3.27,38.63,38.63,0,0,1,3.81-1.74c-.15.21-.28.41-.41.63a2.14,2.14,0,0,1-1.72.94C797.76,339.3,797,340.7,795,342.08Z" transform="translate(0)"/><path class="cls-15" d="M795,342.08c-.56,1.59-1.11,3.16-1.69,4.75a20.69,20.69,0,0,0-.69,9.28c1.15,3.72,3.72,7.25,6.53,10.31a15.56,15.56,0,0,1,1.62-6.26c8.59-17.38,31.73-24.66,34.87-43.89-5.33,2.2-10.86,2.79-16.3.65-5.88-2.33-12.29-2.8-18-5.22-9-3.89-21,8-25,15.13-6.89,12.22-7.68,24.05-4.83,37.57,1.64,7.85,4.12,16.51,2.87,24.54-1.35,8.9-13.63,25.42-23.45,15.91-5.36-5.25-6.33-12.79-10.36-18.87-2.61-4-3.85-10.75-8.45-12.21-24.53-7.78-48.24-5.6-73.51-5-29,.6-58.3-1.44-87.35-1.48-29.63-.06-7.17.35-36.76,1.09-32,.82,7.93,3.22-24.1,3.79-14.67.25-29.65,0-44-3.46-10.51-2.55-21.89-10-32.82-10-8.33,0-13.22,8.44-18.49,13.88-5.74,6-11.87,12.26-19.74,15.29-10.23,3.93-18.72-.37-23.19-10.42-5.72-13-7-27.54-9.08-41.46-2.12-14.36-5.86-45.37-25.41-44.56-6.74.27-13.62,2.25-17.74-4.95l-.72-1.4a35.88,35.88,0,0,0-5,13.82c-2.86,20.25,8.13,30.55,21.78,42.63a70,70,0,0,1,5.81,5.44,30.2,30.2,0,0,0-2.34-19.11c-2.92-6.36-2.55-4.85-3.82-11.8-.37-2,2.54-5.11,4.18-2.83,8.3,11.53,16.39,19.57,11.55,34.58a112,112,0,0,1-5,12.48c-1,7.26-4.27,13.08-8.84,19.07-4.5,10.7-7.49,21.65-4.75,32.95,6.3,25.91,27.84,41,54.49,32.4a49.76,49.76,0,0,0,18.94-10.84,56.8,56.8,0,0,0,23.55-46,2.77,2.77,0,0,1,.51,1.42c1.18.52,2,1.73,2,4,0,4.83-.09,9.88-.47,14.95,17.16-13.92,40.78-8.72,64.82-9,42.81-.6,13.75-2.65,56.55-2.16,43.14.49,34.13-2.37,77.31-.56,28.75,1.24,63-1,88.34,14.95-.24-4.51-.24-9-.17-13.29,0-.14.06-.2.06-.33a66.82,66.82,0,0,0,10.15,24.45,79.32,79.32,0,0,0,3.92,8.26c2.92,9.23,8.5,17.19,19.17,23.43,18.36,10.72,40.37,7.36,56.59-4.84a44.87,44.87,0,0,0,10.75-11.44c1.66-7.86,2.52-16,.51-23.48s-5.26-14.05-8.73-20.65c-5.76-5-10.65-11.44-15.73-16.91-4.47-4.81-8.83-9.76-10.45-16.33a19.35,19.35,0,0,1,.71-10.5,27.51,27.51,0,0,1,5.3-7.85l.58-.58a30.28,30.28,0,0,1,4.13-3.27,38.63,38.63,0,0,1,3.81-1.74c-.15.21-.28.41-.41.63a2.14,2.14,0,0,1-1.72.94C797.76,339.3,797,340.7,795,342.08Z" transform="translate(0)"/><path class="cls-16" d="M530.36,341.62a19.75,19.75,0,0,0-8.37-15.5,20,20,0,0,0-18.17-1.9v-.31c0-4.21-6.36-4.68-6.5-.4-.19,6-.42,12-.63,18a5.1,5.1,0,0,0-.87,2.17,9.57,9.57,0,0,0,.63,4.61q-.46,13-.91,25.92a4.38,4.38,0,0,0,1.92,3.91,4.21,4.21,0,0,0,4.35.26,4.27,4.27,0,0,0,2.35-3.64c-.05-5.72-.07-11.43-.12-17.15.62.37,1.25.72,1.9,1,5.69,2.73,12.22,1.6,17.2-2.06A17.93,17.93,0,0,0,530.36,341.62Zm-10.9,7.52c-.31.27-.62.52-1,.76l-.24.16-.67.39c-.46.24-.93.45-1.41.66l-.13.05c-.29.09-.58.18-.88.25-.5.13-1,.21-1.52.29H513c-.51,0-1-.09-1.52-.13h0c-.3-.09-.61-.17-.91-.27s-1.06-.45-1.13-.45a11.66,11.66,0,0,1-1.27-.78c-.2-.14-1.38-1.18-.81-.61-.41-.41-.8-.82-1.17-1.27l-.47-.61,0,0a1.09,1.09,0,0,0-.08-.16c-.25-.5-.49-1.05-.76-1.54l0,0c-.08-.3-.18-.59-.25-.89-.14-.64-.24-1.24-.43-1.87-.06-.16-.15-.3-.22-.46,0-4-.06-8.08-.08-12.13a3.49,3.49,0,0,0,1-.24,13.89,13.89,0,0,1,11.64.4,12.19,12.19,0,0,1,6.37,9.33A10.22,10.22,0,0,1,519.46,349.14Z" transform="translate(0)"/><path class="cls-16" d="M585,329.16c-1.76-1.29-3.49-.79-5.46-.46l-5.6.93-10.82,1.79-19.55,3.24c-.51-3.3-1.07-6.59-1.82-9.82-.59-2.58-4.62-2.43-4.68.35-.19,8.46.68,17,1.3,25.42q.45,6.24.91,12.49c.16,2.16.31,4.32.48,6.48.18,2.42.37,4.54,2.62,5.95a3.49,3.49,0,0,0,4.2-.29,5.6,5.6,0,0,0,1.58-3,3.41,3.41,0,0,0,.51.15l14.12,1.21,6.93.6a45.59,45.59,0,0,0,7.56.36c3.27-.27,3.53-5.88.37-6.59a44.32,44.32,0,0,0-7.54-.68l-6.94-.38L549,366.14a3.25,3.25,0,0,0-1.07.16c-.23-1.34-.5-2.65-.65-3.8-.23-1.7-.45-3.39-.68-5.08a4,4,0,0,0,1.24.06l13.27-1.77,6.86-.91a21.41,21.41,0,0,0,3.19-.51,3.36,3.36,0,0,0,2.5-3.83c-.73-3.44-4.61-2.5-7.06-2.1l-6.82,1.09-13.19,2.12a2.29,2.29,0,0,0-.72.3l-.24-1.81c-.4-3-.78-6-1.17-9.07l20-3.09,10.84-1.68,5.62-.87c2-.31,3.54-.47,4.82-2.27A2.9,2.9,0,0,0,585,329.16Z" transform="translate(0)"/><path class="cls-16" d="M630.24,328.9a3.74,3.74,0,0,0-3.13-2.07c-11.9-.51-23.8-.94-35.71-1.41-3.83-.15-4.16,5.71-.33,6l14.57,1.21a3.38,3.38,0,0,0-.22.76c-.71,7.36-1.24,14.74-1.77,22.12l-.78,10.85-.39,5.43c-.16,2.23-.61,4.35.6,6.38a4.21,4.21,0,0,0,7.22.44c1.42-1.95,1.17-4,1.2-6.27l.07-5c0-3.77.1-7.55.16-11.32.1-7.41.21-14.81.13-22.22a3.15,3.15,0,0,0-.13-.64c5,.42,10,.85,15,1.24a3.66,3.66,0,0,0,3.34-1.68A3.73,3.73,0,0,0,630.24,328.9Z" transform="translate(0)"/><path class="cls-16" d="M640,361.8c1.28-9.07,10.28-17.7,27.5-15.14s23.44,13.45,22.15,22.53c-1.86,13.29-16.12,17-27.48,15.27S638.07,375.06,640,361.8Z" transform="translate(0)"/><path class="cls-16" d="M661.59,332.2a9.71,9.71,0,0,0-2.17-7.11c-2.11-2.34-5.71-2.33-8.37-1.31a9.92,9.92,0,0,0-3.39,2.33,14.63,14.63,0,0,0-6.4,7.35,8.53,8.53,0,0,0,1.36,8.36c1.71,2.32,5.55,2.72,8.12,2.47C656.65,343.64,661.4,338.14,661.59,332.2Z" transform="translate(0)"/><path class="cls-16" d="M681.06,328.65a8.16,8.16,0,0,0-3.45-.11,7.7,7.7,0,0,0-4.7.56c-5,2.38-8.67,9.83-4,14.43,4,4,10.9,2,14.41-1.47C687.77,337.69,687.46,330.54,681.06,328.65Z" transform="translate(0)"/><path class="cls-16" d="M699.72,350.33a4.64,4.64,0,0,0-2.49-4.92,4.77,4.77,0,0,0-4.79.13h-.06s0,0,0,.06a3,3,0,0,0-.44.22,7.64,7.64,0,0,0-3.88,4.25c-.69,1.82-.38,4.72,1.71,5.53a7.49,7.49,0,0,0,.77.23,4.26,4.26,0,0,0,2.73.29,7.24,7.24,0,0,0,.86-.3C696.83,355.19,699.35,353.21,699.72,350.33Z" transform="translate(0)"/></g></g></svg>