<svg id="Capa_1" data-name="Capa 1" xmlns="http://www.w3.org/2000/svg" viewBox="0 0 1125.36 1062.06"><defs><style>.cls-1{fill:#010101;}.cls-2{fill:#b93818;}.cls-3{fill:#e94647;}.cls-4{fill:#cd2522;}.cls-5{fill:#fff;}.cls-6{fill:#d9dadb;}.cls-7{fill:#ffce05;}.cls-8{fill:#fbb82c;}</style></defs><title>hozpitalizacion</title><path class="cls-1" d="M729.67,41.33h-167v98.54h167c7.07,0,12.82,6.29,12.82,14v259c0,7.72-5.75,14-12.82,14h-167v98.54h167c56.79,0,103-50.49,103-112.55v-259C832.66,91.82,786.46,41.33,729.67,41.33Z" transform="translate(0 -41.33)"/><path class="cls-1" d="M414.18,426.92c-7.07,0-12.82-6.29-12.82-14v-259c0-7.72,5.75-14,12.82-14h148.5V41.33H414.18c-56.79,0-103,50.49-103,112.55v259c0,62.06,46.19,112.55,103,112.55h148.5V426.92Z" transform="translate(0 -41.33)"/><path class="cls-2" d="M61.94,238.35C27.73,238.35,0,268.66,0,306.05v729.64c0,37.39,27.73,67.7,61.94,67.7H562.68v-865Z" transform="translate(0 -41.33)"/><path class="cls-2" d="M1063.41,238.35H562.68v865h500.73c34.21,0,61.95-30.31,61.95-67.7V306.05C1125.36,268.66,1097.62,238.35,1063.41,238.35Z" transform="translate(0 -41.33)"/><path class="cls-3" d="M61.94,283.39c-11.43,0-20.72,10.17-20.72,22.66v729.64c0,12.49,9.29,22.65,20.72,22.65H562.68V283.39Z" transform="translate(0 -41.33)"/><path class="cls-4" d="M1063.41,283.39H562.68v774.95h500.73c11.43,0,20.73-10.16,20.73-22.65V306.05C1084.14,293.56,1074.84,283.39,1063.41,283.39Z" transform="translate(0 -41.33)"/><polygon class="cls-5" points="445.72 291.46 445.72 493.63 260.61 493.63 260.61 769.59 445.72 769.59 445.72 971.76 562.68 971.76 562.68 291.46 445.72 291.46"/><polygon class="cls-6" points="698.14 493.63 698.14 291.46 562.68 291.46 562.68 971.76 698.14 971.76 698.14 769.59 883.24 769.59 883.24 493.63 698.14 493.63"/><path class="cls-7" d="M557.77,646v148.8a25.29,25.29,0,0,1,3.59-.27c19,0,30.51,12.65,50.54,12.07,10.32-.31,44.86-8.93,44.86-44.89C656.76,720.55,616.94,646,557.77,646Z" transform="translate(0 -41.33)"/><path class="cls-7" d="M460.74,772c5,32.62,31.36,44.84,58.6,36.4,20.47-6.34,29.37-12.38,38.43-13.69V646C505.43,646,453.21,723.07,460.74,772Z" transform="translate(0 -41.33)"/><path class="cls-8" d="M411.43,672.41c15.69,21.88,40.82,29,56.12,15.89l-56.83-79.24C395.42,622.17,395.74,650.53,411.43,672.41Z" transform="translate(0 -41.33)"/><path class="cls-7" d="M410.72,609.06l56.83,79.24c15.31-13.11,15-41.48-.71-63.36S426,596,410.72,609.06Z" transform="translate(0 -41.33)"/><path class="cls-8" d="M483.67,591.51c2.86,27.63,20.85,48.08,40.17,45.68l-10.39-100C494.13,539.55,480.8,563.89,483.67,591.51Z" transform="translate(0 -41.33)"/><path class="cls-7" d="M513.45,537.15l10.39,100c19.32-2.39,32.65-26.73,29.78-54.35S532.77,534.76,513.45,537.15Z" transform="translate(0 -41.33)"/><path class="cls-8" d="M569,570.46c-6.9,26.76,2.67,53.13,21.38,58.89l25-96.9C596.64,526.68,575.88,543.7,569,570.46Z" transform="translate(0 -41.33)"/><path class="cls-7" d="M615.36,532.45l-25,96.9c18.72,5.77,39.48-11.25,46.38-38S634.07,538.21,615.36,532.45Z" transform="translate(0 -41.33)"/><path class="cls-8" d="M637.61,629.35c-11.16,25-6,52.8,11.44,62.11L689.44,601C672,591.66,648.76,604.36,637.61,629.35Z" transform="translate(0 -41.33)"/><path class="cls-7" d="M689.44,601l-40.39,90.49c17.48,9.32,40.69-3.38,51.84-28.37S706.91,610.29,689.44,601Z" transform="translate(0 -41.33)"/></svg>