<?xml version="1.0" encoding="utf-8"?>
<!-- Generator: Adobe Illustrator 28.3.0, SVG Export Plug-In . SVG Version: 6.00 Build 0)  -->
<svg version="1.1" id="Capa_1" xmlns="http://www.w3.org/2000/svg" xmlns:xlink="http://www.w3.org/1999/xlink" x="0px" y="0px"
	 viewBox="0 0 295 350" style="enable-background:new 0 0 295 350;" xml:space="preserve">
<style type="text/css">
	.st0{fill:#3EBBD2;}
	.st1{fill:#59BBA9;}
	.st2{fill:#008CC1;}
	.st3{fill:#056A92;}
</style>
<g>
	<path class="st0" d="M104.86,91.31c-4.28,5.8-8.67,11.53-13.87,16.66c-2.6,2.55-5.33,5.04-8.37,7.17c-1.52,1.06-3.08,2.09-4.71,3
		c-0.75,0.44-1.73,0.96-2.49,1.33c-0.79,0.39-1.54,0.79-2.47,1.17c-3.53,1.58-7.03,2.61-10.65,3.44c-3.6,0.81-7.23,1.33-10.84,1.68
		c-7.23,0.65-14.37,0.48-21.36,0.36l4.77-3.03c-0.73,1.96-0.95,4.06-0.66,6.28c0.29,2.21,1.14,4.51,2.41,6.61
		c1.26,2.11,2.9,4.05,4.76,5.65c0.92,0.82,1.93,1.49,2.93,2.15c0.28,0.2,1.21,0.7,1.78,1.03l1.62,0.8
		c4.77,2.19,10.26,3.38,16.03,4.31l8.87,1.51c2.99,0.54,6.16,1.21,9.22,2.09c6.14,1.73,12.41,4.49,17.61,9.21
		c1.27,1.2,2.5,2.46,3.58,3.88l0.8,1.06l0.24,0.32l0.08,0.12l0.15,0.25l0.3,0.49c0.4,0.69,0.8,1.25,1.21,2.05
		c1.8,3.48,2.64,6.77,3.15,10.24c0.48,3.44,0.34,6.86-0.14,10.16c-0.46,3.31-1.44,6.46-2.53,9.49c-2.32,6.04-5.75,11.45-9.9,16.02
		c3-5.45,5.22-11.23,6.45-17.13c0.58-2.95,1.03-5.91,0.99-8.83c-0.05-2.91-0.19-5.8-0.93-8.48c-0.69-2.64-1.84-5.31-3.12-7.21
		c-0.34-0.55-0.88-1.22-1.31-1.83l-0.34-0.47l-0.17-0.23l-0.09-0.12c0.27,0.37,0.06,0.09,0.12,0.17l-0.02-0.02l-0.04-0.04
		l-0.66-0.72c-0.87-0.96-1.86-1.81-2.88-2.61c-4.17-3.14-9.37-4.95-14.79-6.24c-5.42-1.27-11.24-1.66-17.32-2.52
		c-6.05-0.88-12.44-2.04-18.71-4.76l-2.45-1.16c-0.74-0.42-1.16-0.6-2.16-1.21c-1.57-0.95-3.03-2.05-4.38-3.27
		c-2.71-2.42-5.04-5.27-6.88-8.49c-1.85-3.22-3.21-6.87-3.67-10.86c-0.5-3.96,0.04-8.29,1.79-12.02l1.54-3.29l3.23,0.25
		c6.94,0.54,13.75,0.95,20.45,0.87c3.35-0.02,6.68-0.19,9.95-0.62c3.25-0.42,6.54-1.16,9.57-2.02c0.74-0.18,1.59-0.5,2.41-0.79
		c0.87-0.29,1.47-0.52,2.29-0.87c1.53-0.62,3.03-1.36,4.51-2.14c2.96-1.59,5.88-3.39,8.68-5.43
		C94.03,100.61,99.41,95.93,104.86,91.31z"/>
	<path class="st1" d="M123.13,73.82c-1.34-1.24-2.7-2.46-4.02-3.6c-1.36-1.14-2.7-2.26-4.1-3.29c-1.38-1.06-2.78-2.05-4.22-2.98
		c-1.43-0.93-2.86-1.84-4.33-2.66c-1.49-0.79-2.97-1.58-4.46-2.32c-1.51-0.71-3.04-1.35-4.59-1.94c-1.54-0.6-3.11-1.11-4.68-1.61
		c-1.57-0.48-3.17-0.85-4.76-1.23l3.43-5.99c2.2,2.81,4.14,5.84,5.67,9.08c0.76,1.62,1.46,3.27,2.09,4.94
		c0.64,1.67,1.09,3.41,1.54,5.13c0.88,3.45,1.31,7.01,1.42,10.53c0,1.77-0.02,3.52-0.19,5.27c-0.17,1.74-0.46,3.47-0.84,5.16
		l-1.07-5.03c-0.41-1.64-0.78-3.27-1.26-4.86c-0.47-1.59-0.93-3.16-1.48-4.7c-0.59-1.53-1.11-3.05-1.73-4.54
		c-0.62-1.49-1.35-2.91-2.01-4.36c-0.71-1.43-1.46-2.82-2.27-4.18c-0.84-1.34-1.66-2.67-2.54-3.97c-0.91-1.27-1.82-2.54-2.79-3.76
		l-6.4-7.98l9.83,1.99c3.67,0.74,7.24,1.94,10.63,3.51c1.68,0.82,3.32,1.73,4.93,2.69c1.59,0.98,3.15,2.03,4.61,3.2
		c1.45,1.18,2.87,2.4,4.21,3.7c1.3,1.35,2.55,2.74,3.73,4.18c1.13,1.5,2.2,3.02,3.17,4.61l1.36,2.45L123.13,73.82z"/>
	<path class="st2" d="M112.61,104.56c0,0-17.06,0.77-17.65,7.12C94.37,118.02,103.27,118.49,112.61,104.56z"/>
	<path class="st2" d="M137.09,41.43c0,0,13.8,28.78,16.02,39.92s-25.37,4.19-25.37,4.19S132.2,30.82,137.09,41.43z"/>
	<path class="st3" d="M30.91,136.44c0,0,18.54-5.82,10.07-15.13l-10.66-0.39L30.91,136.44z"/>
	<path class="st0" d="M201.71,129.55c12.58,0.95,25.18,4.32,36.76,10.37c5.77,3.05,11.28,6.76,16.33,11.15
		c2.53,2.19,4.89,4.6,7.15,7.14c1.11,1.36,2.09,2.51,3.29,4.07c0.94,1.35,1.88,2.57,2.82,4.01c3.89,6.02,6.73,12.23,8.82,18.99
		c1.99,6.73,3.08,13.79,3.12,20.95c0.03,7.15-1.01,14.4-3.32,21.33c-0.65,1.7-1.27,3.42-2,5.1l-1.22,2.45l-0.62,1.23l-0.15,0.31
		l-0.08,0.15l-0.04,0.08l-0.19,0.33l-0.32,0.52c-0.87,1.4-1.64,2.74-2.6,4.18l-3.39,4.54c-4.55,5.56-9.94,10.19-15.63,14.06
		c-5.7,3.86-11.68,7.05-17.79,9.64c-6.1,2.62-12.26,4.8-18.41,6.77c-6.18,1.99-12.25,3.69-18.29,5.49
		c-11.75,3.64-23.41,7.54-33.68,13.38c-10.31,5.75-18.96,13.69-24.14,23.77L130.18,335l-4.26-16.33c-1.04-3.97-2.19-7.92-2.69-11.97
		c-0.35-2.01-0.65-4.03-0.72-6.06c-0.11-2.03-0.34-4.05-0.34-6.07l0.11-6.05c0.04-2.02,0.35-4,0.52-6c0.15-2.01,0.45-3.98,0.85-5.94
		c0.41-1.95,0.67-3.94,1.22-5.86l1.57-5.75c0.56-1.9,1.3-3.74,1.94-5.61c0.62-1.88,1.39-3.69,2.22-5.49
		c0.84-1.78,1.51-3.64,2.49-5.35l2.8-5.18c0.99-1.69,2.1-3.31,3.15-4.95c1.01-1.68,2.21-3.22,3.43-4.74
		c1.24-1.51,2.33-3.12,3.71-4.5l3.97-4.25l4.32-3.87c1.39-1.34,3.02-2.4,4.55-3.55c1.55-1.15,3.08-2.3,4.78-3.21
		c1.67-0.95,3.28-1.98,4.99-2.84c1.6-0.79,3.43-1.61,5.08-2.32l10.08-4.11c3.3-1.35,6.52-2.8,9.62-4.45
		c3.05-1.62,6.05-3.59,8.64-5.94c2.63-2.34,4.95-5.09,6.79-8.19c1.81-3.12,2.99-6.67,3.29-10.42c0.3,3.75-0.42,7.62-1.88,11.17
		c-1.46,3.56-3.6,6.81-6.13,9.67c-2.54,2.91-5.41,5.36-8.53,7.54c-3.08,2.17-6.34,3.98-9.57,5.73l-9.57,5.1
		c-1.59,0.89-3,1.69-4.56,2.67l-4.25,2.94c-1.45,0.92-2.75,2.07-4.05,3.21c-1.29,1.15-2.67,2.18-3.82,3.5l-3.59,3.76l-3.25,4.08
		c-1.14,1.3-2,2.86-3,4.28c-0.97,1.44-1.96,2.88-2.78,4.43c-0.85,1.53-1.77,3.01-2.56,4.57l-2.24,4.76
		c-0.79,1.56-1.29,3.26-1.95,4.88c-0.65,1.63-1.25,3.27-1.7,4.97c-0.47,1.69-1.04,3.35-1.45,5.05l-1.1,5.13
		c-0.4,1.7-0.51,3.46-0.78,5.18c-0.3,1.72-0.5,3.45-0.57,5.19c-0.08,1.73-0.31,3.47-0.28,5.19l0.07,5.18
		c0.05,1.72,0.32,3.42,0.46,5.13c0.11,1.72,0.43,3.39,0.77,5.06c0.5,3.38,1.6,6.57,2.52,9.81l-12.21-0.88
		c3.11-6.68,7.49-12.7,12.6-17.69c5.08-5.02,10.78-9.12,16.66-12.55c11.83-6.82,24.23-11.28,36.65-14.84
		c6.08-1.74,12.19-3.38,18.06-5.19c5.9-1.82,11.69-3.79,17.26-6.11c5.55-2.35,10.95-4.89,15.91-8.03c4.95-3.13,9.49-6.79,13.27-11.1
		l2.54-3.12c0.88-1.22,1.78-2.67,2.67-3.99c0.53-0.83,1.31-2.39,1.96-3.55l1.77-3.93c2.12-5.37,3.31-11.23,3.61-17.2
		c0.3-5.97-0.3-12.06-1.7-17.97c-1.31-5.88-3.56-11.81-6.32-16.94c-0.72-1.34-1.65-2.77-2.46-4.14l-2.54-3.67
		c-1.87-2.43-3.83-4.8-5.93-7.05c-4.23-4.49-9.01-8.47-14.18-11.91C225.76,137.37,214.01,132.47,201.71,129.55z"/>
	<path class="st1" d="M117.61,295.57c0,0-0.6,0.02-1.71,0.05c-1.12-0.01-2.75,0.21-4.86-0.05c-2.13-0.1-4.69-0.46-7.6-1.06
		c-1.44-0.39-2.97-0.8-4.59-1.23c-1.6-0.51-3.23-1.2-4.97-1.84c-3.36-1.53-7.01-3.32-10.51-5.84c-3.59-2.38-7.05-5.42-10.33-8.88
		c-3.23-3.51-6.25-7.5-8.79-11.92c-2.45-4.48-4.46-9.32-5.93-14.37c-1.21-4.89-1.94-10.39-2.05-15.5c-0.03-5.16,0.6-10.2,1.62-14.95
		c1.09-4.73,2.54-9.2,4.44-13.17c1.74-4.05,3.98-7.55,6.1-10.67c1.17-1.49,2.23-2.95,3.34-4.26c1.17-1.24,2.28-2.42,3.32-3.52
		c2.2-2.09,4.2-3.77,5.96-4.99c1.67-1.35,3.21-2.06,4.15-2.67c0.97-0.57,1.49-0.88,1.49-0.88s-0.44,0.42-1.27,1.21
		c-0.81,0.8-2.07,1.88-3.46,3.47c-1.48,1.49-3.06,3.51-4.87,5.78c-0.82,1.2-1.7,2.47-2.62,3.82c-0.84,1.39-1.71,2.86-2.63,4.39
		c-1.62,3.18-3.3,6.64-4.62,10.49c-1.44,3.8-2.35,8-3.19,12.32c-0.76,4.35-0.91,8.9-0.89,13.49c0.2,4.64,0.83,8.97,2.03,13.66
		c1.22,4.45,2.92,8.76,5.03,12.79c2.25,3.94,4.64,7.75,7.44,11.07c2.85,3.24,5.71,6.35,8.83,8.83c3.04,2.58,6.19,4.64,9.16,6.49
		c1.54,0.81,3.02,1.59,4.42,2.34c1.46,0.65,2.84,1.27,4.14,1.85c2.67,0.97,5.02,1.84,7.01,2.32c1.97,0.61,3.62,0.86,4.71,1.11
		C117.02,295.45,117.61,295.57,117.61,295.57z"/>
	<path class="st0" d="M177.28,221.17c-3.32,2.69-6.17,5.78-8.55,9.15c-1.17,1.7-2.23,3.47-3.16,5.28c-0.93,1.82-1.69,3.71-2.33,5.62
		l-3.73-3.08c3.45-2.84,7.38-5.13,11.53-6.5c4.14-1.41,8.36-2.31,12.56-2.74c8.43-0.91,16.5-0.75,24.64-0.85l7.59-0.1l-4.89,5.94
		c-1.85,2.25-3.76,4.43-5.64,6.65c-1.88,2.22-3.77,4.43-5.72,6.58c-3.84,4.36-7.78,8.65-11.8,12.86l-1.29-2.75
		c4.6,0.3,9.2,0.65,13.8,1.23c-4.56,0.88-9.13,1.53-13.7,2.13l-3.4,0.45l2.11-3.2c3.24-4.89,6.55-9.71,9.97-14.44
		c1.68-2.39,3.41-4.74,5.16-7.07c1.75-2.33,3.46-4.69,5.24-7l2.7,5.85l-12.2,0.4c-4.04,0.07-8.04,0.11-11.95,0.46
		c-3.9,0.34-7.76,0.75-11.43,1.78c-3.68,0.97-7.19,2.39-10.36,4.49l-7.77,5.15l4.04-8.24c2.02-4.12,4.63-7.88,7.83-10.93
		C169.68,225.18,173.36,222.74,177.28,221.17z"/>
	<path class="st0" d="M127.11,90.37c0.05-5.61,0.22-11.2,0.46-16.79c0.31-5.57,0.52-11.16,0.95-16.71
		c0.38-5.56,0.73-11.13,1.25-16.67c0.51-5.54,0.89-11.11,1.5-16.64l1.12-10.06l6.86,7.48c4.29,4.67,8.51,9.41,12.6,14.28
		c4.02,4.93,7.94,9.95,11.77,15.04c1.93,2.56,3.78,5.09,5.61,7.79l5.33,7.91c3.56,5.36,6.95,10.76,10.08,16.39
		c3.15,5.59,6.26,11.22,8.98,17.07c2.76,5.82,5.4,11.7,7.67,17.74c1.14,3.02,2.26,6.04,3.29,9.1c1.05,3.05,1.92,6.17,2.84,9.25
		c0.88,3.1,1.67,6.23,2.37,9.38c0.79,3.12,1.24,6.34,1.85,9.49c-5.07-11.77-10.46-23.16-16.33-34.25l-4.5-8.25
		c-1.52-2.74-3.06-5.45-4.67-8.13l-4.81-8.03c-1.63-2.66-3.26-5.31-4.96-7.92l-5.12-7.82c-1.73-2.59-3.43-5.21-5.2-7.74l-5.39-7.69
		l-5.43-7.56c-3.65-5.05-7.38-10.03-11.23-14.92c-3.77-4.95-7.61-9.85-11.57-14.66l7.98-2.58c-0.84,5.5-1.91,10.96-2.86,16.44
		c-0.94,5.48-2.04,10.94-3.11,16.4c-1.03,5.47-2.27,10.91-3.42,16.36C129.79,79.52,128.51,84.96,127.11,90.37z"/>
</g>
</svg>
