<svg id="Camada_1" data-name="Camada 1" xmlns="http://www.w3.org/2000/svg" viewBox="0 0 1417.22 681.37"><defs><style>.cls-1,.cls-6{fill:#3cbbd2;}.cls-2,.cls-5,.cls-7{fill:#2fd6b5;}.cls-3{fill:#008cc0;}.cls-4{fill:#016991;}.cls-5{font-size:74px;font-family:LTSaeada-SemiBold, LT Saeada;font-weight:600;}.cls-6{letter-spacing:-0.04em;}.cls-7{font-size:57px;font-family:Centaur;}</style></defs><title>file</title><path class="cls-1" d="M212.26,118.21A135.5,135.5,0,0,1,198.8,134.5a64.88,64.88,0,0,1-8.13,7,53,53,0,0,1-4.57,2.93c-.73.44-1.68.95-2.42,1.3s-1.49.78-2.39,1.14A54,54,0,0,1,171,150.24a84.77,84.77,0,0,1-10.52,1.64,192.27,192.27,0,0,1-20.73.36l4.63-3a12.88,12.88,0,0,0-.65,6.14,17.07,17.07,0,0,0,2.34,6.46,22.7,22.7,0,0,0,4.62,5.52,23.35,23.35,0,0,0,2.84,2.1c.28.19,1.18.68,1.73,1l1.58.78c4.64,2.14,10,3.3,15.56,4.21L181,177a91,91,0,0,1,8.94,2,41.75,41.75,0,0,1,17.1,9,31.27,31.27,0,0,1,3.47,3.79l.78,1,.23.32.07.12.15.24.29.48c.39.68.77,1.22,1.17,2a31.07,31.07,0,0,1,3.06,10,35.46,35.46,0,0,1-.14,9.93,46,46,0,0,1-2.45,9.27A50.36,50.36,0,0,1,204,240.86a60.68,60.68,0,0,0,6.25-16.75,42.35,42.35,0,0,0,1-8.63,34.21,34.21,0,0,0-.91-8.29,24.55,24.55,0,0,0-3-7.05c-.34-.54-.86-1.19-1.28-1.78l-.33-.46-.16-.22-.09-.12.12.17,0,0,0-.05-.64-.7a22.53,22.53,0,0,0-2.8-2.55c-4-3.07-9.1-4.84-14.36-6.1s-10.91-1.63-16.81-2.47-12.08-2-18.16-4.65l-2.38-1.14c-.72-.4-1.12-.58-2.1-1.17a28.31,28.31,0,0,1-4.25-3.2,33.12,33.12,0,0,1-6.68-8.3,27.72,27.72,0,0,1-3.57-10.61A21.9,21.9,0,0,1,135.51,145l1.49-3.21,3.14.24c6.73.53,13.34.93,19.85.85a77.45,77.45,0,0,0,9.66-.61,63.79,63.79,0,0,0,9.29-2c.71-.18,1.54-.49,2.34-.78s1.43-.51,2.22-.85c1.49-.61,2.94-1.33,4.38-2.09a73.24,73.24,0,0,0,8.43-5.31C201.75,127.3,207,122.73,212.26,118.21Z" transform="translate(-79.45 -42.17)"/><path class="cls-2" d="M230,101.12c-1.3-1.21-2.62-2.41-3.9-3.52s-2.63-2.21-4-3.22-2.7-2-4.09-2.91-2.78-1.79-4.21-2.6-2.88-1.55-4.33-2.27-3-1.31-4.46-1.89-3-1.09-4.54-1.57-3.08-.83-4.62-1.2l3.33-5.86a48,48,0,0,1,5.5,8.88c.74,1.59,1.41,3.2,2,4.83a50.38,50.38,0,0,1,2.87,15.31c0,1.73,0,3.44-.19,5.15a40.39,40.39,0,0,1-.81,5l-1-4.91c-.4-1.61-.75-3.2-1.22-4.76s-.9-3.09-1.43-4.59-1.08-3-1.68-4.44-1.32-2.85-2-4.26-1.42-2.76-2.2-4.08-1.61-2.61-2.47-3.88-1.76-2.48-2.71-3.67l-6.21-7.8,9.54,1.94a46.36,46.36,0,0,1,10.32,3.44c1.64.8,3.23,1.68,4.79,2.62A44.26,44.26,0,0,1,216.79,84c1.41,1.16,2.79,2.34,4.09,3.62s2.47,2.68,3.62,4.09a54.12,54.12,0,0,1,3.07,4.5l1.32,2.4Z" transform="translate(-79.45 -42.17)"/><path class="cls-3" d="M219.79,131.17s-16.56.75-17.14,7S210.72,144.78,219.79,131.17Z" transform="translate(-79.45 -42.17)"/><path class="cls-3" d="M243.55,69.47s13.39,28.12,15.55,39-24.63,4.1-24.63,4.1S238.8,59.1,243.55,69.47Z" transform="translate(-79.45 -42.17)"/><path class="cls-4" d="M140.49,162.32s18-5.69,9.77-14.79l-10.34-.38Z" transform="translate(-79.45 -42.17)"/><path class="cls-1" d="M306.27,155.59A91.44,91.44,0,0,1,342,165.73a83.37,83.37,0,0,1,15.85,10.9,72.39,72.39,0,0,1,6.93,7c1.08,1.33,2,2.46,3.2,4,.91,1.31,1.83,2.51,2.74,3.92a72.24,72.24,0,0,1,11.58,39A65.3,65.3,0,0,1,379,251.38c-.62,1.66-1.23,3.34-1.94,5l-1.18,2.4-.6,1.19-.15.3-.07.15,0,.08-.19.32-.3.5c-.85,1.37-1.6,2.68-2.53,4.09l-3.29,4.43a71.55,71.55,0,0,1-15.17,13.74A101.38,101.38,0,0,1,336.3,293c-5.91,2.56-11.9,4.69-17.87,6.62s-11.89,3.6-17.75,5.37c-11.4,3.55-22.72,7.36-32.69,13.08s-18.4,13.38-23.43,23.23l-7.72,15.11-4.14-16a89.68,89.68,0,0,1-2.61-11.7,45.72,45.72,0,0,1-.7-5.92c-.1-2-.33-4-.32-5.94l.1-5.91c.05-2,.34-3.92.51-5.87a47.23,47.23,0,0,1,.82-5.81c.4-1.91.65-3.85,1.18-5.72l1.53-5.62c.54-1.86,1.26-3.66,1.88-5.49a50.78,50.78,0,0,1,2.15-5.36c.82-1.74,1.47-3.56,2.42-5.23l2.71-5.06c1-1.65,2-3.23,3.06-4.84a41,41,0,0,1,3.32-4.63,52.77,52.77,0,0,1,3.61-4.4l3.85-4.15L260.4,245a48,48,0,0,1,4.42-3.48,39.27,39.27,0,0,1,4.64-3.13c1.62-.93,3.18-1.93,4.84-2.78s3.33-1.57,4.94-2.26l9.78-4c3.21-1.33,6.34-2.74,9.34-4.35a40.49,40.49,0,0,0,8.38-5.81,33.59,33.59,0,0,0,6.59-8A24.23,24.23,0,0,0,316.52,201a24.08,24.08,0,0,1-1.82,10.92,33.33,33.33,0,0,1-5.95,9.45,45.25,45.25,0,0,1-8.28,7.37,91.59,91.59,0,0,1-9.29,5.6l-9.29,5c-1.54.87-2.91,1.66-4.43,2.62l-4.12,2.87a31.74,31.74,0,0,0-3.93,3.13,41.29,41.29,0,0,0-3.71,3.42L262.22,255l-3.16,4a49.37,49.37,0,0,0-2.91,4.18,46.83,46.83,0,0,0-2.7,4.33c-.82,1.5-1.72,2.95-2.49,4.47l-2.17,4.65c-.77,1.52-1.25,3.19-1.89,4.77a40.86,40.86,0,0,0-1.65,4.86c-.47,1.65-1,3.27-1.41,4.93l-1.07,5c-.39,1.66-.5,3.38-.76,5.06a37.6,37.6,0,0,0-.55,5.07c-.08,1.69-.3,3.39-.28,5.08l.07,5.06c.05,1.68.31,3.34.45,5a34.18,34.18,0,0,0,.75,4.95A77.27,77.27,0,0,0,244.9,336l-11.85-.85a59.3,59.3,0,0,1,12.22-17.29,80.66,80.66,0,0,1,16.17-12.26c11.48-6.67,23.52-11,35.58-14.51,5.9-1.7,11.83-3.29,17.53-5.07s11.35-3.71,16.75-6a104.5,104.5,0,0,0,15.44-7.84,58.88,58.88,0,0,0,12.88-10.85l2.46-3.05c.86-1.19,1.73-2.61,2.6-3.9.52-.81,1.27-2.34,1.9-3.47l1.72-3.84a53.1,53.1,0,0,0,3.5-16.81,63.25,63.25,0,0,0-1.65-17.56A65.81,65.81,0,0,0,364,196.18c-.7-1.32-1.6-2.71-2.39-4.05l-2.46-3.59c-1.82-2.38-3.72-4.69-5.76-6.89A79.25,79.25,0,0,0,339.63,170,102,102,0,0,0,306.27,155.59Z" transform="translate(-79.45 -42.17)"/><path class="cls-2" d="M224.64,317.85l-1.67,0a31.61,31.61,0,0,1-4.72,0,47.39,47.39,0,0,1-7.37-1l-4.45-1.2c-1.55-.5-3.13-1.17-4.82-1.8a58.24,58.24,0,0,1-10.2-5.71,58.94,58.94,0,0,1-10-8.69,65.52,65.52,0,0,1-8.54-11.65,70.26,70.26,0,0,1-5.75-14,71.63,71.63,0,0,1-2-15.14A68.93,68.93,0,0,1,166.68,244,63.65,63.65,0,0,1,171,231.09a62.53,62.53,0,0,1,5.92-10.42c1.14-1.46,2.17-2.89,3.24-4.16l3.23-3.45a51.12,51.12,0,0,1,5.78-4.88,34,34,0,0,1,4-2.61l1.44-.86-1.23,1.18c-.78.79-2,1.84-3.36,3.4s-3,3.42-4.72,5.64l-2.54,3.74q-1.23,2-2.56,4.28a81.34,81.34,0,0,0-4.49,10.25,75.44,75.44,0,0,0-3.09,12,76.3,76.3,0,0,0-.87,13.18,64.77,64.77,0,0,0,2,13.36,63.37,63.37,0,0,0,4.89,12.5,72.24,72.24,0,0,0,7.22,10.82,69.26,69.26,0,0,0,8.57,8.63,75.11,75.11,0,0,0,8.89,6.34l4.29,2.28,4,1.81a69.14,69.14,0,0,0,6.8,2.27c1.91.6,3.52.84,4.57,1.08Z" transform="translate(-79.45 -42.17)"/><path class="cls-1" d="M282.55,245.13a45,45,0,0,0-8.3,9,49,49,0,0,0-3.07,5.16,38.37,38.37,0,0,0-2.25,5.49l-3.63-3a35.34,35.34,0,0,1,11.19-6.35,55.37,55.37,0,0,1,12.19-2.68c8.18-.89,16-.73,23.92-.83l7.36-.1-4.74,5.81c-1.8,2.2-3.66,4.33-5.48,6.5s-3.66,4.33-5.55,6.44q-5.6,6.39-11.45,12.56l-1.25-2.69c4.46.3,8.92.64,13.4,1.21-4.43.85-8.87,1.49-13.31,2.07l-3.3.44,2.05-3.13q4.71-7.17,9.68-14.11c1.63-2.34,3.31-4.63,5-6.91s3.36-4.59,5.09-6.84l2.62,5.72-11.84.38c-3.93.08-7.81.11-11.6.45a60.34,60.34,0,0,0-11.09,1.74,33.08,33.08,0,0,0-10.06,4.39l-7.54,5,3.91-8.05a37.37,37.37,0,0,1,7.61-10.68A32,32,0,0,1,282.55,245.13Z" transform="translate(-79.45 -42.17)"/><path class="cls-1" d="M233.86,117.3c0-5.48.21-11,.44-16.41s.51-10.9.92-16.33.71-10.88,1.22-16.3S237.3,57.41,237.9,52L239,42.17l6.66,7.31c4.16,4.57,8.27,9.2,12.23,14s7.71,9.72,11.43,14.7c1.86,2.5,3.67,5,5.44,7.61l5.17,7.73c3.45,5.24,6.75,10.52,9.79,16s6.08,11,8.71,16.68,5.25,11.44,7.45,17.34c1.11,2.95,2.19,5.91,3.19,8.89s1.87,6,2.76,9.05,1.63,6.09,2.3,9.17,1.21,6.19,1.79,9.27c-4.92-11.5-10.15-22.64-15.85-33.48l-4.37-8.06c-1.48-2.67-3-5.33-4.53-8l-4.68-7.84c-1.58-2.6-3.16-5.2-4.82-7.75l-5-7.64c-1.68-2.53-3.33-5.09-5.05-7.56l-5.23-7.52-5.27-7.39q-5.31-7.41-10.9-14.58T239,55.8l7.74-2.51C246,58.66,244.9,64,244,69.35s-2,10.7-3,16-2.2,10.66-3.32,16S235.22,112,233.86,117.3Z" transform="translate(-79.45 -42.17)"/><text class="cls-5" transform="translate(76.69 383.79) scale(0.65 1)">Ges<tspan class="cls-6" x="132.38" y="0">V</tspan><tspan class="cls-1" x="182.41" y="0">et</tspan></text><text class="cls-7" transform="translate(0 434.85) scale(0.65 1)">Lo mejor para <tspan class="cls-1" x="307.46" y="0">tu mascota</tspan></text><text x="-79.45" y="-42.17"/></svg>